Hack-Regular.ufo
<glyph name="numbersign" format="1">
  <advance width="1233"/>
  <unicode hex="0023"/>
  <outline>
    <contour>
      <point x="260" y="414" type="line" name="hr00"/>
      <point x="2" y="414" type="line"/>
      <point x="2" y="567" type="line"/>
      <point x="299" y="567" type="line" name="dv01"/>
      <point x="383" y="901" type="line" name="dv02"/>
      <point x="117" y="901" type="line"/>
      <point x="117" y="1055" type="line"/>
      <point x="420" y="1055" type="line" name="dv03"/>
      <point x="524" y="1470" type="line" name="av01"/>
      <point x="684" y="1470" type="line"/>
      <point x="580" y="1055" type="line" name="sv01"/>
      <point x="825" y="1055" type="line"/>
      <point x="930" y="1470" type="line" name="av02"/>
      <point x="1090" y="1470" type="line"/>
      <point x="985" y="1055" type="line" name="sv02"/>
      <point x="1229" y="1055" type="line"/>
      <point x="1229" y="901" type="line" name="sv03"/>
      <point x="948" y="901" type="line"/>
      <point x="864" y="567" type="line" name="sv04"/>
      <point x="1114" y="567" type="line"/>
      <point x="1114" y="414" type="line" name="sv05"/>
      <point x="825" y="414" type="line"/>
      <point x="721" y="0" type="line" name="ab01"/>
      <point x="561" y="0" type="line"/>
      <point x="666" y="414" type="line" name="sv06"/>
      <point x="420" y="414" type="line"/>
      <point x="315" y="0" type="line" name="ab02"/>
      <point x="156" y="0" type="line"/>
    </contour>
    <contour>
      <point x="705" y="567" type="line" name="sv07"/>
      <point x="788" y="901" type="line" name="sv08"/>
      <point x="543" y="901" type="line"/>
      <point x="459" y="567" type="line"/>
    </contour>
  </outline>
</glyph>
<glyph name="dollar" format="1">
  <advance width="1233"/>
  <unicode hex="0024"/>
  <note>
	dollar
  </note>
  <outline>
    <contour>
      <point x="591" y="-301" type="line"/>
      <point x="693" y="-301" type="line"/>
      <point x="693" y="2" type="line"/>
      <point x="819" y="8"/>
      <point x="921" y="45"/>
      <point x="998" y="114" type="curve" smooth="yes"/>
      <point x="1078" y="186"/>
      <point x="1114" y="272"/>
      <point x="1114" y="373" type="curve" smooth="yes"/>
      <point x="1114" y="474"/>
      <point x="1078" y="557"/>
      <point x="1006" y="622" type="curve" smooth="yes"/>
      <point x="935" y="686"/>
      <point x="830" y="729"/>
      <point x="692" y="750" type="curve"/>
      <point x="692" y="1181" type="line"/>
      <point x="748" y="1178"/>
      <point x="808" y="1167"/>
      <point x="853" y="1154" type="curve" smooth="yes"/>
      <point x="892" y="1143"/>
      <point x="959" y="1118"/>
      <point x="1018" y="1087" type="curve"/>
      <point x="1018" y="1260" type="line"/>
      <point x="962" y="1277"/>
      <point x="908" y="1290"/>
      <point x="853" y="1301" type="curve" smooth="yes"/>
      <point x="804" y="1310"/>
      <point x="747" y="1318"/>
      <point x="692" y="1321" type="curve"/>
      <point x="692" y="1556" type="line"/>
      <point x="592" y="1556" type="line"/>
      <point x="592" y="1321" type="line"/>
      <point x="465" y="1312"/>
      <point x="367" y="1277"/>
      <point x="296" y="1214" type="curve" smooth="yes"/>
      <point x="225" y="1151"/>
      <point x="190" y="1068"/>
      <point x="190" y="964" type="curve" smooth="yes"/>
      <point x="190" y="861"/>
      <point x="223" y="783"/>
      <point x="291" y="722" type="curve" smooth="yes"/>
      <point x="360" y="659"/>
      <point x="459" y="621"/>
      <point x="592" y="600" type="curve"/>
      <point x="592" y="142" type="line"/>
      <point x="527" y="143"/>
      <point x="460" y="154"/>
      <point x="392" y="177" type="curve" smooth="yes"/>
      <point x="323" y="200"/>
      <point x="262" y="228"/>
      <point x="190" y="272" type="curve"/>
      <point x="190" y="92" type="line"/>
      <point x="261" y="63"/>
      <point x="322" y="43"/>
      <point x="389" y="28" type="curve" smooth="yes"/>
      <point x="457" y="13"/>
      <point x="523" y="3"/>
      <point x="591" y="0" type="curve"/>
    </contour>
    <contour>
      <point x="592" y="770" type="line"/>
      <point x="518" y="781"/>
      <point x="463" y="804"/>
      <point x="426" y="837" type="curve" smooth="yes"/>
      <point x="390" y="870"/>
      <point x="371" y="913"/>
      <point x="371" y="974" type="curve" smooth="yes"/>
      <point x="371" y="1036"/>
      <point x="391" y="1086"/>
      <point x="430" y="1123" type="curve" smooth="yes"/>
      <point x="469" y="1160"/>
      <point x="523" y="1180"/>
      <point x="592" y="1183" type="curve"/>
    </contour>
    <contour>
      <point x="692" y="580" type="line"/>
      <point x="774" y="567"/>
      <point x="833" y="543"/>
      <point x="870" y="510" type="curve" smooth="yes"/>
      <point x="909" y="475"/>
      <point x="926" y="424"/>
      <point x="926" y="363" type="curve" smooth="yes"/>
      <point x="926" y="298"/>
      <point x="905" y="246"/>
      <point x="864" y="207" type="curve" smooth="yes"/>
      <point x="823" y="168"/>
      <point x="766" y="148"/>
      <point x="692" y="146" type="curve"/>
    </contour>
  </outline>
</glyph>
<glyph name="percent" format="1">
  <advance width="1233"/>
  <unicode hex="0025"/>
  <outline>
    <contour>
      <point x="351" y="793" type="qcurve" name="dv05"/>
      <point x="283" y="793"/>
      <point x="167" y="842"/>
      <point x="125" y="884" type="qcurve"/>
      <point x="80" y="929"/>
      <point x="33" y="1046"/>
      <point x="33" y="1112" type="qcurve" name="dh01"/>
      <point x="33" y="1183"/>
      <point x="83" y="1299"/>
      <point x="125" y="1341" type="qcurve"/>
      <point x="167" y="1383"/>
      <point x="283" y="1432"/>
      <point x="352" y="1432" type="qcurve" name="dv02"/>
      <point x="416" y="1432"/>
      <point x="475" y="1408" type="qcurve"/>
      <point x="533" y="1384"/>
      <point x="578" y="1339" type="qcurve"/>
      <point x="601" y="1316"/>
      <point x="637" y="1263"/>
      <point x="648" y="1236" type="qcurve"/>
      <point x="672" y="1177"/>
      <point x="672" y="1113" type="qcurve" name="dh04"/>
      <point x="672" y="1047"/>
      <point x="624" y="929"/>
      <point x="580" y="885" type="qcurve"/>
      <point x="538" y="843"/>
      <point x="420" y="793"/>
    </contour>
    <contour>
      <point x="351" y="928" type="qcurve" name="dv06"/>
      <point x="388" y="928"/>
      <point x="456" y="955"/>
      <point x="483" y="981" type="qcurve"/>
      <point x="506" y="1004"/>
      <point x="537" y="1071"/>
      <point x="537" y="1113" type="qcurve" name="dh03"/>
      <point x="537" y="1189"/>
      <point x="483" y="1243" type="qcurve"/>
      <point x="428" y="1296"/>
      <point x="353" y="1296" type="qcurve" name="dv01"/>
      <point x="276" y="1296"/>
      <point x="222" y="1244" type="qcurve"/>
      <point x="197" y="1220"/>
      <point x="168" y="1152"/>
      <point x="168" y="1112" type="qcurve" name="dh02"/>
      <point x="168" y="1033"/>
      <point x="221" y="980" type="qcurve"/>
      <point x="243" y="958"/>
      <point x="309" y="928"/>
    </contour>
    <contour>
      <point x="42" y="560" type="line" name="sh01"/>
      <point x="1192" y="996" type="line" name="sh02"/>
      <point x="1192" y="883" type="line"/>
      <point x="42" y="453" type="line" name="ih01"/>
    </contour>
    <contour>
      <point x="879" y="0" type="qcurve" name="ab01"/>
      <point x="743" y="0"/>
      <point x="651" y="92" type="qcurve"/>
      <point x="606" y="138"/>
      <point x="561" y="253"/>
      <point x="561" y="318" type="qcurve" name="ih02"/>
      <point x="561" y="389"/>
      <point x="611" y="506"/>
      <point x="653" y="548" type="qcurve"/>
      <point x="695" y="590"/>
      <point x="811" y="639"/>
      <point x="879" y="639" type="qcurve" name="dv04"/>
      <point x="944" y="639"/>
      <point x="1001" y="615" type="qcurve"/>
      <point x="1058" y="591"/>
      <point x="1104" y="545" type="qcurve"/>
      <point x="1130" y="519"/>
      <point x="1164" y="465"/>
      <point x="1175" y="440" type="qcurve"/>
      <point x="1200" y="383"/>
      <point x="1200" y="319" type="qcurve" name="hr01"/>
      <point x="1200" y="256"/>
      <point x="1155" y="140"/>
      <point x="1107" y="92" type="qcurve"/>
      <point x="1060" y="46"/>
      <point x="945" y="0"/>
    </contour>
    <contour>
      <point x="879" y="135" type="qcurve" name="sv01"/>
      <point x="956" y="135"/>
      <point x="1010" y="189" type="qcurve"/>
      <point x="1063" y="242"/>
      <point x="1063" y="319" type="qcurve" name="dh05"/>
      <point x="1063" y="396"/>
      <point x="1009" y="450" type="qcurve"/>
      <point x="955" y="504"/>
      <point x="879" y="504" type="qcurve" name="dv03"/>
      <point x="802" y="504"/>
      <point x="749" y="451" type="qcurve"/>
      <point x="696" y="398"/>
      <point x="696" y="319" type="qcurve" name="sh03"/>
      <point x="696" y="241"/>
      <point x="749" y="188" type="qcurve"/>
      <point x="802" y="135"/>
    </contour>
  </outline>
</glyph>
<glyph name="parenleft" format="1">
  <advance width="1233"/>
  <unicode hex="0028"/>
  <note>
	parenleft
  </note>
  <outline>
    <contour>
      <point x="755" y="-270" type="line"/>
      <point x="663" y="-110"/>
      <point x="601" y="34"/>
      <point x="557" y="187" type="curve" smooth="yes"/>
      <point x="513" y="340"/>
      <point x="491" y="486"/>
      <point x="491" y="643" type="curve" smooth="yes"/>
      <point x="491" y="796"/>
      <point x="512" y="943"/>
      <point x="557" y="1100" type="curve" smooth="yes"/>
      <point x="600" y="1249"/>
      <point x="660" y="1393"/>
      <point x="755" y="1554" type="curve"/>
      <point x="595" y="1554" type="line"/>
      <point x="492" y="1394"/>
      <point x="421" y="1245"/>
      <point x="370" y="1092" type="curve" smooth="yes"/>
      <point x="321" y="940"/>
      <point x="296" y="790"/>
      <point x="296" y="643" type="curve" smooth="yes"/>
      <point x="296" y="495"/>
      <point x="321" y="345"/>
      <point x="370" y="194" type="curve" smooth="yes"/>
      <point x="419" y="43"/>
      <point x="491" y="-105"/>
      <point x="595" y="-270" type="curve"/>
    </contour>
  </outline>
</glyph>
<glyph name="zero" format="1">
  <advance width="1233"/>
  <unicode hex="0030"/>
  <outline>
    <contour>
      <point x="616" y="-29" type="qcurve" name="hr00"/>
      <point x="376" y="-29"/>
      <point x="255" y="167" type="qcurve"/>
      <point x="133" y="364"/>
      <point x="133" y="745" type="qcurve" name="sh01"/>
      <point x="133" y="1127"/>
      <point x="255" y="1324" type="qcurve"/>
      <point x="376" y="1520"/>
      <point x="616" y="1520" type="qcurve" name="at01"/>
      <point x="734" y="1520"/>
      <point x="916" y="1424"/>
      <point x="978" y="1324" type="qcurve"/>
      <point x="1038" y="1228"/>
      <point x="1100" y="941"/>
      <point x="1100" y="745" type="qcurve" name="sh04"/>
      <point x="1100" y="549"/>
      <point x="1038" y="263"/>
      <point x="978" y="167" type="qcurve"/>
      <point x="855" y="-29"/>
    </contour>
    <contour>
      <point x="616" y="131" type="qcurve" name="dv01"/>
      <point x="689" y="131"/>
      <point x="794" y="209"/>
      <point x="828" y="283" type="qcurve"/>
      <point x="897" y="434"/>
      <point x="897" y="745" type="qcurve" name="sh03"/>
      <point x="897" y="1057"/>
      <point x="828" y="1207" type="qcurve"/>
      <point x="794" y="1282"/>
      <point x="690" y="1360"/>
      <point x="616" y="1360" type="qcurve" name="sv01"/>
      <point x="475" y="1360"/>
      <point x="406" y="1208" type="qcurve"/>
      <point x="371" y="1133"/>
      <point x="336" y="906"/>
      <point x="336" y="745" type="qcurve" name="sh05"/>
      <point x="336" y="433"/>
      <point x="406" y="283" type="qcurve"/>
      <point x="442" y="205"/>
      <point x="547" y="131"/>
    </contour>
    <contour>
      <point x="618" y="396" type="qcurve"/>
      <point x="603" y="396"/>
      <point x="578" y="419"/>
      <point x="559" y="458"/>
      <point x="545" y="511"/>
      <point x="539" y="540" type="qcurve"/>
      <point x="534" y="564"/>
      <point x="526" y="622"/>
      <point x="520" y="681"/>
      <point x="516" y="733"/>
      <point x="516" y="750" type="qcurve" name="sh02"/>
      <point x="516" y="762"/>
      <point x="518" y="808"/>
      <point x="523" y="864"/>
      <point x="530" y="925"/>
      <point x="536" y="953" type="qcurve"/>
      <point x="564" y="1096"/>
      <point x="614" y="1096" type="qcurve"/>
      <point x="642" y="1096"/>
      <point x="681" y="1020"/>
      <point x="695" y="950" type="qcurve"/>
      <point x="700" y="925"/>
      <point x="708" y="867"/>
      <point x="714" y="810"/>
      <point x="717" y="759"/>
      <point x="717" y="742" type="qcurve" name="sh06"/>
      <point x="717" y="732"/>
      <point x="716" y="690"/>
      <point x="712" y="635"/>
      <point x="705" y="573"/>
      <point x="700" y="542" type="qcurve"/>
      <point x="687" y="468"/>
      <point x="644" y="396"/>
    </contour>
  </outline>
</glyph>
<glyph name="three" format="1">
  <advance width="1233"/>
  <unicode hex="0033"/>
  <outline>
    <contour>
      <point x="566" y="-29" type="qcurve" name="dv01"/>
      <point x="518" y="-29"/>
      <point x="413" y="-20"/>
      <point x="359" y="-10" type="qcurve"/>
      <point x="313" y="-2"/>
      <point x="203" y="26"/>
      <point x="149" y="45" type="qcurve"/>
      <point x="149" y="249" type="line"/>
      <point x="200" y="223"/>
      <point x="298" y="181"/>
      <point x="350" y="167" type="qcurve"/>
      <point x="400" y="154"/>
      <point x="497" y="141"/>
      <point x="547" y="141" type="qcurve" name="dv02"/>
      <point x="713" y="141"/>
      <point x="802" y="216" type="qcurve" name="hr01"/>
      <point x="847" y="254"/>
      <point x="891" y="362"/>
      <point x="891" y="429" type="qcurve" name="dh01"/>
      <point x="891" y="563"/>
      <point x="803" y="639" type="qcurve"/>
      <point x="760" y="676"/>
      <point x="638" y="715"/>
      <point x="561" y="715" type="qcurve" name="dv03"/>
      <point x="407" y="715" type="line"/>
      <point x="407" y="881" type="line"/>
      <point x="561" y="881" type="line" name="dv04"/>
      <point x="701" y="881"/>
      <point x="779" y="942" type="qcurve"/>
      <point x="856" y="1002"/>
      <point x="856" y="1115" type="qcurve" name="sh01"/>
      <point x="856" y="1169"/>
      <point x="820" y="1258"/>
      <point x="784" y="1289" type="qcurve"/>
      <point x="713" y="1350"/>
      <point x="574" y="1350" type="qcurve" name="sv01"/>
      <point x="533" y="1350"/>
      <point x="441" y="1340"/>
      <point x="393" y="1330" type="qcurve"/>
      <point x="296" y="1310"/>
      <point x="194" y="1270" type="qcurve"/>
      <point x="194" y="1456" type="line"/>
      <point x="315" y="1487"/>
      <point x="410" y="1504" type="qcurve"/>
      <point x="502" y="1520"/>
      <point x="579" y="1520" type="qcurve" name="at01"/>
      <point x="684" y="1520"/>
      <point x="861" y="1466"/>
      <point x="927" y="1411" type="qcurve" name="hr02"/>
      <point x="989" y="1359"/>
      <point x="1056" y="1213"/>
      <point x="1056" y="1122" type="qcurve" name="ih01"/>
      <point x="1056" y="1057"/>
      <point x="1021" y="955"/>
      <point x="988" y="915" type="qcurve"/>
      <point x="920" y="834"/>
      <point x="788" y="799" type="qcurve" name="iv01"/>
      <point x="935" y="760"/>
      <point x="1013" y="661" type="qcurve"/>
      <point x="1054" y="609"/>
      <point x="1091" y="483"/>
      <point x="1091" y="411" type="qcurve" name="dh02"/>
      <point x="1091" y="311"/>
      <point x="1023" y="148"/>
      <point x="954" y="89" type="qcurve"/>
      <point x="886" y="31"/>
      <point x="693" y="-29"/>
    </contour>
  </outline>
</glyph>
<glyph name="eight" format="1">
  <advance width="1233"/>
  <unicode hex="0038"/>
  <outline>
    <contour>
      <point x="615" y="-29" type="qcurve" name="dv01"/>
      <point x="499" y="-29"/>
      <point x="322" y="30"/>
      <point x="260" y="84" type="qcurve"/>
      <point x="198" y="138"/>
      <point x="131" y="295"/>
      <point x="131" y="400" type="qcurve" name="dh01"/>
      <point x="131" y="559"/>
      <point x="211" y="660" type="qcurve"/>
      <point x="290" y="760"/>
      <point x="440" y="793" type="qcurve" name="ih02"/>
      <point x="379" y="808"/>
      <point x="275" y="870"/>
      <point x="239" y="915" type="qcurve"/>
      <point x="201" y="962"/>
      <point x="166" y="1074"/>
      <point x="166" y="1137" type="qcurve" name="ih03"/>
      <point x="166" y="1222"/>
      <point x="226" y="1363"/>
      <point x="287" y="1416" type="qcurve"/>
      <point x="346" y="1467"/>
      <point x="509" y="1520"/>
      <point x="616" y="1520" type="qcurve" name="at01"/>
      <point x="723" y="1520"/>
      <point x="887" y="1467"/>
      <point x="946" y="1416" type="qcurve"/>
      <point x="1006" y="1365"/>
      <point x="1067" y="1224"/>
      <point x="1067" y="1136" type="qcurve" name="dh04"/>
      <point x="1067" y="1068"/>
      <point x="1030" y="960"/>
      <point x="995" y="916" type="qcurve" name="hr01"/>
      <point x="960" y="872"/>
      <point x="859" y="810"/>
      <point x="793" y="793" type="qcurve" name="ih04"/>
      <point x="944" y="760"/>
      <point x="1023" y="660" type="qcurve"/>
      <point x="1102" y="560"/>
      <point x="1102" y="402" type="qcurve" name="sh01"/>
      <point x="1102" y="297"/>
      <point x="1035" y="138"/>
      <point x="973" y="84" type="qcurve"/>
      <point x="910" y="29"/>
      <point x="730" y="-29"/>
    </contour>
    <contour>
      <point x="616" y="868" type="qcurve" name="dv03"/>
      <point x="737" y="868"/>
      <point x="802" y="931" type="qcurve"/>
      <point x="866" y="994"/>
      <point x="866" y="1114" type="qcurve" name="dh03"/>
      <point x="866" y="1235"/>
      <point x="803" y="1300" type="qcurve"/>
      <point x="739" y="1364"/>
      <point x="616" y="1364" type="qcurve" name="hr02"/>
      <point x="495" y="1364"/>
      <point x="431" y="1300" type="qcurve"/>
      <point x="367" y="1236"/>
      <point x="367" y="1114" type="qcurve" name="sh02"/>
      <point x="367" y="994"/>
      <point x="431" y="931" type="qcurve"/>
      <point x="495" y="868"/>
    </contour>
    <contour>
      <point x="619" y="129" type="qcurve" name="hr03"/>
      <point x="685" y="129"/>
      <point x="789" y="167"/>
      <point x="826" y="205" type="qcurve"/>
      <point x="863" y="243"/>
      <point x="899" y="350"/>
      <point x="899" y="418" type="qcurve" name="ih01"/>
      <point x="899" y="492"/>
      <point x="860" y="598"/>
      <point x="825" y="633" type="qcurve"/>
      <point x="750" y="709"/>
      <point x="616" y="709" type="qcurve" name="dv02"/>
      <point x="481" y="709"/>
      <point x="408" y="634" type="qcurve"/>
      <point x="373" y="598"/>
      <point x="334" y="491"/>
      <point x="334" y="421" type="qcurve" name="dh02"/>
      <point x="334" y="353"/>
      <point x="371" y="244"/>
      <point x="408" y="206" type="qcurve"/>
      <point x="446" y="167"/>
      <point x="553" y="129"/>
    </contour>
  </outline>
</glyph>
<glyph name="nine" format="1">
  <advance width="1233"/>
  <unicode hex="0039"/>
  <outline>
    <contour>
      <point x="528" y="-29" type="qcurve" name="dv01"/>
      <point x="491" y="-29"/>
      <point x="414" y="-22"/>
      <point x="379" y="-14" type="qcurve"/>
      <point x="347" y="-7"/>
      <point x="271" y="17"/>
      <point x="236" y="31" type="qcurve"/>
      <point x="236" y="217" type="line" name="ih01"/>
      <point x="268" y="198"/>
      <point x="337" y="170"/>
      <point x="370" y="161" type="qcurve"/>
      <point x="442" y="141"/>
      <point x="517" y="141" type="qcurve" name="dv02"/>
      <point x="710" y="141"/>
      <point x="809" y="286" type="qcurve"/>
      <point x="907" y="431"/>
      <point x="907" y="711" type="qcurve" name="sh01"/>
      <point x="884" y="660"/>
      <point x="814" y="582"/>
      <point x="775" y="557" type="qcurve"/>
      <point x="692" y="504"/>
      <point x="569" y="504" type="qcurve" name="dv03"/>
      <point x="469" y="504"/>
      <point x="305" y="571"/>
      <point x="246" y="637" type="qcurve"/>
      <point x="127" y="771"/>
      <point x="127" y="1010" type="qcurve" name="dh01"/>
      <point x="127" y="1128"/>
      <point x="186" y="1321"/>
      <point x="249" y="1389" type="qcurve"/>
      <point x="309" y="1455"/>
      <point x="483" y="1520"/>
      <point x="594" y="1520" type="qcurve" name="at01"/>
      <point x="731" y="1520"/>
      <point x="913" y="1423"/>
      <point x="972" y="1332" type="qcurve"/>
      <point x="1036" y="1232"/>
      <point x="1094" y="946"/>
      <point x="1094" y="766" type="qcurve" name="dh03"/>
      <point x="1094" y="568"/>
      <point x="1025" y="270"/>
      <point x="950" y="169" type="qcurve"/>
      <point x="876" y="69"/>
      <point x="662" y="-29"/>
    </contour>
    <contour>
      <point x="593" y="662" type="qcurve" name="dv04"/>
      <point x="663" y="662"/>
      <point x="765" y="711"/>
      <point x="799" y="754" type="qcurve"/>
      <point x="834" y="798"/>
      <point x="872" y="927"/>
      <point x="872" y="1012" type="qcurve" name="hr01"/>
      <point x="872" y="1097"/>
      <point x="834" y="1226"/>
      <point x="799" y="1270" type="qcurve"/>
      <point x="765" y="1313"/>
      <point x="663" y="1362"/>
      <point x="593" y="1362" type="qcurve" name="sv01"/>
      <point x="531" y="1362"/>
      <point x="429" y="1320"/>
      <point x="394" y="1274" type="qcurve"/>
      <point x="326" y="1185"/>
      <point x="326" y="1012" type="qcurve" name="dh02"/>
      <point x="326" y="839"/>
      <point x="394" y="750" type="qcurve"/>
      <point x="428" y="705"/>
      <point x="529" y="662"/>
    </contour>
  </outline>
</glyph>
<glyph name="semicolon" format="1">
  <advance width="1233"/>
  <unicode hex="003B"/>
  <outline>
    <contour>
      <point x="610" y="703" type="qcurve" name="dv01"/>
      <point x="538" y="703"/>
      <point x="490" y="753" type="qcurve"/>
      <point x="440" y="801"/>
      <point x="440" y="881" type="qcurve" name="dh01"/>
      <point x="440" y="959"/>
      <point x="490" y="1009" type="qcurve"/>
      <point x="538" y="1058"/>
      <point x="610" y="1058" type="qcurve" name="dv02"/>
      <point x="683" y="1058"/>
      <point x="731" y="1009" type="qcurve"/>
      <point x="780" y="960"/>
      <point x="780" y="881" type="qcurve" name="hr01"/>
      <point x="780" y="801"/>
      <point x="731" y="753" type="qcurve"/>
      <point x="683" y="703"/>
    </contour>
    <contour>
      <point x="394" y="-361" type="line"/>
      <point x="650" y="-247"/>
      <point x="659" y="-10" type="qcurve" name="hr02"/>
      <point x="646" y="-13"/>
      <point x="626" y="-15"/>
      <point x="617" y="-15" type="qcurve" name="ab01"/>
      <point x="584" y="-15"/>
      <point x="524" y="6"/>
      <point x="501" y="26" type="qcurve"/>
      <point x="455" y="69"/>
      <point x="455" y="142" type="qcurve"/>
      <point x="455" y="177"/>
      <point x="478" y="238"/>
      <point x="503" y="260" type="qcurve" name="hr03"/>
      <point x="524" y="279"/>
      <point x="587" y="302"/>
      <point x="625" y="302" type="qcurve" name="sv01"/>
      <point x="714" y="302"/>
      <point x="764" y="231" type="qcurve"/>
      <point x="812" y="160"/>
      <point x="812" y="34" type="qcurve" name="sh01"/>
      <point x="812" y="-146"/>
      <point x="715" y="-276" type="qcurve"/>
      <point x="618" y="-406"/>
      <point x="442" y="-470" type="qcurve" name="av01"/>
    </contour>
  </outline>
</glyph>
<glyph name="less" format="1">
  <advance width="1233"/>
  <unicode hex="003C"/>
  <outline>
    <contour>
      <point x="88" y="559" type="line" name="hr00"/>
      <point x="88" y="725" type="line"/>
      <point x="1145" y="1143" type="line" name="at01"/>
      <point x="1145" y="961" type="line"/>
      <point x="295" y="641" type="line" name="iv01"/>
      <point x="1145" y="324" type="line"/>
      <point x="1145" y="141" type="line" name="av01"/>
    </contour>
  </outline>
</glyph>
<glyph name="equal" format="1">
  <advance width="1233"/>
  <unicode hex="003D"/>
  <note>
	equal
  </note>
  <outline>
    <contour>
      <point x="88" y="760" type="line"/>
      <point x="1145" y="760" type="line"/>
      <point x="1145" y="930" type="line"/>
      <point x="88" y="930" type="line"/>
    </contour>
    <contour>
      <point x="88" y="352" type="line"/>
      <point x="1145" y="352" type="line"/>
      <point x="1145" y="524" type="line"/>
      <point x="88" y="524" type="line"/>
    </contour>
  </outline>
</glyph>
<glyph name="B" format="1">
  <advance width="1233"/>
  <unicode hex="0042"/>
  <outline>
    <contour>
      <point x="166" y="1493" type="line" name="dh01"/>
      <point x="608" y="1493" type="line"/>
      <point x="836" y="1493"/>
      <point x="961" y="1394" type="qcurve"/>
      <point x="1085" y="1295"/>
      <point x="1085" y="1113" type="qcurve" name="dh04"/>
      <point x="1085" y="1043"/>
      <point x="1051" y="936"/>
      <point x="1020" y="898" type="qcurve"/>
      <point x="988" y="860"/>
      <point x="890" y="809"/>
      <point x="823" y="799" type="qcurve" name="ih02"/>
      <point x="971" y="776"/>
      <point x="1054" y="674" type="qcurve"/>
      <point x="1095" y="623"/>
      <point x="1137" y="491"/>
      <point x="1137" y="409" type="qcurve" name="sh01"/>
      <point x="1137" y="207"/>
      <point x="1004" y="104" type="qcurve"/>
      <point x="870" y="0"/>
      <point x="608" y="0" type="qcurve" name="ab01"/>
      <point x="166" y="0" type="line"/>
    </contour>
    <contour>
      <point x="604" y="877" type="line" name="hr01"/>
      <point x="680" y="877"/>
      <point x="783" y="905"/>
      <point x="816" y="934" type="qcurve"/>
      <point x="881" y="990"/>
      <point x="881" y="1111" type="qcurve" name="dh03"/>
      <point x="881" y="1171"/>
      <point x="849" y="1252"/>
      <point x="817" y="1277" type="qcurve"/>
      <point x="752" y="1327"/>
      <point x="604" y="1327" type="qcurve" name="sv01"/>
      <point x="369" y="1327" type="line" name="dh02"/>
      <point x="369" y="877" type="line" name="hr02"/>
    </contour>
    <contour>
      <point x="608" y="166" type="line" name="sv02"/>
      <point x="783" y="166"/>
      <point x="859" y="228" type="qcurve"/>
      <point x="934" y="289"/>
      <point x="934" y="430" type="qcurve" name="ih01"/>
      <point x="934" y="576"/>
      <point x="855" y="645" type="qcurve" name="hr03"/>
      <point x="775" y="713"/>
      <point x="608" y="713" type="qcurve" name="dv01"/>
      <point x="369" y="713" type="line" name="sh02"/>
      <point x="369" y="166" type="line"/>
    </contour>
  </outline>
</glyph>
<glyph name="J" format="1">
  <advance width="1233"/>
  <unicode hex="004A"/>
  <note>
	J
  </note>
  <outline>
    <contour>
      <point x="665" y="-29"/>
      <point x="777" y="8"/>
      <point x="850" y="89" type="curve" smooth="yes"/>
      <point x="923" y="170"/>
      <point x="956" y="295"/>
      <point x="956" y="487" type="curve" smooth="yes"/>
      <point x="956" y="1493" type="line"/>
      <point x="373" y="1493" type="line"/>
      <point x="373" y="1323" type="line"/>
      <point x="754" y="1323" type="line"/>
      <point x="754" y="487" type="line" smooth="yes"/>
      <point x="754" y="352"/>
      <point x="735" y="259"/>
      <point x="698" y="210" type="curve" smooth="yes"/>
      <point x="659" y="158"/>
      <point x="588" y="135"/>
      <point x="499" y="135" type="curve" smooth="yes"/>
      <point x="430" y="135"/>
      <point x="363" y="149"/>
      <point x="297" y="176" type="curve" smooth="yes"/>
      <point x="232" y="203"/>
      <point x="170" y="243"/>
      <point x="109" y="297" type="curve"/>
      <point x="109" y="61" type="line"/>
      <point x="176" y="31"/>
      <point x="242" y="8"/>
      <point x="307" y="-7" type="curve" smooth="yes"/>
      <point x="368" y="-22"/>
      <point x="433" y="-29"/>
      <point x="502" y="-29" type="curve" smooth="yes"/>
    </contour>
  </outline>
</glyph>
<glyph name="N" format="1">
  <advance width="1233"/>
  <unicode hex="004E"/>
  <note>
	N
  </note>
  <outline>
    <contour>
      <point x="139" y="0" type="line"/>
      <point x="334" y="0" type="line"/>
      <point x="334" y="1229" type="line"/>
      <point x="838" y="0" type="line"/>
      <point x="1094" y="0" type="line"/>
      <point x="1094" y="1493" type="line"/>
      <point x="899" y="1493" type="line"/>
      <point x="899" y="264" type="line"/>
      <point x="395" y="1493" type="line"/>
      <point x="139" y="1493" type="line"/>
    </contour>
  </outline>
</glyph>
<glyph name="Q" format="1">
  <advance width="1233"/>
  <unicode hex="0051"/>
  <outline>
    <contour>
      <point x="655" y="-27" type="line" name="ab01"/>
      <point x="651" y="-27"/>
      <point x="642" y="-27"/>
      <point x="635" y="-28" type="qcurve" name="ab02"/>
      <point x="628" y="-29"/>
      <point x="619" y="-29"/>
      <point x="617" y="-29" type="qcurve" name="ab03"/>
      <point x="492" y="-29"/>
      <point x="305" y="63"/>
      <point x="241" y="163" type="qcurve"/>
      <point x="177" y="263"/>
      <point x="117" y="553"/>
      <point x="117" y="745" type="qcurve" name="sh01"/>
      <point x="117" y="1137"/>
      <point x="241" y="1328" type="qcurve"/>
      <point x="303" y="1424"/>
      <point x="488" y="1520"/>
      <point x="616" y="1520" type="qcurve" name="at01"/>
      <point x="739" y="1520"/>
      <point x="929" y="1428"/>
      <point x="993" y="1328" type="qcurve"/>
      <point x="1116" y="1136"/>
      <point x="1116" y="745" type="qcurve" name="sh02"/>
      <point x="1116" y="452"/>
      <point x="1048" y="272" type="qcurve"/>
      <point x="1015" y="184"/>
      <point x="911" y="56"/>
      <point x="840" y="20" type="qcurve" name="iv01"/>
      <point x="1125" y="-270" type="line" name="sh03"/>
      <point x="889" y="-270" type="line"/>
    </contour>
    <contour>
      <point x="616" y="135" type="qcurve" name="sv01"/>
      <point x="770" y="135"/>
      <point x="838" y="276" type="qcurve"/>
      <point x="905" y="414"/>
      <point x="905" y="745" type="qcurve" name="ah01"/>
      <point x="905" y="1075"/>
      <point x="838" y="1215" type="qcurve"/>
      <point x="770" y="1356"/>
      <point x="616" y="1356" type="qcurve" name="sv02"/>
      <point x="463" y="1356"/>
      <point x="396" y="1215" type="qcurve"/>
      <point x="328" y="1073"/>
      <point x="328" y="745" type="qcurve" name="sh04"/>
      <point x="328" y="418"/>
      <point x="396" y="276" type="qcurve"/>
      <point x="463" y="135"/>
    </contour>
  </outline>
</glyph>
<glyph name="bracketleft" format="1">
  <advance width="1233"/>
  <unicode hex="005B"/>
  <note>
	bracketleft
  </note>
  <outline>
    <contour>
      <point x="423" y="-270" type="line"/>
      <point x="847" y="-270" type="line"/>
      <point x="847" y="-127" type="line"/>
      <point x="607" y="-127" type="line"/>
      <point x="607" y="1493" type="line"/>
      <point x="847" y="1493" type="line"/>
      <point x="847" y="1636" type="line"/>
      <point x="423" y="1636" type="line"/>
    </contour>
  </outline>
</glyph>
<glyph name="asciicircum" format="1">
  <advance width="1233"/>
  <unicode hex="005E"/>
  <outline>
    <contour>
      <point x="528" y="1493" type="line" name="hr00"/>
      <point x="705" y="1493" type="line"/>
      <point x="1161" y="936" type="line" name="av01"/>
      <point x="983" y="936" type="line"/>
      <point x="616" y="1331" type="line"/>
      <point x="250" y="936" type="line" name="av02"/>
      <point x="72" y="936" type="line"/>
    </contour>
  </outline>
</glyph>
<glyph name="underscore" format="1">
  <advance width="1233"/>
  <unicode hex="005F"/>
  <outline>
    <contour>
      <point x="94" y="-190" type="line" name="hr00"/>
      <point x="1138" y="-190" type="line" name="dv02"/>
      <point x="1138" y="-310" type="line" name="dv01"/>
      <point x="94" y="-310" type="line"/>
    </contour>
  </outline>
</glyph>
<glyph name="g" format="1">
  <advance width="1233"/>
  <unicode hex="0067"/>
  <outline>
    <contour>
      <point x="601" y="-440" type="qcurve" name="hr00"/>
      <point x="562" y="-440"/>
      <point x="484" y="-433"/>
      <point x="442" y="-426" type="qcurve"/>
      <point x="401" y="-419"/>
      <point x="320" y="-399"/>
      <point x="276" y="-385" type="qcurve"/>
      <point x="276" y="-203" type="line" name="ih01"/>
      <point x="325" y="-226"/>
      <point x="416" y="-260"/>
      <point x="454" y="-271" type="qcurve"/>
      <point x="532" y="-293"/>
      <point x="605" y="-293" type="qcurve" name="dv01"/>
      <point x="679" y="-293"/>
      <point x="783" y="-253"/>
      <point x="818" y="-211" type="qcurve"/>
      <point x="886" y="-131"/>
      <point x="886" y="45" type="qcurve" name="ah01"/>
      <point x="886" y="178" type="line"/>
      <point x="843" y="85"/>
      <point x="766" y="38" type="qcurve"/>
      <point x="690" y="-8"/>
      <point x="582" y="-8" type="qcurve" name="ab01"/>
      <point x="385" y="-8"/>
      <point x="268" y="149" type="qcurve"/>
      <point x="151" y="306"/>
      <point x="151" y="569" type="qcurve" name="sh01"/>
      <point x="151" y="832"/>
      <point x="268" y="990" type="qcurve"/>
      <point x="327" y="1069"/>
      <point x="482" y="1147"/>
      <point x="583" y="1147" type="qcurve" name="dv03"/>
      <point x="635" y="1147"/>
      <point x="726" y="1126"/>
      <point x="764" y="1104" type="qcurve"/>
      <point x="840" y="1060"/>
      <point x="886" y="971" type="qcurve" name="sh03"/>
      <point x="904" y="1116" type="line"/>
      <point x="1070" y="1116" type="line"/>
      <point x="1070" y="72" type="line" name="sh04"/>
      <point x="1070" y="-179"/>
      <point x="951" y="-310" type="qcurve"/>
      <point x="833" y="-440"/>
    </contour>
    <contour>
      <point x="622" y="145" type="qcurve" name="sv01"/>
      <point x="752" y="145"/>
      <point x="819" y="254" type="qcurve"/>
      <point x="886" y="363"/>
      <point x="886" y="569" type="qcurve" name="sh05"/>
      <point x="886" y="777"/>
      <point x="819" y="884" type="qcurve"/>
      <point x="784" y="941"/>
      <point x="683" y="991"/>
      <point x="621" y="991" type="qcurve" name="dv02"/>
      <point x="487" y="991"/>
      <point x="416" y="884" type="qcurve"/>
      <point x="345" y="777"/>
      <point x="345" y="568" type="qcurve" name="sh02"/>
      <point x="345" y="363"/>
      <point x="417" y="254" type="qcurve"/>
      <point x="489" y="145"/>
    </contour>
  </outline>
</glyph>
<glyph name="j" format="1">
  <advance width="1233"/>
  <unicode hex="006A"/>
  <note>
	j
  </note>
  <outline>
    <contour>
      <point x="796" y="1323" type="line" smooth="yes"/>
      <point x="816" y="1323"/>
      <point x="826" y="1333"/>
      <point x="826" y="1353" type="curve" smooth="yes"/>
      <point x="826" y="1526" type="line" smooth="yes"/>
      <point x="826" y="1546"/>
      <point x="816" y="1556"/>
      <point x="796" y="1556" type="curve" smooth="yes"/>
      <point x="652" y="1556" type="line" smooth="yes"/>
      <point x="632" y="1556"/>
      <point x="622" y="1546"/>
      <point x="622" y="1526" type="curve" smooth="yes"/>
      <point x="622" y="1353" type="line" smooth="yes"/>
      <point x="622" y="1333"/>
      <point x="632" y="1323"/>
      <point x="652" y="1323" type="curve" smooth="yes"/>
    </contour>
    <contour>
      <point x="238" y="-426" type="line"/>
      <point x="492" y="-426" type="line" smooth="yes"/>
      <point x="600" y="-426"/>
      <point x="687" y="-393"/>
      <point x="747" y="-321" type="curve" smooth="yes"/>
      <point x="807" y="-249"/>
      <point x="836" y="-147"/>
      <point x="836" y="-20" type="curve" smooth="yes"/>
      <point x="836" y="1120" type="line"/>
      <point x="335" y="1120" type="line"/>
      <point x="335" y="977" type="line"/>
      <point x="652" y="977" type="line"/>
      <point x="652" y="-20" type="line" smooth="yes"/>
      <point x="652" y="-103"/>
      <point x="637" y="-166"/>
      <point x="607" y="-208" type="curve" smooth="yes"/>
      <point x="577" y="-249"/>
      <point x="532" y="-270"/>
      <point x="472" y="-270" type="curve" smooth="yes"/>
      <point x="238" y="-270" type="line"/>
    </contour>
  </outline>
</glyph>
<glyph name="l" format="1">
  <advance width="1233"/>
  <unicode hex="006C"/>
  <outline>
    <contour>
      <point x="821" y="-8" type="line" name="ab01"/>
      <point x="741" y="-8"/>
      <point x="614" y="42"/>
      <point x="566" y="98" type="qcurve"/>
      <point x="475" y="204"/>
      <point x="475" y="398" type="qcurve" name="sh01"/>
      <point x="475" y="1412" type="line" name="sv01"/>
      <point x="180" y="1412" type="line"/>
      <point x="180" y="1556" type="line" name="dh01"/>
      <point x="659" y="1556" type="line" name="dh02"/>
      <point x="659" y="398" type="line"/>
      <point x="659" y="273"/>
      <point x="705" y="211" type="qcurve" name="hr01"/>
      <point x="729" y="178"/>
      <point x="796" y="148"/>
      <point x="839" y="148" type="qcurve" name="sv02"/>
      <point x="1054" y="148" type="line" name="sv03"/>
      <point x="1054" y="-8" type="line" name="ab02"/>
    </contour>
  </outline>
</glyph>
<glyph name="p" format="1">
  <advance width="1233"/>
  <unicode hex="0070"/>
  <outline>
    <contour>
      <point x="190" y="1120" type="line" name="sh01"/>
      <point x="357" y="1120" type="line"/>
      <point x="375" y="977" type="line" name="sh02"/>
      <point x="422" y="1061"/>
      <point x="498" y="1104" type="qcurve"/>
      <point x="574" y="1147"/>
      <point x="675" y="1147" type="qcurve" name="dv02"/>
      <point x="775" y="1147"/>
      <point x="935" y="1069"/>
      <point x="993" y="990" type="qcurve"/>
      <point x="1051" y="911"/>
      <point x="1108" y="694"/>
      <point x="1108" y="557" type="qcurve" name="sh03"/>
      <point x="1108" y="282"/>
      <point x="992" y="127" type="qcurve"/>
      <point x="876" y="-29"/>
      <point x="674" y="-29" type="qcurve" name="dv03"/>
      <point x="617" y="-29"/>
      <point x="533" y="-6"/>
      <point x="496" y="15" type="qcurve"/>
      <point x="418" y="60"/>
      <point x="375" y="141" type="qcurve" name="sh04"/>
      <point x="375" y="-426" type="line" name="ab01"/>
      <point x="190" y="-426" type="line"/>
    </contour>
    <contour>
      <point x="647" y="127" type="qcurve" name="dv04"/>
      <point x="781" y="127"/>
      <point x="848" y="236" type="qcurve"/>
      <point x="915" y="345"/>
      <point x="915" y="559" type="qcurve" name="ah01"/>
      <point x="915" y="773"/>
      <point x="848" y="882" type="qcurve"/>
      <point x="781" y="991"/>
      <point x="647" y="991" type="qcurve" name="dv01"/>
      <point x="513" y="991"/>
      <point x="444" y="882" type="qcurve"/>
      <point x="375" y="772"/>
      <point x="375" y="559" type="qcurve" name="sh05"/>
      <point x="375" y="346"/>
      <point x="444" y="237" type="qcurve" name="hr01"/>
      <point x="513" y="127"/>
    </contour>
  </outline>
</glyph>
<glyph name="q" format="1">
  <advance width="1233"/>
  <unicode hex="0071"/>
  <outline>
    <contour>
      <point x="870" y="139" type="line" name="hr00"/>
      <point x="848" y="99"/>
      <point x="790" y="35"/>
      <point x="749" y="12" type="qcurve"/>
      <point x="672" y="-33"/>
      <point x="569" y="-33" type="qcurve" name="dv01"/>
      <point x="474" y="-33"/>
      <point x="313" y="43"/>
      <point x="253" y="123" type="qcurve"/>
      <point x="200" y="194"/>
      <point x="137" y="404"/>
      <point x="137" y="551" type="qcurve" name="sh01"/>
      <point x="137" y="685"/>
      <point x="194" y="907"/>
      <point x="253" y="987" type="qcurve"/>
      <point x="311" y="1065"/>
      <point x="471" y="1143"/>
      <point x="570" y="1143" type="qcurve" name="at01"/>
      <point x="672" y="1143"/>
      <point x="748" y="1100" type="qcurve"/>
      <point x="786" y="1078"/>
      <point x="847" y="1015"/>
      <point x="870" y="973" type="qcurve" name="sh02"/>
      <point x="888" y="1116" type="line"/>
      <point x="1055" y="1116" type="line"/>
      <point x="1055" y="-430" type="line" name="sh03"/>
      <point x="870" y="-430" type="line" name="ah01"/>
    </contour>
    <contour>
      <point x="599" y="123" type="qcurve" name="dv02"/>
      <point x="665" y="123"/>
      <point x="767" y="177"/>
      <point x="802" y="233" type="qcurve"/>
      <point x="870" y="343"/>
      <point x="870" y="555" type="qcurve" name="sh04"/>
      <point x="870" y="768"/>
      <point x="802" y="878" type="qcurve"/>
      <point x="767" y="934"/>
      <point x="666" y="987"/>
      <point x="600" y="987" type="qcurve" name="sv01"/>
      <point x="467" y="987"/>
      <point x="400" y="878" type="qcurve"/>
      <point x="332" y="768"/>
      <point x="332" y="555" type="qcurve" name="sh05"/>
      <point x="332" y="342"/>
      <point x="400" y="232" type="qcurve"/>
      <point x="467" y="123"/>
    </contour>
  </outline>
</glyph>
<glyph name="r" format="1">
  <advance width="1233"/>
  <unicode hex="0072"/>
  <note>
	r
  </note>
  <outline>
    <contour>
      <point x="302" y="0" type="line"/>
      <point x="487" y="0" type="line"/>
      <point x="487" y="557" type="line" smooth="yes"/>
      <point x="487" y="694"/>
      <point x="517" y="798"/>
      <point x="578" y="869" type="curve" smooth="yes"/>
      <point x="639" y="941"/>
      <point x="726" y="977"/>
      <point x="840" y="977" type="curve" smooth="yes"/>
      <point x="889" y="977"/>
      <point x="934" y="970"/>
      <point x="975" y="956" type="curve" smooth="yes"/>
      <point x="1017" y="942"/>
      <point x="1057" y="920"/>
      <point x="1095" y="889" type="curve"/>
      <point x="1095" y="1077" type="line"/>
      <point x="1060" y="1101"/>
      <point x="1021" y="1119"/>
      <point x="982" y="1130" type="curve" smooth="yes"/>
      <point x="942" y="1141"/>
      <point x="899" y="1147"/>
      <point x="854" y="1147" type="curve" smooth="yes"/>
      <point x="767" y="1147"/>
      <point x="692" y="1126"/>
      <point x="629" y="1084" type="curve" smooth="yes"/>
      <point x="566" y="1041"/>
      <point x="518" y="980"/>
      <point x="487" y="901" type="curve"/>
      <point x="469" y="1120" type="line"/>
      <point x="302" y="1120" type="line"/>
    </contour>
  </outline>
</glyph>
<glyph name="t" format="1">
  <advance width="1233"/>
  <unicode hex="0074"/>
  <outline>
    <contour>
      <point x="807" y="-4" type="line" name="hr00"/>
      <point x="601" y="-4"/>
      <point x="515" y="79" type="qcurve"/>
      <point x="430" y="161"/>
      <point x="430" y="365" type="qcurve" name="dh01"/>
      <point x="430" y="977" type="line" name="sv01"/>
      <point x="131" y="977" type="line" name="sv02"/>
      <point x="131" y="1120" type="line" name="at01"/>
      <point x="430" y="1120" type="line" name="sh01"/>
      <point x="430" y="1413" type="line"/>
      <point x="614" y="1493" type="line" name="sh02"/>
      <point x="614" y="1120" type="line" name="at02"/>
      <point x="1032" y="1120" type="line"/>
      <point x="1032" y="977" type="line" name="sv03"/>
      <point x="614" y="977" type="line" name="sv04"/>
      <point x="614" y="365" type="line" name="dh02"/>
      <point x="614" y="242"/>
      <point x="661" y="192" type="qcurve"/>
      <point x="707" y="143"/>
      <point x="825" y="143" type="qcurve" name="sv05"/>
      <point x="1032" y="143" type="line" name="sv06"/>
      <point x="1032" y="-4" type="line" name="ab01"/>
    </contour>
  </outline>
</glyph>
<glyph name="u" format="1">
  <advance width="1233"/>
  <unicode hex="0075"/>
  <outline>
    <contour>
      <point x="534" y="-29" type="qcurve" name="dv01"/>
      <point x="363" y="-29"/>
      <point x="279" y="84" type="qcurve" name="hr01"/>
      <point x="195" y="196"/>
      <point x="195" y="424" type="qcurve" name="sh01"/>
      <point x="195" y="1118" type="line" name="at01"/>
      <point x="379" y="1118" type="line"/>
      <point x="379" y="424" type="line" name="sh02"/>
      <point x="379" y="272"/>
      <point x="433" y="202" type="qcurve"/>
      <point x="459" y="168"/>
      <point x="538" y="131"/>
      <point x="598" y="131" type="qcurve" name="dv02"/>
      <point x="728" y="131"/>
      <point x="797" y="223" type="qcurve"/>
      <point x="866" y="314"/>
      <point x="866" y="485" type="qcurve" name="hr02"/>
      <point x="866" y="1118" type="line" name="at02"/>
      <point x="1051" y="1118" type="line"/>
      <point x="1051" y="0" type="line" name="sh03"/>
      <point x="884" y="0" type="line"/>
      <point x="866" y="168" type="line" name="ah01"/>
      <point x="816" y="70"/>
      <point x="733" y="21" type="qcurve"/>
      <point x="648" y="-29"/>
    </contour>
  </outline>
</glyph>
<glyph name="x" format="1">
  <advance width="1233"/>
  <unicode hex="0078"/>
  <outline>
    <contour>
      <point x="516" y="584" type="line" name="hr00"/>
      <point x="115" y="1120" type="line" name="at01"/>
      <point x="319" y="1120" type="line"/>
      <point x="616" y="715" type="line" name="iv01"/>
      <point x="911" y="1120" type="line" name="at02"/>
      <point x="1118" y="1120" type="line"/>
      <point x="717" y="584" type="line"/>
      <point x="1157" y="0" type="line" name="ab01"/>
      <point x="944" y="0" type="line"/>
      <point x="616" y="449" type="line" name="iv02"/>
      <point x="289" y="0" type="line" name="ab02"/>
      <point x="76" y="0" type="line"/>
    </contour>
  </outline>
</glyph>
<glyph name="y" format="1">
  <advance width="1233"/>
  <unicode hex="0079"/>
  <outline>
    <contour>
      <point x="184" y="-272" type="line" name="hr00"/>
      <point x="293" y="-272" type="line"/>
      <point x="338" y="-272"/>
      <point x="400" y="-245"/>
      <point x="420" y="-225" type="qcurve"/>
      <point x="442" y="-202"/>
      <point x="498" y="-90"/>
      <point x="537" y="18" type="qcurve"/>
      <point x="104" y="1120" type="line" name="at01"/>
      <point x="299" y="1120" type="line"/>
      <point x="631" y="244" type="line" name="iv01"/>
      <point x="958" y="1120" type="line" name="at02"/>
      <point x="1153" y="1120" type="line"/>
      <point x="858" y="360" type="line"/>
      <point x="834" y="298"/>
      <point x="807" y="230"/>
      <point x="792" y="191"/>
      <point x="784" y="170"/>
      <point x="774" y="142"/>
      <point x="757" y="96"/>
      <point x="741" y="52" type="qcurve"/>
      <point x="711" y="-29"/>
      <point x="668" y="-139"/>
      <point x="636" y="-212"/>
      <point x="615" y="-255"/>
      <point x="608" y="-268" type="qcurve"/>
      <point x="586" y="-306"/>
      <point x="532" y="-365"/>
      <point x="493" y="-387" type="qcurve"/>
      <point x="424" y="-426"/>
      <point x="332" y="-426" type="qcurve" name="ab01"/>
      <point x="184" y="-426" type="line"/>
    </contour>
  </outline>
</glyph>
<glyph name="z" format="1">
  <advance width="1233"/>
  <unicode hex="007A"/>
  <outline>
    <contour>
      <point x="203" y="170" type="line" name="hr00"/>
      <point x="846" y="975" type="line" name="sv01"/>
      <point x="227" y="975" type="line"/>
      <point x="227" y="1122" type="line" name="at01"/>
      <point x="1040" y="1122" type="line"/>
      <point x="1040" y="954" type="line"/>
      <point x="397" y="150" type="line" name="sv02"/>
      <point x="1040" y="150" type="line"/>
      <point x="1040" y="0" type="line" name="ab01"/>
      <point x="203" y="0" type="line"/>
    </contour>
  </outline>
</glyph>
<glyph name="braceright" format="1">
  <advance width="1233"/>
  <unicode hex="007D"/>
  <outline>
    <contour>
      <point x="261" y="-118" type="line" name="hr00"/>
      <point x="329" y="-118" type="line" name="dv02"/>
      <point x="469" y="-118"/>
      <point x="513" y="-74" type="qcurve"/>
      <point x="556" y="-31"/>
      <point x="556" y="111" type="qcurve"/>
      <point x="556" y="359" type="line"/>
      <point x="556" y="515"/>
      <point x="601" y="586" type="qcurve"/>
      <point x="646" y="657"/>
      <point x="757" y="684" type="qcurve" name="iv01"/>
      <point x="647" y="710"/>
      <point x="602" y="780" type="qcurve"/>
      <point x="580" y="814"/>
      <point x="556" y="923"/>
      <point x="556" y="1008" type="qcurve"/>
      <point x="556" y="1256" type="line"/>
      <point x="556" y="1398"/>
      <point x="513" y="1441" type="qcurve"/>
      <point x="469" y="1485"/>
      <point x="329" y="1485" type="qcurve" name="dv03"/>
      <point x="261" y="1485" type="line"/>
      <point x="261" y="1628" type="line"/>
      <point x="323" y="1628" type="line" name="dv04"/>
      <point x="573" y="1628"/>
      <point x="656" y="1555" type="qcurve"/>
      <point x="740" y="1481"/>
      <point x="740" y="1260" type="qcurve"/>
      <point x="740" y="1020" type="line"/>
      <point x="740" y="942"/>
      <point x="782" y="843"/>
      <point x="824" y="813" type="qcurve"/>
      <point x="864" y="784"/>
      <point x="979" y="756"/>
      <point x="1048" y="756" type="qcurve"/>
      <point x="1112" y="756" type="line" name="dv06"/>
      <point x="1112" y="613" type="line" name="dv05"/>
      <point x="1048" y="613" type="line"/>
      <point x="977" y="613"/>
      <point x="863" y="584"/>
      <point x="824" y="555" type="qcurve"/>
      <point x="782" y="524"/>
      <point x="740" y="424"/>
      <point x="740" y="346" type="qcurve"/>
      <point x="740" y="107" type="line"/>
      <point x="740" y="-115"/>
      <point x="656" y="-188" type="qcurve"/>
      <point x="571" y="-262"/>
      <point x="323" y="-262" type="qcurve" name="dv01"/>
      <point x="261" y="-262" type="line"/>
    </contour>
  </outline>
</glyph>
<glyph name="cent" format="1">
  <advance width="1233"/>
  <unicode hex="00A2"/>
  <outline>
    <contour>
      <point x="698" y="-27" type="line" name="dh03"/>
      <point x="586" y="-16"/>
      <point x="410" y="71"/>
      <point x="344" y="152" type="qcurve"/>
      <point x="281" y="229"/>
      <point x="210" y="438"/>
      <point x="210" y="558" type="qcurve" name="dh01"/>
      <point x="210" y="680"/>
      <point x="283" y="891"/>
      <point x="345" y="967" type="qcurve"/>
      <point x="406" y="1042"/>
      <point x="580" y="1134"/>
      <point x="698" y="1145" type="qcurve" name="sh01"/>
      <point x="698" y="1432" type="line" name="av01"/>
      <point x="801" y="1432" type="line" name="sh02"/>
      <point x="801" y="1145" type="line"/>
      <point x="830" y="1143"/>
      <point x="894" y="1133"/>
      <point x="923" y="1125" type="qcurve"/>
      <point x="952" y="1117"/>
      <point x="1025" y="1093"/>
      <point x="1061" y="1077" type="qcurve" name="hr01"/>
      <point x="1061" y="905" type="line" name="iv01"/>
      <point x="1031" y="923"/>
      <point x="961" y="956"/>
      <point x="929" y="967" type="qcurve"/>
      <point x="894" y="979"/>
      <point x="832" y="991"/>
      <point x="801" y="993" type="qcurve" name="hr02"/>
      <point x="801" y="123" type="line"/>
      <point x="833" y="125"/>
      <point x="897" y="140"/>
      <point x="930" y="151" type="qcurve"/>
      <point x="961" y="162"/>
      <point x="1029" y="193"/>
      <point x="1061" y="213" type="qcurve" name="hr03"/>
      <point x="1061" y="41" type="line" name="sh03"/>
      <point x="1015" y="21"/>
      <point x="954" y="1"/>
      <point x="923" y="-7" type="qcurve"/>
      <point x="858" y="-24"/>
      <point x="801" y="-27" type="qcurve" name="hr04"/>
      <point x="801" y="-313" type="line" name="av02"/>
      <point x="698" y="-313" type="line"/>
    </contour>
    <contour>
      <point x="698" y="991" type="line" name="sh04"/>
      <point x="565" y="979"/>
      <point x="486" y="861" type="qcurve"/>
      <point x="406" y="742"/>
      <point x="406" y="559" type="qcurve" name="dh02"/>
      <point x="406" y="376"/>
      <point x="486" y="258" type="qcurve"/>
      <point x="527" y="198"/>
      <point x="632" y="134"/>
      <point x="698" y="127" type="qcurve"/>
    </contour>
  </outline>
</glyph>
<glyph name="yen" format="1">
  <advance width="1233"/>
  <unicode hex="00A5"/>
  <outline>
    <contour>
      <point x="514" y="524" type="line" name="hr00"/>
      <point x="115" y="524" type="line"/>
      <point x="115" y="635" type="line"/>
      <point x="514" y="635" type="line" name="sh01"/>
      <point x="514" y="670" type="line"/>
      <point x="424" y="821" type="line" name="dv01"/>
      <point x="115" y="821" type="line"/>
      <point x="115" y="932" type="line"/>
      <point x="358" y="932" type="line" name="dv02"/>
      <point x="37" y="1493" type="line" name="at01"/>
      <point x="252" y="1493" type="line"/>
      <point x="616" y="834" type="line" name="ih01"/>
      <point x="979" y="1493" type="line" name="at02"/>
      <point x="1196" y="1493" type="line"/>
      <point x="866" y="932" type="line" name="sv01"/>
      <point x="1118" y="932" type="line"/>
      <point x="1118" y="821" type="line" name="sv02"/>
      <point x="803" y="821" type="line"/>
      <point x="717" y="670" type="line" name="sh02"/>
      <point x="717" y="635" type="line" name="sv03"/>
      <point x="1118" y="635" type="line"/>
      <point x="1118" y="524" type="line" name="sv04"/>
      <point x="717" y="524" type="line" name="dh01"/>
      <point x="717" y="0" type="line" name="ab01"/>
      <point x="514" y="0" type="line"/>
    </contour>
  </outline>
</glyph>
<glyph name="section" format="1">
  <advance width="1233"/>
  <unicode hex="00A7"/>
  <outline>
    <contour>
      <point x="595" y="-195" type="qcurve" name="dv01"/>
      <point x="556" y="-195"/>
      <point x="476" y="-187"/>
      <point x="444" y="-181" type="qcurve"/>
      <point x="408" y="-174"/>
      <point x="323" y="-151"/>
      <point x="279" y="-137" type="qcurve"/>
      <point x="279" y="27" type="line" name="ih01"/>
      <point x="368" y="-13"/>
      <point x="440" y="-32" type="qcurve"/>
      <point x="512" y="-51"/>
      <point x="573" y="-51" type="qcurve" name="dv02"/>
      <point x="674" y="-51"/>
      <point x="730" y="-9" type="qcurve"/>
      <point x="758" y="12"/>
      <point x="786" y="71"/>
      <point x="786" y="103" type="qcurve" name="dh02"/>
      <point x="786" y="133"/>
      <point x="760" y="188"/>
      <point x="706" y="243"/>
      <point x="622" y="301"/>
      <point x="565" y="334" type="qcurve"/>
      <point x="541" y="348" type="line"/>
      <point x="441" y="406"/>
      <point x="305" y="496"/>
      <point x="263" y="545" type="qcurve"/>
      <point x="199" y="621"/>
      <point x="199" y="724" type="qcurve" name="hr01"/>
      <point x="199" y="813"/>
      <point x="246" y="886" type="qcurve"/>
      <point x="292" y="957"/>
      <point x="383" y="1006" type="qcurve" name="ih02"/>
      <point x="323" y="1049"/>
      <point x="294" y="1106" type="qcurve"/>
      <point x="264" y="1163"/>
      <point x="264" y="1230" type="qcurve" name="hr02"/>
      <point x="264" y="1296"/>
      <point x="315" y="1404"/>
      <point x="364" y="1442" type="qcurve"/>
      <point x="416" y="1483"/>
      <point x="554" y="1520"/>
      <point x="629" y="1520" type="qcurve" name="at01"/>
      <point x="667" y="1520"/>
      <point x="748" y="1512"/>
      <point x="780" y="1506" type="qcurve" name="at02"/>
      <point x="815" y="1499"/>
      <point x="896" y="1476"/>
      <point x="936" y="1462" type="qcurve"/>
      <point x="936" y="1298" type="line" name="ih03"/>
      <point x="852" y="1338"/>
      <point x="782" y="1357" type="qcurve"/>
      <point x="712" y="1376"/>
      <point x="651" y="1376" type="qcurve" name="sv01"/>
      <point x="600" y="1376"/>
      <point x="528" y="1355"/>
      <point x="503" y="1336" type="qcurve"/>
      <point x="476" y="1316"/>
      <point x="449" y="1259"/>
      <point x="449" y="1232" type="qcurve" name="sh01"/>
      <point x="449" y="1183"/>
      <point x="544" y="1082"/>
      <point x="653" y="1020" type="qcurve"/>
      <point x="694" y="997" type="line"/>
      <point x="754" y="964"/>
      <point x="843" y="908"/>
      <point x="908" y="861"/>
      <point x="954" y="820"/>
      <point x="970" y="801" type="qcurve"/>
      <point x="1003" y="763"/>
      <point x="1036" y="676"/>
      <point x="1036" y="622" type="qcurve" name="sh02"/>
      <point x="1036" y="533"/>
      <point x="991" y="463" type="qcurve"/>
      <point x="945" y="393"/>
      <point x="852" y="340" type="qcurve" name="ih05"/>
      <point x="914" y="287"/>
      <point x="942" y="234" type="qcurve"/>
      <point x="956" y="208"/>
      <point x="971" y="149"/>
      <point x="971" y="111" type="qcurve" name="hr03"/>
      <point x="971" y="44"/>
      <point x="920" y="-69"/>
      <point x="869" y="-111" type="qcurve"/>
      <point x="767" y="-195"/>
    </contour>
    <contour>
      <point x="750" y="410" type="qcurve"/>
      <point x="812" y="456"/>
      <point x="842" y="500" type="qcurve"/>
      <point x="872" y="545"/>
      <point x="872" y="592" type="qcurve" name="ih04"/>
      <point x="872" y="633"/>
      <point x="833" y="707"/>
      <point x="801" y="736" type="qcurve"/>
      <point x="727" y="805"/>
      <point x="485" y="936" type="qcurve"/>
      <point x="453" y="912"/>
      <point x="409" y="869"/>
      <point x="393" y="846" type="qcurve"/>
      <point x="379" y="825"/>
      <point x="362" y="781"/>
      <point x="362" y="753" type="qcurve" name="dh01"/>
      <point x="362" y="714"/>
      <point x="398" y="645"/>
      <point x="434" y="611" type="qcurve"/>
      <point x="453" y="593"/>
      <point x="507" y="552"/>
      <point x="582" y="504"/>
      <point x="683" y="446"/>
    </contour>
  </outline>
</glyph>
<glyph name="dieresis" format="1">
  <advance width="1233"/>
  <unicode hex="00A8"/>
  <outline>
    <contour>
      <point x="492" y="1552" type="line" name="hr00"/>
      <point x="522" y="1552"/>
      <point x="522" y="1522" type="qcurve"/>
      <point x="522" y="1380" type="line" name="sh02"/>
      <point x="522" y="1350"/>
      <point x="492" y="1350" type="qcurve" name="dv01"/>
      <point x="349" y="1350" type="line"/>
      <point x="319" y="1350"/>
      <point x="319" y="1380" type="qcurve" name="sh01"/>
      <point x="319" y="1522" type="line"/>
      <point x="319" y="1552"/>
      <point x="349" y="1552" type="qcurve"/>
    </contour>
    <contour>
      <point x="883" y="1552" type="line" name="sv01"/>
      <point x="913" y="1552"/>
      <point x="913" y="1522" type="qcurve"/>
      <point x="913" y="1380" type="line" name="sh03"/>
      <point x="913" y="1350"/>
      <point x="883" y="1350" type="qcurve" name="sv02"/>
      <point x="741" y="1350" type="line"/>
      <point x="711" y="1350"/>
      <point x="711" y="1380" type="qcurve" name="ah01"/>
      <point x="711" y="1522" type="line"/>
      <point x="711" y="1552"/>
      <point x="741" y="1552" type="qcurve"/>
    </contour>
  </outline>
</glyph>
<glyph name="ordfeminine" format="1">
  <advance width="1233"/>
  <unicode hex="00AA"/>
  <outline>
    <contour>
      <point x="547" y="698" type="qcurve" name="hr00"/>
      <point x="421" y="698"/>
      <point x="345" y="766" type="qcurve"/>
      <point x="270" y="833"/>
      <point x="270" y="949" type="qcurve" name="sh01"/>
      <point x="270" y="1078"/>
      <point x="363" y="1149" type="qcurve"/>
      <point x="457" y="1219"/>
      <point x="629" y="1219" type="qcurve"/>
      <point x="811" y="1219" type="line" name="ah01"/>
      <point x="811" y="1223" type="line"/>
      <point x="811" y="1267"/>
      <point x="783" y="1335"/>
      <point x="751" y="1359" type="qcurve"/>
      <point x="716" y="1385"/>
      <point x="628" y="1405"/>
      <point x="583" y="1405" type="qcurve" name="sv01"/>
      <point x="550" y="1405"/>
      <point x="491" y="1396"/>
      <point x="462" y="1388" type="qcurve"/>
      <point x="400" y="1370"/>
      <point x="332" y="1337" type="qcurve" name="ih01"/>
      <point x="332" y="1464" type="line"/>
      <point x="366" y="1478"/>
      <point x="437" y="1500"/>
      <point x="468" y="1506" type="qcurve" name="at01"/>
      <point x="502" y="1513"/>
      <point x="565" y="1520"/>
      <point x="603" y="1520" type="qcurve" name="at02"/>
      <point x="780" y="1520"/>
      <point x="867" y="1434" type="qcurve"/>
      <point x="911" y="1391"/>
      <point x="954" y="1259"/>
      <point x="954" y="1165" type="qcurve" name="sh03"/>
      <point x="954" y="717" type="line"/>
      <point x="825" y="717" type="line" name="sh04"/>
      <point x="811" y="829" type="line"/>
      <point x="761" y="764"/>
      <point x="697" y="731" type="qcurve"/>
      <point x="664" y="714"/>
      <point x="591" y="698"/>
    </contour>
    <contour>
      <point x="576" y="817" type="qcurve" name="dv02"/>
      <point x="630" y="817"/>
      <point x="714" y="854"/>
      <point x="746" y="889" type="qcurve"/>
      <point x="811" y="960"/>
      <point x="811" y="1075" type="qcurve" name="sh05"/>
      <point x="811" y="1104" type="line" name="dv03"/>
      <point x="684" y="1104" type="line"/>
      <point x="539" y="1104"/>
      <point x="478" y="1070" type="qcurve"/>
      <point x="416" y="1035"/>
      <point x="416" y="958" type="qcurve" name="sh02"/>
      <point x="416" y="922"/>
      <point x="440" y="873"/>
      <point x="460" y="856" type="qcurve"/>
      <point x="503" y="817"/>
    </contour>
    <contour>
      <point x="293" y="592" type="line"/>
      <point x="961" y="592" type="line" name="sh06"/>
      <point x="961" y="469" type="line" name="dv01"/>
      <point x="293" y="469" type="line"/>
    </contour>
  </outline>
</glyph>
<glyph name="guillemotleft" format="1">
  <advance width="1233"/>
  <unicode hex="00AB"/>
  <outline>
    <contour>
      <point x="79" y="559" type="line" name="hr00"/>
      <point x="79" y="641" type="line"/>
      <point x="548" y="1059" type="line" name="av03"/>
      <point x="548" y="868" type="line"/>
      <point x="247" y="600" type="line"/>
      <point x="548" y="332" type="line"/>
      <point x="548" y="141" type="line" name="av01"/>
    </contour>
    <contour>
      <point x="533" y="559" type="line"/>
      <point x="533" y="641" type="line"/>
      <point x="1002" y="1059" type="line" name="av04"/>
      <point x="1002" y="868" type="line"/>
      <point x="701" y="600" type="line"/>
      <point x="1002" y="332" type="line"/>
      <point x="1002" y="141" type="line" name="av02"/>
    </contour>
  </outline>
</glyph>
<glyph name="macron" format="1">
  <advance width="1233"/>
  <unicode hex="00AF"/>
  <outline>
    <contour>
      <point x="915" y="1378" type="line" name="hr00"/>
      <point x="317" y="1378" type="line"/>
      <point x="317" y="1526" type="line"/>
      <point x="915" y="1526" type="line" name="dv01"/>
    </contour>
  </outline>
</glyph>
<glyph name="threesuperior" format="1">
  <advance width="1233"/>
  <unicode hex="00B3"/>
  <outline>
    <contour>
      <point x="562" y="1109" type="qcurve" name="hr00"/>
      <point x="527" y="1109"/>
      <point x="471" y="1115"/>
      <point x="442" y="1120" type="qcurve"/>
      <point x="410" y="1126"/>
      <point x="356" y="1140"/>
      <point x="326" y="1150" type="qcurve"/>
      <point x="326" y="1271" type="line"/>
      <point x="361" y="1257"/>
      <point x="423" y="1238"/>
      <point x="452" y="1231" type="qcurve"/>
      <point x="505" y="1218"/>
      <point x="556" y="1218" type="qcurve" name="dv01"/>
      <point x="603" y="1218"/>
      <point x="684" y="1239"/>
      <point x="714" y="1259" type="qcurve"/>
      <point x="740" y="1277"/>
      <point x="772" y="1333"/>
      <point x="772" y="1371" type="qcurve"/>
      <point x="772" y="1406"/>
      <point x="743" y="1461"/>
      <point x="717" y="1479" type="qcurve"/>
      <point x="661" y="1517"/>
      <point x="553" y="1517" type="qcurve" name="dv04"/>
      <point x="487" y="1517" type="line"/>
      <point x="487" y="1625" type="line"/>
      <point x="561" y="1625" type="line" name="dv05"/>
      <point x="653" y="1625"/>
      <point x="703" y="1657" type="qcurve"/>
      <point x="752" y="1688"/>
      <point x="752" y="1747" type="qcurve" name="dh01"/>
      <point x="752" y="1805"/>
      <point x="704" y="1836" type="qcurve"/>
      <point x="680" y="1852"/>
      <point x="612" y="1867"/>
      <point x="572" y="1867" type="qcurve" name="dv02"/>
      <point x="546" y="1867"/>
      <point x="497" y="1861"/>
      <point x="469" y="1855" type="qcurve"/>
      <point x="414" y="1843"/>
      <point x="354" y="1820" type="qcurve"/>
      <point x="354" y="1941" type="line"/>
      <point x="389" y="1949"/>
      <point x="453" y="1962"/>
      <point x="482" y="1967" type="qcurve"/>
      <point x="540" y="1976"/>
      <point x="592" y="1976" type="qcurve" name="dv03"/>
      <point x="734" y="1976"/>
      <point x="819" y="1917" type="qcurve"/>
      <point x="903" y="1858"/>
      <point x="903" y="1760" type="qcurve"/>
      <point x="903" y="1689"/>
      <point x="859" y="1642" type="qcurve"/>
      <point x="816" y="1596"/>
      <point x="731" y="1576" type="qcurve" name="iv01"/>
      <point x="825" y="1555"/>
      <point x="875" y="1501" type="qcurve"/>
      <point x="924" y="1448"/>
      <point x="924" y="1365" type="qcurve" name="dh02"/>
      <point x="924" y="1244"/>
      <point x="829" y="1176" type="qcurve"/>
      <point x="781" y="1142"/>
      <point x="645" y="1109"/>
    </contour>
  </outline>
</glyph>
<glyph name="mu" format="1">
  <advance width="1233"/>
  <unicode hex="00B5"/>
  <outline>
    <contour>
      <point x="165" y="1120" type="line" name="hr00"/>
      <point x="349" y="1120" type="line" name="sh01"/>
      <point x="349" y="424" type="line"/>
      <point x="349" y="346"/>
      <point x="381" y="242"/>
      <point x="409" y="207" type="qcurve"/>
      <point x="469" y="131"/>
      <point x="582" y="131" type="qcurve" name="dv02"/>
      <point x="644" y="131"/>
      <point x="740" y="173"/>
      <point x="772" y="216" type="qcurve"/>
      <point x="836" y="301"/>
      <point x="836" y="467" type="qcurve" name="ah01"/>
      <point x="836" y="1120" type="line" name="at01"/>
      <point x="1021" y="1120" type="line"/>
      <point x="1021" y="256" type="line" name="sh02"/>
      <point x="1021" y="197"/>
      <point x="1037" y="169" type="qcurve"/>
      <point x="1045" y="155"/>
      <point x="1069" y="141"/>
      <point x="1083" y="141" type="qcurve" name="sv01"/>
      <point x="1095" y="141"/>
      <point x="1110" y="146" type="qcurve"/>
      <point x="1123" y="150"/>
      <point x="1152" y="164" type="qcurve" name="iv01"/>
      <point x="1152" y="16" type="line"/>
      <point x="1133" y="5"/>
      <point x="1096" y="-13"/>
      <point x="1080" y="-18" type="qcurve"/>
      <point x="1044" y="-29"/>
      <point x="1012" y="-29" type="qcurve" name="sh03"/>
      <point x="950" y="-29"/>
      <point x="913" y="11" type="qcurve"/>
      <point x="875" y="51"/>
      <point x="863" y="129" type="qcurve" name="ih01"/>
      <point x="816" y="48"/>
      <point x="751" y="10" type="qcurve"/>
      <point x="685" y="-29"/>
      <point x="594" y="-29" type="qcurve" name="dv01"/>
      <point x="504" y="-29"/>
      <point x="440" y="9" type="qcurve"/>
      <point x="376" y="47"/>
      <point x="332" y="127" type="qcurve" name="ih02"/>
      <point x="332" y="-428" type="line" name="ab01"/>
      <point x="165" y="-428" type="line"/>
    </contour>
  </outline>
</glyph>
<glyph name="paragraph" format="1">
  <advance width="1233"/>
  <unicode hex="00B6"/>
  <outline>
    <contour>
      <point x="557" y="649" type="line" name="hr00"/>
      <point x="343" y="665"/>
      <point x="224" y="777" type="qcurve"/>
      <point x="167" y="831"/>
      <point x="106" y="974"/>
      <point x="106" y="1070" type="qcurve"/>
      <point x="106" y="1261"/>
      <point x="237" y="1377" type="qcurve"/>
      <point x="368" y="1493"/>
      <point x="582" y="1493" type="qcurve" name="at01"/>
      <point x="1030" y="1493" type="line"/>
      <point x="1030" y="-197" type="line" name="sh01"/>
      <point x="889" y="-197" type="line" name="ah01"/>
      <point x="889" y="1370" type="line" name="sv01"/>
      <point x="698" y="1370" type="line" name="sh02"/>
      <point x="698" y="-197" type="line" name="av01"/>
      <point x="557" y="-197" type="line"/>
    </contour>
  </outline>
</glyph>
<glyph name="onesuperior" format="1">
  <advance width="1233"/>
  <unicode hex="00B9"/>
  <outline>
    <contour>
      <point x="362" y="1230" type="line" name="sv01"/>
      <point x="567" y="1230" type="line" name="sh01"/>
      <point x="567" y="1841" type="line"/>
      <point x="344" y="1800" type="line"/>
      <point x="344" y="1916" type="line" name="dh01"/>
      <point x="573" y="1955" type="line" name="av01"/>
      <point x="711" y="1955" type="line" name="dh02"/>
      <point x="711" y="1230" type="line"/>
      <point x="915" y="1230" type="line" name="hr01"/>
      <point x="915" y="1120" type="line" name="dv01"/>
      <point x="362" y="1120" type="line"/>
    </contour>
  </outline>
</glyph>
<glyph name="ordmasculine" format="1">
  <advance width="1233"/>
  <unicode hex="00BA"/>
  <outline>
    <contour>
      <point x="616" y="698" type="qcurve" name="hr00"/>
      <point x="522" y="698"/>
      <point x="390" y="760"/>
      <point x="345" y="809" type="qcurve"/>
      <point x="298" y="860"/>
      <point x="244" y="1010"/>
      <point x="244" y="1108" type="qcurve" name="sh01"/>
      <point x="244" y="1200"/>
      <point x="294" y="1351"/>
      <point x="345" y="1408" type="qcurve"/>
      <point x="392" y="1460"/>
      <point x="526" y="1520"/>
      <point x="617" y="1520" type="qcurve" name="at01"/>
      <point x="707" y="1520"/>
      <point x="842" y="1460"/>
      <point x="889" y="1407" type="qcurve"/>
      <point x="989" y="1295"/>
      <point x="989" y="1108" type="qcurve" name="sh02"/>
      <point x="989" y="922"/>
      <point x="889" y="810" type="qcurve"/>
      <point x="842" y="758"/>
      <point x="707" y="698"/>
    </contour>
    <contour>
      <point x="616" y="815" type="qcurve" name="dv03"/>
      <point x="665" y="815"/>
      <point x="747" y="854"/>
      <point x="776" y="893" type="qcurve"/>
      <point x="803" y="929"/>
      <point x="834" y="1037"/>
      <point x="834" y="1110" type="qcurve" name="ah01"/>
      <point x="834" y="1247"/>
      <point x="777" y="1325" type="qcurve"/>
      <point x="750" y="1362"/>
      <point x="671" y="1403"/>
      <point x="617" y="1403" type="qcurve" name="sv01"/>
      <point x="514" y="1403"/>
      <point x="457" y="1326" type="qcurve"/>
      <point x="399" y="1247"/>
      <point x="399" y="1108" type="qcurve" name="sh03"/>
      <point x="399" y="1039"/>
      <point x="428" y="930"/>
      <point x="457" y="891" type="qcurve"/>
      <point x="515" y="815"/>
    </contour>
    <contour>
      <point x="276" y="592" type="line"/>
      <point x="952" y="592" type="line" name="dv02"/>
      <point x="952" y="469" type="line" name="dv01"/>
      <point x="276" y="469" type="line"/>
    </contour>
  </outline>
</glyph>
<glyph name="onequarter" format="1">
  <advance width="1233"/>
  <unicode hex="00BC"/>
  <outline>
    <contour>
      <point x="104" y="934" type="line" name="sv01"/>
      <point x="309" y="934" type="line" name="sh01"/>
      <point x="309" y="1545" type="line"/>
      <point x="86" y="1504" type="line"/>
      <point x="86" y="1620" type="line" name="dh01"/>
      <point x="315" y="1659" type="line" name="av01"/>
      <point x="453" y="1659" type="line" name="dh02"/>
      <point x="453" y="934" type="line" name="sh03"/>
      <point x="657" y="934" type="line" name="dv02"/>
      <point x="657" y="824" type="line" name="dv01"/>
      <point x="104" y="824" type="line"/>
    </contour>
    <contour>
      <point x="27" y="612" type="line"/>
      <point x="1087" y="874" type="line"/>
      <point x="1114" y="766" type="line"/>
      <point x="51" y="504" type="line"/>
    </contour>
    <contour>
      <point x="839" y="-84" type="line" name="dh03"/>
      <point x="452" y="-84" type="line" name="sh02"/>
      <point x="452" y="37" type="line" name="sh04"/>
      <point x="815" y="565" type="line"/>
      <point x="977" y="565" type="line" name="sh05"/>
      <point x="977" y="27" type="line" name="sv02"/>
      <point x="1093" y="27" type="line"/>
      <point x="1093" y="-84" type="line" name="sv03"/>
      <point x="977" y="-84" type="line" name="dh04"/>
      <point x="977" y="-270" type="line" name="av02"/>
      <point x="839" y="-270" type="line"/>
    </contour>
    <contour>
      <point x="839" y="27" type="line" name="hr01"/>
      <point x="839" y="440" type="line" name="ih01"/>
      <point x="565" y="27" type="line" name="ih02"/>
    </contour>
  </outline>
</glyph>
<glyph name="threequarters" format="1">
  <advance width="1233"/>
  <unicode hex="00BE"/>
  <outline>
    <contour>
      <point x="335" y="809" type="qcurve" name="hr00"/>
      <point x="300" y="809"/>
      <point x="244" y="815"/>
      <point x="215" y="820" type="qcurve"/>
      <point x="183" y="826"/>
      <point x="129" y="840"/>
      <point x="99" y="850" type="qcurve"/>
      <point x="99" y="971" type="line"/>
      <point x="134" y="957"/>
      <point x="196" y="938"/>
      <point x="225" y="931" type="qcurve"/>
      <point x="278" y="918"/>
      <point x="329" y="918" type="qcurve" name="dv05"/>
      <point x="376" y="918"/>
      <point x="457" y="939"/>
      <point x="487" y="959" type="qcurve"/>
      <point x="513" y="977"/>
      <point x="545" y="1033"/>
      <point x="545" y="1071" type="qcurve"/>
      <point x="545" y="1106"/>
      <point x="516" y="1161"/>
      <point x="490" y="1179" type="qcurve"/>
      <point x="434" y="1217"/>
      <point x="326" y="1217" type="qcurve" name="dv03"/>
      <point x="260" y="1217" type="line"/>
      <point x="260" y="1325" type="line"/>
      <point x="334" y="1325" type="line" name="dv04"/>
      <point x="426" y="1325"/>
      <point x="476" y="1357" type="qcurve"/>
      <point x="525" y="1388"/>
      <point x="525" y="1447" type="qcurve" name="sh01"/>
      <point x="525" y="1505"/>
      <point x="477" y="1536" type="qcurve"/>
      <point x="453" y="1552"/>
      <point x="385" y="1567"/>
      <point x="345" y="1567" type="qcurve" name="dv01"/>
      <point x="319" y="1567"/>
      <point x="270" y="1561"/>
      <point x="242" y="1555" type="qcurve"/>
      <point x="187" y="1543"/>
      <point x="127" y="1520" type="qcurve"/>
      <point x="127" y="1641" type="line"/>
      <point x="162" y="1649"/>
      <point x="226" y="1662"/>
      <point x="255" y="1667" type="qcurve"/>
      <point x="313" y="1676"/>
      <point x="365" y="1676" type="qcurve" name="dv02"/>
      <point x="507" y="1676"/>
      <point x="592" y="1617" type="qcurve"/>
      <point x="676" y="1558"/>
      <point x="676" y="1460" type="qcurve"/>
      <point x="676" y="1389"/>
      <point x="632" y="1342" type="qcurve"/>
      <point x="589" y="1296"/>
      <point x="504" y="1276" type="qcurve" name="iv01"/>
      <point x="598" y="1255"/>
      <point x="648" y="1201" type="qcurve"/>
      <point x="697" y="1148"/>
      <point x="697" y="1065" type="qcurve" name="sh02"/>
      <point x="697" y="944"/>
      <point x="602" y="876" type="qcurve"/>
      <point x="554" y="842"/>
      <point x="418" y="809"/>
    </contour>
    <contour>
      <point x="27" y="612" type="line"/>
      <point x="1087" y="874" type="line"/>
      <point x="1114" y="766" type="line"/>
      <point x="51" y="504" type="line"/>
    </contour>
    <contour>
      <point x="839" y="-84" type="line" name="ah01"/>
      <point x="452" y="-84" type="line"/>
      <point x="452" y="37" type="line"/>
      <point x="815" y="565" type="line"/>
      <point x="977" y="565" type="line" name="sh04"/>
      <point x="977" y="27" type="line" name="sv01"/>
      <point x="1093" y="27" type="line"/>
      <point x="1093" y="-84" type="line" name="sv02"/>
      <point x="977" y="-84" type="line" name="sh03"/>
      <point x="977" y="-270" type="line" name="av01"/>
      <point x="839" y="-270" type="line"/>
    </contour>
    <contour>
      <point x="839" y="27" type="line" name="sh05"/>
      <point x="839" y="440" type="line" name="ih01"/>
      <point x="565" y="27" type="line" name="ih02"/>
    </contour>
  </outline>
</glyph>
<glyph name="Aacute" format="1">
  <advance width="1233"/>
  <unicode hex="00C1"/>
  <outline>
    <contour>
      <point x="691" y="1856" type="line" name="hr00"/>
      <point x="877" y="1856" type="line"/>
      <point x="648" y="1592" type="line"/>
      <point x="494" y="1592" type="line" name="iv01"/>
    </contour>
    <contour>
      <point x="494" y="1493" type="line" name="at01"/>
      <point x="739" y="1493" type="line"/>
      <point x="1196" y="0" type="line" name="ab01"/>
      <point x="987" y="0" type="line"/>
      <point x="877" y="389" type="line" name="dv01"/>
      <point x="354" y="389" type="line"/>
      <point x="246" y="0" type="line" name="ab02"/>
      <point x="37" y="0" type="line"/>
    </contour>
    <contour>
      <point x="829" y="551" type="line" name="dv02"/>
      <point x="616" y="1315" type="line"/>
      <point x="403" y="551" type="line"/>
    </contour>
  </outline>
</glyph>
<glyph name="Edieresis" format="1">
  <advance width="1233"/>
  <unicode hex="00CB"/>
  <outline>
    <contour>
      <point x="367" y="1647" type="line" name="dv01"/>
      <point x="337" y="1647"/>
      <point x="337" y="1677" type="qcurve" name="ih01"/>
      <point x="337" y="1820" type="line"/>
      <point x="337" y="1850"/>
      <point x="367" y="1850" type="qcurve" name="dv02"/>
      <point x="510" y="1850" type="line"/>
      <point x="540" y="1850"/>
      <point x="540" y="1820" type="qcurve"/>
      <point x="540" y="1677" type="line" name="sh01"/>
      <point x="540" y="1647"/>
      <point x="510" y="1647" type="qcurve"/>
    </contour>
    <contour>
      <point x="759" y="1647" type="line" name="sv01"/>
      <point x="729" y="1647"/>
      <point x="729" y="1677" type="qcurve" name="dh03"/>
      <point x="729" y="1820" type="line"/>
      <point x="729" y="1850"/>
      <point x="759" y="1850" type="qcurve" name="sv02"/>
      <point x="901" y="1850" type="line"/>
      <point x="931" y="1850"/>
      <point x="931" y="1820" type="qcurve"/>
      <point x="931" y="1677" type="line" name="dh04"/>
      <point x="931" y="1647"/>
      <point x="901" y="1647" type="qcurve"/>
    </contour>
    <contour>
      <point x="197" y="1493" type="line" name="dh01"/>
      <point x="1083" y="1493" type="line"/>
      <point x="1083" y="1323" type="line" name="sv03"/>
      <point x="399" y="1323" type="line" name="dh02"/>
      <point x="399" y="881" type="line"/>
      <point x="1053" y="881" type="line" name="hr01"/>
      <point x="1053" y="711" type="line" name="dv03"/>
      <point x="399" y="711" type="line" name="sh02"/>
      <point x="399" y="170" type="line" name="sv04"/>
      <point x="1102" y="170" type="line"/>
      <point x="1102" y="0" type="line" name="ab01"/>
      <point x="197" y="0" type="line"/>
    </contour>
  </outline>
</glyph>
<glyph name="Iacute" format="1">
  <advance width="1233"/>
  <unicode hex="00CD"/>
  <outline>
    <contour>
      <point x="691" y="1856" type="line" name="hr00"/>
      <point x="877" y="1856" type="line"/>
      <point x="648" y="1592" type="line"/>
      <point x="494" y="1592" type="line" name="iv01"/>
    </contour>
    <contour>
      <point x="201" y="170" type="line" name="sv01"/>
      <point x="514" y="170" type="line" name="dh01"/>
      <point x="514" y="1323" type="line" name="sv02"/>
      <point x="201" y="1323" type="line"/>
      <point x="201" y="1493" type="line" name="at01"/>
      <point x="1030" y="1493" type="line"/>
      <point x="1030" y="1323" type="line" name="sv03"/>
      <point x="717" y="1323" type="line" name="sv04"/>
      <point x="717" y="170" type="line" name="dh02"/>
      <point x="1030" y="170" type="line" name="sv05"/>
      <point x="1030" y="0" type="line" name="ab01"/>
      <point x="201" y="0" type="line"/>
    </contour>
  </outline>
</glyph>
<glyph name="Eth" format="1">
  <advance width="1233"/>
  <unicode hex="00D0"/>
  <outline>
    <contour>
      <point x="133" y="709" type="line" name="hr00"/>
      <point x="8" y="709" type="line"/>
      <point x="8" y="858" type="line"/>
      <point x="133" y="858" type="line" name="sh01"/>
      <point x="133" y="1493" type="line" name="at01"/>
      <point x="436" y="1493" type="line"/>
      <point x="778" y="1493"/>
      <point x="940" y="1311" type="qcurve"/>
      <point x="1102" y="1129"/>
      <point x="1102" y="746" type="qcurve" name="sh02"/>
      <point x="1102" y="363"/>
      <point x="940" y="182" type="qcurve"/>
      <point x="857" y="89"/>
      <point x="604" y="0"/>
      <point x="436" y="0" type="qcurve" name="ab01"/>
      <point x="133" y="0" type="line"/>
    </contour>
    <contour>
      <point x="436" y="166" type="line" name="sv01"/>
      <point x="505" y="166"/>
      <point x="615" y="183"/>
      <point x="701" y="215"/>
      <point x="766" y="262"/>
      <point x="791" y="293" type="qcurve"/>
      <point x="843" y="358"/>
      <point x="893" y="578"/>
      <point x="893" y="748" type="qcurve" name="ah01"/>
      <point x="893" y="835"/>
      <point x="880" y="975"/>
      <point x="855" y="1085"/>
      <point x="817" y="1168"/>
      <point x="792" y="1200" type="qcurve"/>
      <point x="739" y="1267"/>
      <point x="566" y="1327"/>
      <point x="436" y="1327" type="qcurve" name="sv02"/>
      <point x="340" y="1327" type="line" name="sh04"/>
      <point x="340" y="858" type="line" name="sv03"/>
      <point x="604" y="858" type="line"/>
      <point x="604" y="709" type="line" name="sv04"/>
      <point x="340" y="709" type="line" name="sh03"/>
      <point x="340" y="166" type="line"/>
    </contour>
  </outline>
</glyph>
<glyph name="Ntilde" format="1">
  <advance width="1233"/>
  <unicode hex="00D1"/>
  <outline>
    <contour>
      <point x="287" y="1633" type="line" name="hr00"/>
      <point x="287" y="1681"/>
      <point x="311" y="1761"/>
      <point x="339" y="1793" type="qcurve" name="sh03"/>
      <point x="390" y="1852"/>
      <point x="476" y="1852" type="qcurve" name="dv02"/>
      <point x="508" y="1852"/>
      <point x="542" y="1844" type="qcurve"/>
      <point x="557" y="1840"/>
      <point x="595" y="1823"/>
      <point x="621" y="1809" type="qcurve"/>
      <point x="678" y="1779" type="line"/>
      <point x="699" y="1766"/>
      <point x="718" y="1760" type="qcurve"/>
      <point x="734" y="1754"/>
      <point x="750" y="1754" type="qcurve"/>
      <point x="781" y="1754"/>
      <point x="801" y="1780" type="qcurve"/>
      <point x="821" y="1806"/>
      <point x="821" y="1846" type="qcurve"/>
      <point x="821" y="1852" type="line" name="sv01"/>
      <point x="946" y="1852" type="line"/>
      <point x="945" y="1753"/>
      <point x="893" y="1693" type="qcurve" name="sh04"/>
      <point x="842" y="1633"/>
      <point x="757" y="1633" type="qcurve" name="sv02"/>
      <point x="726" y="1633"/>
      <point x="694" y="1641" type="qcurve"/>
      <point x="680" y="1645"/>
      <point x="643" y="1660"/>
      <point x="612" y="1676" type="qcurve"/>
      <point x="555" y="1709" type="line"/>
      <point x="532" y="1722"/>
      <point x="514" y="1729" type="qcurve"/>
      <point x="506" y="1732"/>
      <point x="490" y="1734"/>
      <point x="485" y="1734" type="qcurve"/>
      <point x="470" y="1734"/>
      <point x="442" y="1722"/>
      <point x="432" y="1709" type="qcurve"/>
      <point x="412" y="1683"/>
      <point x="412" y="1639" type="qcurve"/>
      <point x="412" y="1633" type="line" name="dv01"/>
    </contour>
    <contour>
      <point x="139" y="1493" type="line" name="sh01"/>
      <point x="395" y="1493" type="line"/>
      <point x="899" y="264" type="line" name="ah01"/>
      <point x="899" y="1493" type="line" name="at01"/>
      <point x="1094" y="1493" type="line"/>
      <point x="1094" y="0" type="line" name="sh05"/>
      <point x="838" y="0" type="line"/>
      <point x="334" y="1229" type="line" name="sh02"/>
      <point x="334" y="0" type="line" name="ab01"/>
      <point x="139" y="0" type="line"/>
    </contour>
  </outline>
</glyph>
<glyph name="Odieresis" format="1">
  <advance width="1233"/>
  <unicode hex="00D6"/>
  <outline>
    <contour>
      <point x="349" y="1647" type="line" name="dv03"/>
      <point x="319" y="1647"/>
      <point x="319" y="1677" type="qcurve" name="sh01"/>
      <point x="319" y="1820" type="line"/>
      <point x="319" y="1850"/>
      <point x="349" y="1850" type="qcurve" name="dv04"/>
      <point x="492" y="1850" type="line"/>
      <point x="522" y="1850"/>
      <point x="522" y="1820" type="qcurve"/>
      <point x="522" y="1677" type="line" name="sh02"/>
      <point x="522" y="1647"/>
      <point x="492" y="1647" type="qcurve"/>
    </contour>
    <contour>
      <point x="741" y="1647" type="line" name="sv01"/>
      <point x="711" y="1647"/>
      <point x="711" y="1677" type="qcurve" name="dh03"/>
      <point x="711" y="1820" type="line"/>
      <point x="711" y="1850"/>
      <point x="741" y="1850" type="qcurve" name="sv02"/>
      <point x="883" y="1850" type="line"/>
      <point x="913" y="1850"/>
      <point x="913" y="1820" type="qcurve"/>
      <point x="913" y="1677" type="line" name="dh04"/>
      <point x="913" y="1647"/>
      <point x="883" y="1647" type="qcurve"/>
    </contour>
    <contour>
      <point x="616" y="-29" type="qcurve" name="dv01"/>
      <point x="363" y="-29"/>
      <point x="240" y="162" type="qcurve"/>
      <point x="117" y="352"/>
      <point x="117" y="745" type="qcurve" name="dh01"/>
      <point x="117" y="1137"/>
      <point x="241" y="1328" type="qcurve" name="hr01"/>
      <point x="303" y="1424"/>
      <point x="488" y="1520"/>
      <point x="616" y="1520" type="qcurve" name="at01"/>
      <point x="739" y="1520"/>
      <point x="929" y="1428"/>
      <point x="993" y="1328" type="qcurve"/>
      <point x="1116" y="1136"/>
      <point x="1116" y="745" type="qcurve" name="sh03"/>
      <point x="1116" y="355"/>
      <point x="993" y="163" type="qcurve"/>
      <point x="929" y="63"/>
      <point x="739" y="-29"/>
    </contour>
    <contour>
      <point x="616" y="135" type="qcurve" name="dv02"/>
      <point x="770" y="135"/>
      <point x="838" y="276" type="qcurve"/>
      <point x="905" y="414"/>
      <point x="905" y="745" type="qcurve" name="sh04"/>
      <point x="905" y="1075"/>
      <point x="838" y="1215" type="qcurve"/>
      <point x="770" y="1356"/>
      <point x="616" y="1356" type="qcurve" name="sv03"/>
      <point x="463" y="1356"/>
      <point x="396" y="1215" type="qcurve"/>
      <point x="328" y="1073"/>
      <point x="328" y="745" type="qcurve" name="dh02"/>
      <point x="328" y="418"/>
      <point x="396" y="276" type="qcurve"/>
      <point x="463" y="135"/>
    </contour>
  </outline>
</glyph>
<glyph name="Oslash" format="1">
  <advance width="1233"/>
  <unicode hex="00D8"/>
  <outline>
    <contour>
      <point x="8" y="0" type="line" name="hr00"/>
      <point x="186" y="252" type="line"/>
      <point x="169" y="291"/>
      <point x="146" y="387"/>
      <point x="136" y="456" type="qcurve"/>
      <point x="127" y="519"/>
      <point x="117" y="656"/>
      <point x="117" y="740" type="qcurve" name="sh01"/>
      <point x="117" y="943"/>
      <point x="178" y="1231"/>
      <point x="241" y="1328" type="qcurve"/>
      <point x="305" y="1427"/>
      <point x="491" y="1520"/>
      <point x="615" y="1520" type="qcurve" name="at02"/>
      <point x="675" y="1520"/>
      <point x="774" y="1499"/>
      <point x="818" y="1479" type="qcurve"/>
      <point x="903" y="1439"/>
      <point x="961" y="1358" type="qcurve" name="ih01"/>
      <point x="1100" y="1559" type="line" name="at01"/>
      <point x="1200" y="1485" type="line"/>
      <point x="1032" y="1247" type="line"/>
      <point x="1053" y="1206"/>
      <point x="1084" y="1098"/>
      <point x="1095" y="1037" type="qcurve"/>
      <point x="1105" y="979"/>
      <point x="1116" y="830"/>
      <point x="1116" y="744" type="qcurve" name="sh02"/>
      <point x="1116" y="355"/>
      <point x="993" y="163" type="qcurve"/>
      <point x="933" y="69"/>
      <point x="746" y="-29"/>
      <point x="612" y="-29" type="qcurve" name="dv01"/>
      <point x="555" y="-29"/>
      <point x="453" y="-10"/>
      <point x="405" y="12" type="qcurve"/>
      <point x="315" y="52"/>
      <point x="254" y="133" type="qcurve" name="ih02"/>
      <point x="111" y="-70" type="line" name="sh04"/>
    </contour>
    <contour>
      <point x="842" y="1190" type="line"/>
      <point x="829" y="1232"/>
      <point x="786" y="1294"/>
      <point x="760" y="1314" type="qcurve"/>
      <point x="731" y="1336"/>
      <point x="657" y="1356"/>
      <point x="615" y="1356" type="qcurve" name="sv01"/>
      <point x="531" y="1356"/>
      <point x="426" y="1280"/>
      <point x="394" y="1208" type="qcurve"/>
      <point x="377" y="1170"/>
      <point x="352" y="1072"/>
      <point x="336" y="945"/>
      <point x="328" y="785"/>
      <point x="328" y="686" type="qcurve" name="sh03"/>
      <point x="328" y="664"/>
      <point x="328" y="630"/>
      <point x="329" y="600"/>
      <point x="330" y="572"/>
      <point x="331" y="556" type="qcurve" name="sh05"/>
      <point x="332" y="542"/>
      <point x="333" y="506"/>
      <point x="338" y="471" type="qcurve" name="sh06"/>
    </contour>
    <contour>
      <point x="617" y="135" type="qcurve" name="dv02"/>
      <point x="699" y="135"/>
      <point x="806" y="209"/>
      <point x="838" y="277" type="qcurve"/>
      <point x="854" y="310"/>
      <point x="879" y="397"/>
      <point x="896" y="512"/>
      <point x="905" y="657"/>
      <point x="905" y="748" type="qcurve" name="ah01"/>
      <point x="905" y="800"/>
      <point x="902" y="889"/>
      <point x="900" y="923" type="qcurve" name="sh07"/>
      <point x="898" y="956"/>
      <point x="891" y="1010"/>
      <point x="885" y="1036" type="qcurve" name="ih03"/>
      <point x="371" y="303" type="line"/>
      <point x="401" y="225"/>
      <point x="467" y="180" type="qcurve"/>
      <point x="501" y="157"/>
      <point x="575" y="135"/>
    </contour>
  </outline>
</glyph>
<glyph name="Uacute" format="1">
  <advance width="1233"/>
  <unicode hex="00DA"/>
  <outline>
    <contour>
      <point x="672" y="1856" type="line" name="hr00"/>
      <point x="858" y="1856" type="line" name="ih01"/>
      <point x="629" y="1592" type="line"/>
      <point x="475" y="1592" type="line" name="ih02"/>
    </contour>
    <contour>
      <point x="616" y="-29" type="qcurve" name="dv01"/>
      <point x="562" y="-29"/>
      <point x="469" y="-14"/>
      <point x="427" y="0" type="qcurve"/>
      <point x="388" y="14"/>
      <point x="305" y="59"/>
      <point x="273" y="88" type="qcurve"/>
      <point x="242" y="116"/>
      <point x="194" y="192"/>
      <point x="177" y="249" type="qcurve"/>
      <point x="169" y="274"/>
      <point x="158" y="336"/>
      <point x="151" y="414"/>
      <point x="147" y="511"/>
      <point x="147" y="573" type="qcurve" name="sh01"/>
      <point x="147" y="1493" type="line" name="at01"/>
      <point x="350" y="1493" type="line"/>
      <point x="350" y="481" type="line" name="sh03"/>
      <point x="350" y="372"/>
      <point x="356" y="326" type="qcurve" name="sh04"/>
      <point x="362" y="279"/>
      <point x="377" y="254" type="qcurve"/>
      <point x="409" y="195"/>
      <point x="470" y="165" type="qcurve"/>
      <point x="530" y="135"/>
      <point x="616" y="135" type="qcurve" name="dv02"/>
      <point x="703" y="135"/>
      <point x="763" y="165" type="qcurve"/>
      <point x="825" y="196"/>
      <point x="856" y="254" type="qcurve"/>
      <point x="864" y="269"/>
      <point x="874" y="301"/>
      <point x="877" y="325" type="qcurve" name="sh05"/>
      <point x="883" y="371"/>
      <point x="883" y="479" type="qcurve" name="ah01"/>
      <point x="883" y="1493" type="line" name="at02"/>
      <point x="1085" y="1493" type="line"/>
      <point x="1085" y="573" type="line" name="sh02"/>
      <point x="1085" y="507"/>
      <point x="1081" y="406"/>
      <point x="1074" y="329"/>
      <point x="1063" y="271"/>
      <point x="1057" y="249" type="qcurve"/>
      <point x="1043" y="199"/>
      <point x="993" y="119"/>
      <point x="959" y="88" type="qcurve"/>
      <point x="926" y="58"/>
      <point x="845" y="14"/>
      <point x="806" y="0" type="qcurve"/>
      <point x="769" y="-13"/>
      <point x="675" y="-29"/>
    </contour>
  </outline>
</glyph>
<glyph name="Udieresis" format="1">
  <advance width="1233"/>
  <unicode hex="00DC"/>
  <outline>
    <contour>
      <point x="349" y="1647" type="line" name="dv03"/>
      <point x="319" y="1647"/>
      <point x="319" y="1677" type="qcurve" name="ih01"/>
      <point x="319" y="1820" type="line"/>
      <point x="319" y="1850"/>
      <point x="349" y="1850" type="qcurve" name="dv04"/>
      <point x="492" y="1850" type="line"/>
      <point x="522" y="1850"/>
      <point x="522" y="1820" type="qcurve"/>
      <point x="522" y="1677" type="line" name="sh01"/>
      <point x="522" y="1647"/>
      <point x="492" y="1647" type="qcurve"/>
    </contour>
    <contour>
      <point x="741" y="1647" type="line" name="sv01"/>
      <point x="711" y="1647"/>
      <point x="711" y="1677" type="qcurve" name="dh03"/>
      <point x="711" y="1820" type="line"/>
      <point x="711" y="1850"/>
      <point x="741" y="1850" type="qcurve" name="sv02"/>
      <point x="883" y="1850" type="line"/>
      <point x="913" y="1850"/>
      <point x="913" y="1820" type="qcurve"/>
      <point x="913" y="1677" type="line" name="dh04"/>
      <point x="913" y="1647"/>
      <point x="883" y="1647" type="qcurve"/>
    </contour>
    <contour>
      <point x="616" y="-29" type="qcurve" name="dv01"/>
      <point x="562" y="-29"/>
      <point x="469" y="-14"/>
      <point x="427" y="0" type="qcurve"/>
      <point x="388" y="14"/>
      <point x="305" y="59"/>
      <point x="273" y="88" type="qcurve"/>
      <point x="242" y="116"/>
      <point x="194" y="192"/>
      <point x="177" y="249" type="qcurve"/>
      <point x="169" y="274"/>
      <point x="158" y="336"/>
      <point x="151" y="414"/>
      <point x="147" y="511"/>
      <point x="147" y="573" type="qcurve" name="dh01"/>
      <point x="147" y="1493" type="line" name="at01"/>
      <point x="350" y="1493" type="line"/>
      <point x="350" y="481" type="line" name="dh02"/>
      <point x="350" y="372"/>
      <point x="356" y="326" type="qcurve" name="hr01"/>
      <point x="362" y="279"/>
      <point x="377" y="254" type="qcurve"/>
      <point x="409" y="195"/>
      <point x="470" y="165" type="qcurve" name="hr02"/>
      <point x="530" y="135"/>
      <point x="616" y="135" type="qcurve" name="dv02"/>
      <point x="703" y="135"/>
      <point x="763" y="165" type="qcurve" name="hr03"/>
      <point x="825" y="196"/>
      <point x="856" y="254" type="qcurve" name="hr04"/>
      <point x="864" y="269"/>
      <point x="874" y="301"/>
      <point x="877" y="325" type="qcurve" name="sh02"/>
      <point x="883" y="371"/>
      <point x="883" y="479" type="qcurve"/>
      <point x="883" y="1493" type="line" name="ih02"/>
      <point x="1085" y="1493" type="line" name="sh03"/>
      <point x="1085" y="573" type="line"/>
      <point x="1085" y="507"/>
      <point x="1081" y="406"/>
      <point x="1074" y="329"/>
      <point x="1063" y="271"/>
      <point x="1057" y="249" type="qcurve"/>
      <point x="1043" y="199"/>
      <point x="993" y="119"/>
      <point x="959" y="88" type="qcurve"/>
      <point x="926" y="58"/>
      <point x="845" y="14"/>
      <point x="806" y="0" type="qcurve"/>
      <point x="769" y="-13"/>
      <point x="675" y="-29"/>
    </contour>
  </outline>
</glyph>
<glyph name="Thorn" format="1">
  <advance width="1233"/>
  <unicode hex="00DE"/>
  <outline>
    <contour>
      <point x="201" y="1493" type="line" name="hr00"/>
      <point x="403" y="1493" type="line" name="sh01"/>
      <point x="403" y="1223" type="line"/>
      <point x="657" y="1223" type="line" name="dv04"/>
      <point x="916" y="1223"/>
      <point x="1041" y="1118" type="qcurve"/>
      <point x="1165" y="1013"/>
      <point x="1165" y="794" type="qcurve" name="sh02"/>
      <point x="1165" y="682"/>
      <point x="1102" y="523"/>
      <point x="1041" y="472" type="qcurve"/>
      <point x="916" y="367"/>
      <point x="657" y="367" type="qcurve" name="dv01"/>
      <point x="403" y="367" type="line" name="sh03"/>
      <point x="403" y="0" type="line" name="ab01"/>
      <point x="201" y="0" type="line"/>
    </contour>
    <contour>
      <point x="637" y="532" type="line" name="dv02"/>
      <point x="794" y="532"/>
      <point x="874" y="598" type="qcurve"/>
      <point x="952" y="664"/>
      <point x="952" y="795" type="qcurve" name="ah01"/>
      <point x="952" y="858"/>
      <point x="914" y="959"/>
      <point x="874" y="992" type="qcurve"/>
      <point x="838" y="1022"/>
      <point x="720" y="1057"/>
      <point x="637" y="1057" type="qcurve" name="dv03"/>
      <point x="403" y="1057" type="line" name="sh04"/>
      <point x="403" y="532" type="line"/>
    </contour>
  </outline>
</glyph>
<glyph name="germandbls" format="1">
  <advance width="1233"/>
  <unicode hex="00DF"/>
  <outline>
    <contour>
      <point x="731" y="-29" type="qcurve" name="dv01"/>
      <point x="697" y="-29"/>
      <point x="625" y="-23"/>
      <point x="593" y="-17" type="qcurve"/>
      <point x="570" y="-12"/>
      <point x="496" y="6"/>
      <point x="459" y="20" type="qcurve"/>
      <point x="459" y="184" type="line" name="ih01"/>
      <point x="534" y="153"/>
      <point x="602" y="138" type="qcurve"/>
      <point x="668" y="123"/>
      <point x="728" y="123" type="qcurve" name="dv02"/>
      <point x="783" y="123"/>
      <point x="868" y="148"/>
      <point x="899" y="171" type="qcurve"/>
      <point x="934" y="197"/>
      <point x="963" y="265"/>
      <point x="963" y="310" type="qcurve" name="dh05"/>
      <point x="963" y="342"/>
      <point x="948" y="393"/>
      <point x="929" y="419" type="qcurve"/>
      <point x="904" y="454"/>
      <point x="827" y="512"/>
      <point x="778" y="541" type="qcurve"/>
      <point x="711" y="580" type="line"/>
      <point x="664" y="607"/>
      <point x="596" y="671"/>
      <point x="574" y="703" type="qcurve"/>
      <point x="551" y="737"/>
      <point x="528" y="806"/>
      <point x="528" y="851" type="qcurve" name="dh03"/>
      <point x="528" y="911"/>
      <point x="568" y="1019"/>
      <point x="609" y="1062" type="qcurve"/>
      <point x="648" y="1104"/>
      <point x="765" y="1164"/>
      <point x="846" y="1182" type="qcurve" name="hr01"/>
      <point x="844" y="1289"/>
      <point x="784" y="1346" type="qcurve"/>
      <point x="722" y="1403"/>
      <point x="610" y="1403" type="qcurve" name="sv01"/>
      <point x="489" y="1403"/>
      <point x="432" y="1338" type="qcurve"/>
      <point x="375" y="1272"/>
      <point x="375" y="1133" type="qcurve"/>
      <point x="375" y="0" type="line" name="dh02"/>
      <point x="188" y="0" type="line" name="dh01"/>
      <point x="188" y="1137" type="line"/>
      <point x="188" y="1349"/>
      <point x="293" y="1453" type="qcurve"/>
      <point x="346" y="1505"/>
      <point x="507" y="1556"/>
      <point x="610" y="1556" type="qcurve" name="at01"/>
      <point x="819" y="1556"/>
      <point x="923" y="1446" type="qcurve"/>
      <point x="1029" y="1334"/>
      <point x="1030" y="1119" type="qcurve"/>
      <point x="876" y="1106"/>
      <point x="791" y="1043" type="qcurve"/>
      <point x="707" y="981"/>
      <point x="707" y="883" type="qcurve" name="dh04"/>
      <point x="707" y="855"/>
      <point x="721" y="814"/>
      <point x="735" y="794" type="qcurve"/>
      <point x="752" y="770"/>
      <point x="798" y="733"/>
      <point x="829" y="713" type="qcurve" name="hr02"/>
      <point x="887" y="676" type="line"/>
      <point x="966" y="626"/>
      <point x="1065" y="545"/>
      <point x="1094" y="501" type="qcurve"/>
      <point x="1122" y="459"/>
      <point x="1149" y="360"/>
      <point x="1149" y="306" type="qcurve" name="dh06"/>
      <point x="1149" y="232"/>
      <point x="1097" y="106"/>
      <point x="1037" y="59" type="qcurve"/>
      <point x="982" y="16"/>
      <point x="826" y="-29"/>
    </contour>
  </outline>
</glyph>
<glyph name="ae" format="1">
  <advance width="1233"/>
  <unicode hex="00E6"/>
  <note>
	ae
  </note>
  <outline>
    <contour>
      <point x="426" y="-29"/>
      <point x="479" y="-16"/>
      <point x="524" y="11" type="curve" smooth="yes"/>
      <point x="568" y="38"/>
      <point x="603" y="78"/>
      <point x="629" y="131" type="curve"/>
      <point x="650" y="79"/>
      <point x="686" y="39"/>
      <point x="736" y="12" type="curve" smooth="yes"/>
      <point x="785" y="-15"/>
      <point x="849" y="-29"/>
      <point x="917" y="-29" type="curve" smooth="yes"/>
      <point x="969" y="-29"/>
      <point x="1018" y="-21"/>
      <point x="1057" y="-8" type="curve" smooth="yes"/>
      <point x="1096" y="5"/>
      <point x="1139" y="27"/>
      <point x="1178" y="55" type="curve"/>
      <point x="1178" y="227" type="line"/>
      <point x="1145" y="194"/>
      <point x="1107" y="168"/>
      <point x="1064" y="151" type="curve" smooth="yes"/>
      <point x="1020" y="134"/>
      <point x="973" y="125"/>
      <point x="923" y="125" type="curve" smooth="yes"/>
      <point x="848" y="125"/>
      <point x="794" y="145"/>
      <point x="758" y="196" type="curve" smooth="yes"/>
      <point x="726" y="241"/>
      <point x="707" y="312"/>
      <point x="707" y="443" type="curve" smooth="yes"/>
      <point x="707" y="474"/>
      <point x="708" y="478"/>
      <point x="708" y="482" type="curve" smooth="yes"/>
      <point x="708" y="493"/>
      <point x="708" y="503"/>
      <point x="709" y="514" type="curve"/>
      <point x="1200" y="514" type="line"/>
      <point x="1200" y="604" type="line" smooth="yes"/>
      <point x="1200" y="808"/>
      <point x="1176" y="950"/>
      <point x="1128" y="1029" type="curve" smooth="yes"/>
      <point x="1080" y="1109"/>
      <point x="995" y="1147"/>
      <point x="882" y="1147" type="curve" smooth="yes"/>
      <point x="822" y="1147"/>
      <point x="770" y="1136"/>
      <point x="726" y="1114" type="curve" smooth="yes"/>
      <point x="682" y="1092"/>
      <point x="649" y="1061"/>
      <point x="627" y="1020" type="curve"/>
      <point x="602" y="1063"/>
      <point x="569" y="1095"/>
      <point x="528" y="1116" type="curve" smooth="yes"/>
      <point x="487" y="1137"/>
      <point x="437" y="1147"/>
      <point x="376" y="1147" type="curve" smooth="yes"/>
      <point x="334" y="1147"/>
      <point x="292" y="1142"/>
      <point x="249" y="1131" type="curve" smooth="yes"/>
      <point x="205" y="1120"/>
      <point x="157" y="1102"/>
      <point x="106" y="1079" type="curve"/>
      <point x="106" y="911" type="line"/>
      <point x="147" y="938"/>
      <point x="194" y="959"/>
      <point x="234" y="972" type="curve" smooth="yes"/>
      <point x="273" y="985"/>
      <point x="318" y="993"/>
      <point x="357" y="993" type="curve" smooth="yes"/>
      <point x="420" y="993"/>
      <point x="467" y="972"/>
      <point x="500" y="929" type="curve" smooth="yes"/>
      <point x="533" y="886"/>
      <point x="549" y="825"/>
      <point x="549" y="745" type="curve" smooth="yes"/>
      <point x="549" y="657" type="line"/>
      <point x="432" y="657" type="line" smooth="yes"/>
      <point x="305" y="657"/>
      <point x="208" y="627"/>
      <point x="141" y="568" type="curve" smooth="yes"/>
      <point x="70" y="505"/>
      <point x="41" y="417"/>
      <point x="41" y="304" type="curve" smooth="yes"/>
      <point x="41" y="201"/>
      <point x="66" y="117"/>
      <point x="123" y="57" type="curve" smooth="yes"/>
      <point x="177" y="0"/>
      <point x="255" y="-29"/>
      <point x="358" y="-29" type="curve" smooth="yes"/>
    </contour>
    <contour>
      <point x="709" y="657" type="line"/>
      <point x="709" y="700" type="line" smooth="yes"/>
      <point x="709" y="805"/>
      <point x="722" y="880"/>
      <point x="747" y="925" type="curve" smooth="yes"/>
      <point x="772" y="970"/>
      <point x="814" y="993"/>
      <point x="872" y="993" type="curve" smooth="yes"/>
      <point x="935" y="993"/>
      <point x="975" y="967"/>
      <point x="998" y="927" type="curve" smooth="yes"/>
      <point x="1022" y="884"/>
      <point x="1036" y="813"/>
      <point x="1036" y="709" type="curve" smooth="yes"/>
      <point x="1036" y="657" type="line"/>
    </contour>
    <contour>
      <point x="322" y="125"/>
      <point x="280" y="141"/>
      <point x="250" y="174" type="curve" smooth="yes"/>
      <point x="220" y="206"/>
      <point x="205" y="252"/>
      <point x="205" y="313" type="curve" smooth="yes"/>
      <point x="205" y="385"/>
      <point x="225" y="438"/>
      <point x="265" y="469" type="curve" smooth="yes"/>
      <point x="305" y="499"/>
      <point x="381" y="514"/>
      <point x="494" y="514" type="curve" smooth="yes"/>
      <point x="543" y="514" type="line"/>
      <point x="543" y="442" type="line" smooth="yes"/>
      <point x="543" y="306"/>
      <point x="529" y="235"/>
      <point x="506" y="192" type="curve" smooth="yes"/>
      <point x="481" y="147"/>
      <point x="438" y="125"/>
      <point x="375" y="125" type="curve" smooth="yes"/>
    </contour>
  </outline>
</glyph>
<glyph name="ccedilla" format="1">
  <advance width="1233"/>
  <unicode hex="00E7"/>
  <outline>
    <contour>
      <point x="718" y="991" type="qcurve" name="hr00"/>
      <point x="544" y="991"/>
      <point x="451" y="879" type="qcurve"/>
      <point x="358" y="766"/>
      <point x="358" y="560" type="qcurve" name="dh02"/>
      <point x="358" y="464"/>
      <point x="401" y="300"/>
      <point x="451" y="240" type="qcurve"/>
      <point x="545" y="127"/>
      <point x="721" y="127" type="qcurve" name="dv05"/>
      <point x="771" y="127"/>
      <point x="854" y="143"/>
      <point x="889" y="157" type="qcurve"/>
      <point x="934" y="174"/>
      <point x="999" y="219"/>
      <point x="1030" y="248" type="qcurve"/>
      <point x="1030" y="57" type="line"/>
      <point x="996" y="37"/>
      <point x="916" y="3"/>
      <point x="878" y="-8" type="qcurve"/>
      <point x="858" y="-13"/>
      <point x="817" y="-22"/>
      <point x="794" y="-24" type="qcurve" name="ih01"/>
      <point x="834" y="-72"/>
      <point x="856" y="-115" type="qcurve"/>
      <point x="867" y="-138"/>
      <point x="882" y="-189"/>
      <point x="882" y="-219" type="qcurve" name="dh04"/>
      <point x="882" y="-259"/>
      <point x="852" y="-327"/>
      <point x="822" y="-350" type="qcurve"/>
      <point x="793" y="-372"/>
      <point x="705" y="-395"/>
      <point x="643" y="-395" type="qcurve" name="dv01"/>
      <point x="599" y="-395"/>
      <point x="556" y="-389" type="qcurve" name="sv01"/>
      <point x="510" y="-383"/>
      <point x="468" y="-371" type="qcurve"/>
      <point x="468" y="-240" type="line" name="dh03"/>
      <point x="485" y="-248"/>
      <point x="521" y="-261"/>
      <point x="540" y="-265" type="qcurve"/>
      <point x="559" y="-269"/>
      <point x="602" y="-272"/>
      <point x="619" y="-272" type="qcurve" name="dv02"/>
      <point x="683" y="-272"/>
      <point x="713" y="-248" type="qcurve"/>
      <point x="743" y="-224"/>
      <point x="743" y="-180" type="qcurve"/>
      <point x="743" y="-148"/>
      <point x="721" y="-105" type="qcurve"/>
      <point x="705" y="-73"/>
      <point x="674" y="-28" type="qcurve" name="dv04"/>
      <point x="562" y="-22"/>
      <point x="377" y="56"/>
      <point x="310" y="127" type="qcurve"/>
      <point x="238" y="204"/>
      <point x="164" y="422"/>
      <point x="164" y="559" type="qcurve" name="dh01"/>
      <point x="164" y="702"/>
      <point x="241" y="918"/>
      <point x="311" y="992" type="qcurve"/>
      <point x="385" y="1070"/>
      <point x="588" y="1147"/>
      <point x="713" y="1147" type="qcurve" name="dv03"/>
      <point x="759" y="1147"/>
      <point x="837" y="1137"/>
      <point x="875" y="1126" type="qcurve"/>
      <point x="951" y="1105"/>
      <point x="1030" y="1061" type="qcurve"/>
      <point x="1030" y="868" type="line"/>
      <point x="993" y="900"/>
      <point x="921" y="948"/>
      <point x="884" y="962" type="qcurve"/>
      <point x="809" y="991"/>
    </contour>
  </outline>
</glyph>
<glyph name="egrave" format="1">
  <advance width="1233"/>
  <unicode hex="00E8"/>
  <note>
	egrave
  </note>
  <outline>
    <contour>
      <point x="619" y="1297" type="line"/>
      <point x="773" y="1297" type="line"/>
      <point x="492" y="1673" type="line"/>
      <point x="294" y="1673" type="line"/>
    </contour>
    <contour>
      <point x="740" y="-29"/>
      <point x="804" y="-23"/>
      <point x="868" y="-8" type="curve" smooth="yes"/>
      <point x="923" y="4"/>
      <point x="999" y="28"/>
      <point x="1070" y="57" type="curve"/>
      <point x="1070" y="240" type="line"/>
      <point x="998" y="203"/>
      <point x="930" y="174"/>
      <point x="865" y="155" type="curve" smooth="yes"/>
      <point x="802" y="136"/>
      <point x="741" y="127"/>
      <point x="680" y="127" type="curve" smooth="yes"/>
      <point x="559" y="127"/>
      <point x="473" y="163"/>
      <point x="412" y="227" type="curve" smooth="yes"/>
      <point x="348" y="294"/>
      <point x="316" y="388"/>
      <point x="316" y="510" type="curve" smooth="yes"/>
      <point x="316" y="516" type="line"/>
      <point x="1113" y="516" type="line"/>
      <point x="1113" y="606" type="line" smooth="yes"/>
      <point x="1113" y="777"/>
      <point x="1070" y="910"/>
      <point x="990" y="1003" type="curve" smooth="yes"/>
      <point x="910" y="1096"/>
      <point x="798" y="1147"/>
      <point x="649" y="1147" type="curve" smooth="yes"/>
      <point x="498" y="1147"/>
      <point x="364" y="1095"/>
      <point x="267" y="987" type="curve" smooth="yes"/>
      <point x="178" y="887"/>
      <point x="124" y="746"/>
      <point x="124" y="558" type="curve" smooth="yes"/>
      <point x="124" y="375"/>
      <point x="175" y="230"/>
      <point x="271" y="127" type="curve" smooth="yes"/>
      <point x="367" y="24"/>
      <point x="505" y="-29"/>
      <point x="677" y="-29" type="curve" smooth="yes"/>
    </contour>
    <contour>
      <point x="323" y="659" type="line"/>
      <point x="334" y="762"/>
      <point x="368" y="844"/>
      <point x="425" y="903" type="curve" smooth="yes"/>
      <point x="482" y="962"/>
      <point x="555" y="991"/>
      <point x="645" y="991" type="curve" smooth="yes"/>
      <point x="733" y="991"/>
      <point x="805" y="963"/>
      <point x="853" y="907" type="curve" smooth="yes"/>
      <point x="897" y="856"/>
      <point x="926" y="775"/>
      <point x="929" y="660" type="curve"/>
    </contour>
  </outline>
</glyph>
<glyph name="edieresis" format="1">
  <advance width="1233"/>
  <unicode hex="00EB"/>
  <outline>
    <contour>
      <point x="364" y="1350" type="line" name="hr00"/>
      <point x="334" y="1350"/>
      <point x="334" y="1380" type="qcurve"/>
      <point x="334" y="1522" type="line"/>
      <point x="334" y="1552"/>
      <point x="364" y="1552" type="qcurve" name="dv03"/>
      <point x="507" y="1552" type="line"/>
      <point x="537" y="1552"/>
      <point x="537" y="1522" type="qcurve"/>
      <point x="537" y="1380" type="line" name="sh02"/>
      <point x="537" y="1350"/>
      <point x="507" y="1350" type="qcurve"/>
    </contour>
    <contour>
      <point x="756" y="1350" type="line" name="sv01"/>
      <point x="726" y="1350"/>
      <point x="726" y="1380" type="qcurve" name="dh03"/>
      <point x="726" y="1522" type="line"/>
      <point x="726" y="1552"/>
      <point x="756" y="1552" type="qcurve" name="sv02"/>
      <point x="898" y="1552" type="line"/>
      <point x="928" y="1552"/>
      <point x="928" y="1522" type="qcurve"/>
      <point x="928" y="1380" type="line" name="dh04"/>
      <point x="928" y="1350"/>
      <point x="898" y="1350" type="qcurve"/>
    </contour>
    <contour>
      <point x="677" y="-29" type="qcurve" name="dv01"/>
      <point x="548" y="-29"/>
      <point x="343" y="50"/>
      <point x="271" y="127" type="qcurve"/>
      <point x="199" y="204"/>
      <point x="124" y="421"/>
      <point x="124" y="558" type="qcurve" name="dh01"/>
      <point x="124" y="699"/>
      <point x="200" y="912"/>
      <point x="267" y="987" type="qcurve"/>
      <point x="340" y="1068"/>
      <point x="536" y="1147"/>
      <point x="649" y="1147" type="qcurve" name="dv05"/>
      <point x="761" y="1147"/>
      <point x="930" y="1073"/>
      <point x="990" y="1003" type="qcurve"/>
      <point x="1050" y="933"/>
      <point x="1113" y="734"/>
      <point x="1113" y="606" type="qcurve" name="sh03"/>
      <point x="1113" y="516" type="line"/>
      <point x="316" y="516" type="line" name="dh02"/>
      <point x="316" y="510" type="line"/>
      <point x="316" y="327"/>
      <point x="412" y="227" type="qcurve"/>
      <point x="458" y="179"/>
      <point x="589" y="127"/>
      <point x="680" y="127" type="qcurve" name="dv02"/>
      <point x="771" y="127"/>
      <point x="865" y="155" type="qcurve"/>
      <point x="962" y="184"/>
      <point x="1070" y="240" type="qcurve" name="ih01"/>
      <point x="1070" y="57" type="line"/>
      <point x="1017" y="35"/>
      <point x="909" y="1"/>
      <point x="868" y="-8" type="qcurve"/>
      <point x="820" y="-19"/>
      <point x="724" y="-29"/>
    </contour>
    <contour>
      <point x="929" y="660" type="line" name="sh04"/>
      <point x="927" y="746"/>
      <point x="886" y="869"/>
      <point x="853" y="907" type="qcurve"/>
      <point x="817" y="949"/>
      <point x="711" y="991"/>
      <point x="645" y="991" type="qcurve" name="dv04"/>
      <point x="510" y="991"/>
      <point x="425" y="903" type="qcurve"/>
      <point x="339" y="814"/>
      <point x="323" y="659" type="qcurve" name="sh01"/>
    </contour>
  </outline>
</glyph>
<glyph name="igrave" format="1">
  <advance width="1233"/>
  <unicode hex="00EC"/>
  <outline>
    <contour>
      <point x="218" y="1647" type="line" name="av01"/>
      <point x="416" y="1647" type="line"/>
      <point x="697" y="1271" type="line" name="iv01"/>
      <point x="543" y="1271" type="line"/>
    </contour>
    <contour>
      <point x="859" y="-8" type="line" name="ab01"/>
      <point x="779" y="-8"/>
      <point x="652" y="42"/>
      <point x="604" y="98" type="qcurve"/>
      <point x="513" y="204"/>
      <point x="513" y="398" type="qcurve" name="sh01"/>
      <point x="513" y="976" type="line" name="sv01"/>
      <point x="268" y="976" type="line" name="hr01"/>
      <point x="268" y="1120" type="line" name="dh01"/>
      <point x="697" y="1120" type="line" name="dh02"/>
      <point x="697" y="398" type="line"/>
      <point x="697" y="273"/>
      <point x="743" y="211" type="qcurve"/>
      <point x="767" y="178"/>
      <point x="834" y="148"/>
      <point x="877" y="148" type="qcurve" name="sv02"/>
      <point x="1092" y="148" type="line"/>
      <point x="1092" y="-8" type="line"/>
    </contour>
  </outline>
</glyph>
<glyph name="icircumflex" format="1">
  <advance width="1233"/>
  <unicode hex="00EE"/>
  <outline>
    <contour>
      <point x="514" y="1648" type="line" name="av01"/>
      <point x="661" y="1648" type="line"/>
      <point x="907" y="1272" type="line" name="iv01"/>
      <point x="768" y="1272" type="line"/>
      <point x="587" y="1517" type="line" name="ih01"/>
      <point x="407" y="1272" type="line"/>
      <point x="268" y="1272" type="line" name="iv02"/>
    </contour>
    <contour>
      <point x="859" y="-8" type="line" name="ab01"/>
      <point x="779" y="-8"/>
      <point x="652" y="42"/>
      <point x="604" y="98" type="qcurve" name="hr01"/>
      <point x="513" y="204"/>
      <point x="513" y="398" type="qcurve" name="sh01"/>
      <point x="513" y="976" type="line" name="sv01"/>
      <point x="268" y="976" type="line"/>
      <point x="268" y="1120" type="line" name="hr02"/>
      <point x="697" y="1120" type="line" name="dh01"/>
      <point x="697" y="398" type="line"/>
      <point x="697" y="273"/>
      <point x="743" y="211" type="qcurve"/>
      <point x="767" y="178"/>
      <point x="834" y="148"/>
      <point x="877" y="148" type="qcurve" name="sv02"/>
      <point x="1092" y="148" type="line"/>
      <point x="1092" y="-8" type="line"/>
    </contour>
  </outline>
</glyph>
<glyph name="ograve" format="1">
  <advance width="1233"/>
  <unicode hex="00F2"/>
  <note>
	ograve
  </note>
  <outline>
    <contour>
      <point x="604" y="1297" type="line"/>
      <point x="758" y="1297" type="line"/>
      <point x="477" y="1673" type="line"/>
      <point x="279" y="1673" type="line"/>
    </contour>
    <contour>
      <point x="773" y="-29"/>
      <point x="893" y="22"/>
      <point x="973" y="121" type="curve" smooth="yes"/>
      <point x="1056" y="221"/>
      <point x="1096" y="370"/>
      <point x="1096" y="561" type="curve" smooth="yes"/>
      <point x="1096" y="750"/>
      <point x="1055" y="895"/>
      <point x="973" y="996" type="curve" smooth="yes"/>
      <point x="893" y="1095"/>
      <point x="776" y="1147"/>
      <point x="616" y="1147" type="curve" smooth="yes"/>
      <point x="461" y="1147"/>
      <point x="342" y="1097"/>
      <point x="260" y="996" type="curve" smooth="yes"/>
      <point x="178" y="895"/>
      <point x="137" y="749"/>
      <point x="137" y="560" type="curve" smooth="yes"/>
      <point x="137" y="373"/>
      <point x="176" y="225"/>
      <point x="260" y="121" type="curve" smooth="yes"/>
      <point x="343" y="21"/>
      <point x="463" y="-29"/>
      <point x="616" y="-29" type="curve" smooth="yes"/>
    </contour>
    <contour>
      <point x="523" y="127"/>
      <point x="452" y="164"/>
      <point x="404" y="237" type="curve" smooth="yes"/>
      <point x="356" y="310"/>
      <point x="332" y="417"/>
      <point x="332" y="559" type="curve" smooth="yes"/>
      <point x="332" y="701"/>
      <point x="356" y="809"/>
      <point x="404" y="882" type="curve" smooth="yes"/>
      <point x="452" y="955"/>
      <point x="523" y="991"/>
      <point x="616" y="991" type="curve" smooth="yes"/>
      <point x="710" y="991"/>
      <point x="781" y="955"/>
      <point x="829" y="882" type="curve" smooth="yes"/>
      <point x="877" y="809"/>
      <point x="901" y="701"/>
      <point x="901" y="559" type="curve" smooth="yes"/>
      <point x="901" y="417"/>
      <point x="877" y="310"/>
      <point x="829" y="237" type="curve" smooth="yes"/>
      <point x="781" y="164"/>
      <point x="710" y="127"/>
      <point x="616" y="127" type="curve" smooth="yes"/>
    </contour>
  </outline>
</glyph>
<glyph name="odieresis" format="1">
  <advance width="1233"/>
  <unicode hex="00F6"/>
  <note>
	odieresis
  </note>
  <outline>
    <contour>
      <point x="492" y="1350" type="line" smooth="yes"/>
      <point x="512" y="1350"/>
      <point x="522" y="1360"/>
      <point x="522" y="1380" type="curve" smooth="yes"/>
      <point x="522" y="1522" type="line" smooth="yes"/>
      <point x="522" y="1542"/>
      <point x="512" y="1552"/>
      <point x="492" y="1552" type="curve" smooth="yes"/>
      <point x="349" y="1552" type="line" smooth="yes"/>
      <point x="329" y="1552"/>
      <point x="319" y="1542"/>
      <point x="319" y="1522" type="curve" smooth="yes"/>
      <point x="319" y="1380" type="line" smooth="yes"/>
      <point x="319" y="1360"/>
      <point x="329" y="1350"/>
      <point x="349" y="1350" type="curve" smooth="yes"/>
    </contour>
    <contour>
      <point x="883" y="1350" type="line" smooth="yes"/>
      <point x="903" y="1350"/>
      <point x="913" y="1360"/>
      <point x="913" y="1380" type="curve" smooth="yes"/>
      <point x="913" y="1522" type="line" smooth="yes"/>
      <point x="913" y="1542"/>
      <point x="903" y="1552"/>
      <point x="883" y="1552" type="curve" smooth="yes"/>
      <point x="741" y="1552" type="line" smooth="yes"/>
      <point x="721" y="1552"/>
      <point x="711" y="1542"/>
      <point x="711" y="1522" type="curve" smooth="yes"/>
      <point x="711" y="1380" type="line" smooth="yes"/>
      <point x="711" y="1360"/>
      <point x="721" y="1350"/>
      <point x="741" y="1350" type="curve" smooth="yes"/>
    </contour>
    <contour>
      <point x="773" y="-29"/>
      <point x="893" y="22"/>
      <point x="973" y="121" type="curve" smooth="yes"/>
      <point x="1056" y="221"/>
      <point x="1096" y="370"/>
      <point x="1096" y="561" type="curve" smooth="yes"/>
      <point x="1096" y="750"/>
      <point x="1055" y="895"/>
      <point x="973" y="996" type="curve" smooth="yes"/>
      <point x="893" y="1095"/>
      <point x="776" y="1147"/>
      <point x="616" y="1147" type="curve" smooth="yes"/>
      <point x="461" y="1147"/>
      <point x="342" y="1097"/>
      <point x="260" y="996" type="curve" smooth="yes"/>
      <point x="178" y="895"/>
      <point x="137" y="749"/>
      <point x="137" y="560" type="curve" smooth="yes"/>
      <point x="137" y="373"/>
      <point x="176" y="225"/>
      <point x="260" y="121" type="curve" smooth="yes"/>
      <point x="343" y="21"/>
      <point x="463" y="-29"/>
      <point x="616" y="-29" type="curve" smooth="yes"/>
    </contour>
    <contour>
      <point x="523" y="127"/>
      <point x="452" y="164"/>
      <point x="404" y="237" type="curve" smooth="yes"/>
      <point x="356" y="310"/>
      <point x="332" y="417"/>
      <point x="332" y="559" type="curve" smooth="yes"/>
      <point x="332" y="701"/>
      <point x="356" y="809"/>
      <point x="404" y="882" type="curve" smooth="yes"/>
      <point x="452" y="955"/>
      <point x="523" y="991"/>
      <point x="616" y="991" type="curve" smooth="yes"/>
      <point x="710" y="991"/>
      <point x="781" y="955"/>
      <point x="829" y="882" type="curve" smooth="yes"/>
      <point x="877" y="809"/>
      <point x="901" y="701"/>
      <point x="901" y="559" type="curve" smooth="yes"/>
      <point x="901" y="417"/>
      <point x="877" y="310"/>
      <point x="829" y="237" type="curve" smooth="yes"/>
      <point x="781" y="164"/>
      <point x="710" y="127"/>
      <point x="616" y="127" type="curve" smooth="yes"/>
    </contour>
  </outline>
</glyph>
<glyph name="oslash" format="1">
  <advance width="1233"/>
  <unicode hex="00F8"/>
  <outline>
    <contour>
      <point x="47" y="-20" type="line" name="hr00"/>
      <point x="217" y="180" type="line"/>
      <point x="194" y="222"/>
      <point x="168" y="302"/>
      <point x="158" y="349" type="qcurve"/>
      <point x="147" y="400"/>
      <point x="137" y="500"/>
      <point x="137" y="559" type="qcurve" name="sh01"/>
      <point x="137" y="844"/>
      <point x="260" y="996" type="qcurve"/>
      <point x="383" y="1147"/>
      <point x="615" y="1147" type="qcurve" name="dv04"/>
      <point x="664" y="1147"/>
      <point x="757" y="1134"/>
      <point x="795" y="1120" type="qcurve"/>
      <point x="832" y="1107"/>
      <point x="903" y="1065"/>
      <point x="934" y="1036" type="qcurve"/>
      <point x="1081" y="1212" type="line" name="av01"/>
      <point x="1174" y="1135" type="line"/>
      <point x="1010" y="940" type="line"/>
      <point x="1051" y="875"/>
      <point x="1074" y="778" type="qcurve"/>
      <point x="1085" y="729"/>
      <point x="1096" y="620"/>
      <point x="1096" y="561" type="qcurve" name="sh02"/>
      <point x="1096" y="418"/>
      <point x="1035" y="196"/>
      <point x="973" y="121" type="qcurve"/>
      <point x="850" y="-29"/>
      <point x="615" y="-29" type="qcurve" name="dv01"/>
      <point x="560" y="-29"/>
      <point x="473" y="-13"/>
      <point x="435" y="1" type="qcurve"/>
      <point x="394" y="16"/>
      <point x="329" y="58"/>
      <point x="299" y="90" type="qcurve"/>
      <point x="139" y="-96" type="line" name="sh03"/>
    </contour>
    <contour>
      <point x="817" y="897" type="line"/>
      <point x="782" y="946"/>
      <point x="733" y="968" type="qcurve"/>
      <point x="682" y="991"/>
      <point x="616" y="991" type="qcurve" name="dv03"/>
      <point x="477" y="991"/>
      <point x="403" y="884" type="qcurve"/>
      <point x="367" y="832"/>
      <point x="328" y="682"/>
      <point x="328" y="579" type="qcurve" name="sh04"/>
      <point x="328" y="551"/>
      <point x="331" y="498"/>
      <point x="335" y="469" type="qcurve" name="sh05"/>
      <point x="342" y="410"/>
      <point x="356" y="340" type="qcurve" name="ih01"/>
    </contour>
    <contour>
      <point x="615" y="127" type="qcurve" name="dv02"/>
      <point x="757" y="127"/>
      <point x="829" y="237" type="qcurve"/>
      <point x="865" y="292"/>
      <point x="901" y="453"/>
      <point x="901" y="556" type="qcurve" name="ah01"/>
      <point x="901" y="586"/>
      <point x="898" y="639"/>
      <point x="895" y="667" type="qcurve" name="sh06"/>
      <point x="893" y="688"/>
      <point x="885" y="744"/>
      <point x="877" y="780" type="qcurve" name="ih02"/>
      <point x="414" y="221" type="line"/>
      <point x="436" y="193"/>
      <point x="477" y="162"/>
      <point x="501" y="151" type="qcurve"/>
      <point x="526" y="140"/>
      <point x="580" y="127"/>
    </contour>
  </outline>
</glyph>
<glyph name="ucircumflex" format="1">
  <advance width="1233"/>
  <unicode hex="00FB"/>
  <outline>
    <contour>
      <point x="543" y="1644" type="line" name="av01"/>
      <point x="690" y="1644" type="line" name="hr01"/>
      <point x="936" y="1268" type="line" name="ih01"/>
      <point x="797" y="1268" type="line"/>
      <point x="616" y="1513" type="line" name="ih02"/>
      <point x="436" y="1268" type="line"/>
      <point x="297" y="1268" type="line" name="ih03"/>
    </contour>
    <contour>
      <point x="534" y="-29" type="qcurve" name="dv01"/>
      <point x="363" y="-29"/>
      <point x="279" y="84" type="qcurve"/>
      <point x="195" y="196"/>
      <point x="195" y="424" type="qcurve" name="hr02"/>
      <point x="195" y="1118" type="line"/>
      <point x="379" y="1118" type="line"/>
      <point x="379" y="424" type="line" name="sh02"/>
      <point x="379" y="272"/>
      <point x="433" y="202" type="qcurve"/>
      <point x="459" y="168"/>
      <point x="538" y="131"/>
      <point x="598" y="131" type="qcurve" name="dv02"/>
      <point x="728" y="131"/>
      <point x="797" y="223" type="qcurve"/>
      <point x="866" y="314"/>
      <point x="866" y="485" type="qcurve" name="sh03"/>
      <point x="866" y="1118" type="line"/>
      <point x="1051" y="1118" type="line"/>
      <point x="1051" y="0" type="line" name="sh01"/>
      <point x="884" y="0" type="line"/>
      <point x="866" y="168" type="line" name="ah01"/>
      <point x="816" y="70"/>
      <point x="733" y="21" type="qcurve"/>
      <point x="648" y="-29"/>
    </contour>
  </outline>
</glyph>
<glyph name="udieresis" format="1">
  <advance width="1233"/>
  <unicode hex="00FC"/>
  <outline>
    <contour>
      <point x="349" y="1350" type="line" name="dv03"/>
      <point x="319" y="1350"/>
      <point x="319" y="1380" type="qcurve" name="hr01"/>
      <point x="319" y="1522" type="line"/>
      <point x="319" y="1552"/>
      <point x="349" y="1552" type="qcurve" name="dv04"/>
      <point x="492" y="1552" type="line"/>
      <point x="522" y="1552"/>
      <point x="522" y="1522" type="qcurve"/>
      <point x="522" y="1380" type="line" name="sh01"/>
      <point x="522" y="1350"/>
      <point x="492" y="1350" type="qcurve"/>
    </contour>
    <contour>
      <point x="741" y="1350" type="line" name="sv01"/>
      <point x="711" y="1350"/>
      <point x="711" y="1380" type="qcurve" name="hr02"/>
      <point x="711" y="1522" type="line"/>
      <point x="711" y="1552"/>
      <point x="741" y="1552" type="qcurve" name="sv02"/>
      <point x="883" y="1552" type="line"/>
      <point x="913" y="1552"/>
      <point x="913" y="1522" type="qcurve"/>
      <point x="913" y="1380" type="line" name="dh03"/>
      <point x="913" y="1350"/>
      <point x="883" y="1350" type="qcurve"/>
    </contour>
    <contour>
      <point x="534" y="-29" type="qcurve" name="dv01"/>
      <point x="363" y="-29"/>
      <point x="279" y="84" type="qcurve"/>
      <point x="195" y="196"/>
      <point x="195" y="424" type="qcurve" name="dh01"/>
      <point x="195" y="1118" type="line"/>
      <point x="379" y="1118" type="line"/>
      <point x="379" y="424" type="line" name="dh02"/>
      <point x="379" y="272"/>
      <point x="433" y="202" type="qcurve"/>
      <point x="459" y="168"/>
      <point x="538" y="131"/>
      <point x="598" y="131" type="qcurve" name="dv02"/>
      <point x="728" y="131"/>
      <point x="797" y="223" type="qcurve"/>
      <point x="866" y="314"/>
      <point x="866" y="485" type="qcurve" name="sh02"/>
      <point x="866" y="1118" type="line" name="hr03"/>
      <point x="1051" y="1118" type="line"/>
      <point x="1051" y="0" type="line" name="sh03"/>
      <point x="884" y="0" type="line"/>
      <point x="866" y="168" type="line" name="ih01"/>
      <point x="816" y="70"/>
      <point x="733" y="21" type="qcurve"/>
      <point x="648" y="-29"/>
    </contour>
  </outline>
</glyph>
<glyph name="yacute" format="1">
  <advance width="1233"/>
  <unicode hex="00FD"/>
  <outline>
    <contour>
      <point x="756" y="1646" type="line" name="hr00"/>
      <point x="954" y="1646" type="line"/>
      <point x="629" y="1270" type="line"/>
      <point x="475" y="1270" type="line" name="iv01"/>
    </contour>
    <contour>
      <point x="184" y="-272" type="line" name="sv01"/>
      <point x="293" y="-272" type="line"/>
      <point x="338" y="-272"/>
      <point x="400" y="-245"/>
      <point x="420" y="-225" type="qcurve"/>
      <point x="442" y="-202"/>
      <point x="498" y="-90"/>
      <point x="537" y="18" type="qcurve"/>
      <point x="104" y="1120" type="line" name="at01"/>
      <point x="299" y="1120" type="line"/>
      <point x="631" y="244" type="line" name="iv02"/>
      <point x="958" y="1120" type="line" name="at02"/>
      <point x="1153" y="1120" type="line" name="iv03"/>
      <point x="858" y="360" type="line"/>
      <point x="825" y="276"/>
      <point x="786" y="174"/>
      <point x="762" y="111"/>
      <point x="748" y="73"/>
      <point x="741" y="52" type="qcurve"/>
      <point x="716" y="-18"/>
      <point x="676" y="-121"/>
      <point x="643" y="-196"/>
      <point x="616" y="-248"/>
      <point x="606" y="-267" type="qcurve"/>
      <point x="575" y="-321"/>
      <point x="523" y="-372"/>
      <point x="494" y="-388" type="qcurve"/>
      <point x="459" y="-407"/>
      <point x="373" y="-426"/>
      <point x="332" y="-426" type="qcurve" name="ab01"/>
      <point x="184" y="-426" type="line"/>
    </contour>
  </outline>
</glyph>
<glyph name="Amacron" format="1">
  <advance width="1233"/>
  <unicode hex="0100"/>
  <outline>
    <contour>
      <point x="317" y="1800" type="line" name="hr00"/>
      <point x="915" y="1800" type="line" name="dv02"/>
      <point x="915" y="1652" type="line" name="dv01"/>
      <point x="317" y="1652" type="line"/>
    </contour>
    <contour>
      <point x="494" y="1493" type="line" name="at01"/>
      <point x="739" y="1493" type="line"/>
      <point x="1196" y="0" type="line" name="ab01"/>
      <point x="987" y="0" type="line"/>
      <point x="877" y="389" type="line" name="dv03"/>
      <point x="354" y="389" type="line"/>
      <point x="246" y="0" type="line" name="ab02"/>
      <point x="37" y="0" type="line"/>
    </contour>
    <contour>
      <point x="829" y="551" type="line" name="dv04"/>
      <point x="616" y="1315" type="line"/>
      <point x="403" y="551" type="line"/>
    </contour>
  </outline>
</glyph>
<glyph name="Abreve" format="1">
  <advance width="1233"/>
  <unicode hex="0102"/>
  <outline>
    <contour>
      <point x="616" y="1589" type="qcurve" name="dv01"/>
      <point x="326" y="1589"/>
      <point x="303" y="1831" type="qcurve"/>
      <point x="422" y="1831" type="line" name="dv02"/>
      <point x="434" y="1777"/>
      <point x="533" y="1720"/>
      <point x="618" y="1720" type="qcurve" name="sv01"/>
      <point x="781" y="1720"/>
      <point x="811" y="1831" type="qcurve" name="sv02"/>
      <point x="930" y="1831" type="line"/>
      <point x="919" y="1711"/>
      <point x="761" y="1589"/>
    </contour>
    <contour>
      <point x="494" y="1493" type="line" name="at01"/>
      <point x="739" y="1493" type="line"/>
      <point x="1196" y="0" type="line" name="ab01"/>
      <point x="987" y="0" type="line"/>
      <point x="877" y="389" type="line" name="dv03"/>
      <point x="354" y="389" type="line"/>
      <point x="246" y="0" type="line" name="ab02"/>
      <point x="37" y="0" type="line"/>
    </contour>
    <contour>
      <point x="829" y="551" type="line" name="hr01"/>
      <point x="616" y="1315" type="line" name="hr02"/>
      <point x="403" y="551" type="line"/>
    </contour>
  </outline>
</glyph>
<glyph name="aogonek" format="1">
  <advance width="1233"/>
  <unicode hex="0105"/>
  <outline>
    <contour>
      <point x="1078" y="-269" type="qcurve" name="dv02"/>
      <point x="1140" y="-269"/>
      <point x="1202" y="-239" type="qcurve" name="dh04"/>
      <point x="1202" y="-372" type="line"/>
      <point x="1160" y="-383"/>
      <point x="1096" y="-392"/>
      <point x="1059" y="-392" type="qcurve" name="dv01"/>
      <point x="947" y="-392"/>
      <point x="829" y="-307"/>
      <point x="829" y="-218" type="qcurve" name="dh03"/>
      <point x="829" y="-193"/>
      <point x="840" y="-145"/>
      <point x="864" y="-92"/>
      <point x="905" y="-34"/>
      <point x="935" y="1" type="qcurve" name="ab01"/>
      <point x="930" y="14"/>
      <point x="916" y="60"/>
      <point x="909" y="87" type="qcurve"/>
      <point x="904" y="109"/>
      <point x="895" y="154"/>
      <point x="893" y="170" type="qcurve" name="ih01"/>
      <point x="864" y="120"/>
      <point x="773" y="42"/>
      <point x="729" y="19" type="qcurve"/>
      <point x="681" y="-6"/>
      <point x="574" y="-29"/>
      <point x="513" y="-29" type="qcurve" name="hr01"/>
      <point x="339" y="-29"/>
      <point x="238" y="68" type="qcurve"/>
      <point x="190" y="114"/>
      <point x="136" y="239"/>
      <point x="136" y="327" type="qcurve" name="dh01"/>
      <point x="136" y="512"/>
      <point x="262" y="610" type="qcurve"/>
      <point x="386" y="707"/>
      <point x="630" y="707" type="qcurve"/>
      <point x="877" y="707" type="line" name="hr02"/>
      <point x="877" y="736" type="line"/>
      <point x="877" y="800"/>
      <point x="843" y="900"/>
      <point x="809" y="931" type="qcurve"/>
      <point x="776" y="961"/>
      <point x="668" y="991"/>
      <point x="596" y="991" type="qcurve" name="dv03"/>
      <point x="501" y="991"/>
      <point x="405" y="964" type="qcurve"/>
      <point x="308" y="937"/>
      <point x="218" y="885" type="qcurve" name="ih02"/>
      <point x="218" y="1069" type="line"/>
      <point x="260" y="1085"/>
      <point x="362" y="1117"/>
      <point x="414" y="1128" type="qcurve"/>
      <point x="505" y="1147"/>
      <point x="597" y="1147" type="qcurve" name="dv04"/>
      <point x="668" y="1147"/>
      <point x="784" y="1126"/>
      <point x="834" y="1105" type="qcurve"/>
      <point x="880" y="1085"/>
      <point x="963" y="1024"/>
      <point x="992" y="984" type="qcurve"/>
      <point x="1013" y="955"/>
      <point x="1039" y="891"/>
      <point x="1046" y="860" type="qcurve"/>
      <point x="1062" y="787"/>
      <point x="1062" y="639" type="qcurve" name="sh01"/>
      <point x="1062" y="410" type="line"/>
      <point x="1064" y="352"/>
      <point x="1066" y="264"/>
      <point x="1071" y="226" type="qcurve" name="sh02"/>
      <point x="1076" y="184"/>
      <point x="1089" y="110"/>
      <point x="1094" y="91" type="qcurve"/>
      <point x="1101" y="60"/>
      <point x="1119" y="5"/>
      <point x="1121" y="0" type="qcurve" name="ih03"/>
      <point x="1054" y="0" type="line"/>
      <point x="1007" y="-64"/>
      <point x="968" y="-148"/>
      <point x="968" y="-181" type="qcurve" name="sh03"/>
      <point x="968" y="-223"/>
      <point x="1024" y="-269"/>
    </contour>
    <contour>
      <point x="877" y="563" type="line" name="sh04"/>
      <point x="644" y="563" type="line"/>
      <point x="484" y="563"/>
      <point x="402" y="507" type="qcurve"/>
      <point x="359" y="478"/>
      <point x="320" y="393"/>
      <point x="320" y="337" type="qcurve" name="dh02"/>
      <point x="320" y="285"/>
      <point x="352" y="208"/>
      <point x="381" y="181" type="qcurve" name="hr03"/>
      <point x="410" y="155"/>
      <point x="493" y="125"/>
      <point x="551" y="125" type="qcurve" name="dv05"/>
      <point x="702" y="125"/>
      <point x="789" y="231" type="qcurve"/>
      <point x="877" y="339"/>
      <point x="877" y="522" type="qcurve"/>
    </contour>
  </outline>
</glyph>
<glyph name="Cacute" format="1">
  <advance width="1233"/>
  <unicode hex="0106"/>
  <outline>
    <contour>
      <point x="762" y="1852" type="line" name="sv02"/>
      <point x="948" y="1852" type="line"/>
      <point x="719" y="1588" type="line"/>
      <point x="565" y="1588" type="line"/>
    </contour>
    <contour>
      <point x="742" y="-29" type="qcurve" name="dv01"/>
      <point x="599" y="-29"/>
      <point x="375" y="74"/>
      <point x="297" y="174" type="qcurve"/>
      <point x="218" y="276"/>
      <point x="139" y="563"/>
      <point x="139" y="744" type="qcurve" name="dh01"/>
      <point x="139" y="925"/>
      <point x="218" y="1213"/>
      <point x="298" y="1316" type="qcurve"/>
      <point x="376" y="1416"/>
      <point x="599" y="1520"/>
      <point x="742" y="1520" type="qcurve" name="at01"/>
      <point x="787" y="1520"/>
      <point x="876" y="1510"/>
      <point x="915" y="1500" type="qcurve"/>
      <point x="953" y="1490"/>
      <point x="1035" y="1458"/>
      <point x="1073" y="1438" type="qcurve"/>
      <point x="1073" y="1231" type="line"/>
      <point x="1000" y="1292"/>
      <point x="914" y="1324" type="qcurve"/>
      <point x="871" y="1340"/>
      <point x="786" y="1356"/>
      <point x="741" y="1356" type="qcurve" name="sv01"/>
      <point x="644" y="1356"/>
      <point x="497" y="1280"/>
      <point x="448" y="1204" type="qcurve"/>
      <point x="350" y="1052"/>
      <point x="350" y="745" type="qcurve" name="dh02"/>
      <point x="350" y="439"/>
      <point x="448" y="287" type="qcurve"/>
      <point x="495" y="215"/>
      <point x="640" y="135"/>
      <point x="742" y="135" type="qcurve" name="dv02"/>
      <point x="831" y="135"/>
      <point x="916" y="167" type="qcurve"/>
      <point x="999" y="198"/>
      <point x="1073" y="260" type="qcurve"/>
      <point x="1073" y="53" type="line"/>
      <point x="995" y="12"/>
      <point x="915" y="-9" type="qcurve" name="hr01"/>
      <point x="876" y="-19"/>
      <point x="787" y="-29"/>
    </contour>
  </outline>
</glyph>
<glyph name="ccircumflex" format="1">
  <advance width="1233"/>
  <unicode hex="0109"/>
  <outline>
    <contour>
      <point x="578" y="1673" type="line" name="hr00"/>
      <point x="725" y="1673" type="line"/>
      <point x="971" y="1297" type="line"/>
      <point x="832" y="1297" type="line"/>
      <point x="651" y="1542" type="line"/>
      <point x="471" y="1297" type="line"/>
      <point x="332" y="1297" type="line"/>
    </contour>
    <contour>
      <point x="310" y="127" type="qcurve"/>
      <point x="164" y="285"/>
      <point x="164" y="559" type="qcurve"/>
      <point x="164" y="742"/>
      <point x="297" y="1007"/>
      <point x="544" y="1147"/>
      <point x="713" y="1147" type="qcurve"/>
      <point x="802" y="1147"/>
      <point x="947" y="1107"/>
      <point x="1030" y="1061" type="qcurve"/>
      <point x="1030" y="868" type="line"/>
      <point x="955" y="934"/>
      <point x="809" y="991"/>
      <point x="718" y="991" type="qcurve"/>
      <point x="544" y="991"/>
      <point x="358" y="767"/>
      <point x="358" y="560" type="qcurve"/>
      <point x="358" y="351"/>
      <point x="546" y="127"/>
      <point x="721" y="127" type="qcurve"/>
      <point x="816" y="127"/>
      <point x="889" y="157" type="qcurve"/>
      <point x="930" y="172"/>
      <point x="995" y="215"/>
      <point x="1030" y="248" type="qcurve"/>
      <point x="1030" y="57" type="line"/>
      <point x="962" y="16"/>
      <point x="800" y="-29"/>
      <point x="712" y="-29" type="qcurve"/>
      <point x="586" y="-29"/>
      <point x="382" y="50"/>
    </contour>
  </outline>
</glyph>
<glyph name="cdotaccent" format="1">
  <advance width="1233"/>
  <unicode hex="010B"/>
  <note>
	cdotaccent
  </note>
  <outline>
    <contour>
      <point x="732" y="1348" type="line" smooth="yes"/>
      <point x="752" y="1348"/>
      <point x="762" y="1358"/>
      <point x="762" y="1378" type="curve" smooth="yes"/>
      <point x="762" y="1522" type="line" smooth="yes"/>
      <point x="762" y="1542"/>
      <point x="752" y="1552"/>
      <point x="732" y="1552" type="curve" smooth="yes"/>
      <point x="587" y="1552" type="line" smooth="yes"/>
      <point x="567" y="1552"/>
      <point x="557" y="1542"/>
      <point x="557" y="1522" type="curve" smooth="yes"/>
      <point x="557" y="1378" type="line" smooth="yes"/>
      <point x="557" y="1358"/>
      <point x="567" y="1348"/>
      <point x="587" y="1348" type="curve" smooth="yes"/>
    </contour>
    <contour>
      <point x="826" y="-29"/>
      <point x="931" y="0"/>
      <point x="1030" y="57" type="curve"/>
      <point x="1030" y="248" type="line"/>
      <point x="942" y="164"/>
      <point x="846" y="127"/>
      <point x="717" y="127" type="curve" smooth="yes"/>
      <point x="486" y="127"/>
      <point x="358" y="282"/>
      <point x="358" y="559" type="curve" smooth="yes"/>
      <point x="358" y="838"/>
      <point x="485" y="991"/>
      <point x="717" y="991" type="curve" smooth="yes"/>
      <point x="841" y="991"/>
      <point x="933" y="955"/>
      <point x="1030" y="868" type="curve"/>
      <point x="1030" y="1061" type="line"/>
      <point x="926" y="1121"/>
      <point x="825" y="1147"/>
      <point x="717" y="1147" type="curve" smooth="yes"/>
      <point x="370" y="1147"/>
      <point x="164" y="927"/>
      <point x="164" y="559" type="curve" smooth="yes"/>
      <point x="164" y="191"/>
      <point x="370" y="-29"/>
      <point x="717" y="-29" type="curve" smooth="yes"/>
    </contour>
  </outline>
</glyph>
<glyph name="ccaron" format="1">
  <advance width="1233"/>
  <unicode hex="010D"/>
  <note>
	ccaron
  </note>
  <outline>
    <contour>
      <point x="602" y="1297" type="line"/>
      <point x="749" y="1297" type="line"/>
      <point x="995" y="1673" type="line"/>
      <point x="856" y="1673" type="line"/>
      <point x="675" y="1428" type="line"/>
      <point x="495" y="1673" type="line"/>
      <point x="356" y="1673" type="line"/>
    </contour>
    <contour>
      <point x="776" y="-29"/>
      <point x="831" y="-21"/>
      <point x="878" y="-8" type="curve" smooth="yes"/>
      <point x="929" y="7"/>
      <point x="985" y="30"/>
      <point x="1030" y="57" type="curve"/>
      <point x="1030" y="248" type="line"/>
      <point x="989" y="209"/>
      <point x="949" y="180"/>
      <point x="889" y="157" type="curve" smooth="yes"/>
      <point x="842" y="138"/>
      <point x="788" y="127"/>
      <point x="721" y="127" type="curve" smooth="yes"/>
      <point x="604" y="127"/>
      <point x="514" y="165"/>
      <point x="451" y="240" type="curve" smooth="yes"/>
      <point x="384" y="320"/>
      <point x="358" y="432"/>
      <point x="358" y="560" type="curve" smooth="yes"/>
      <point x="358" y="697"/>
      <point x="389" y="804"/>
      <point x="451" y="879" type="curve" smooth="yes"/>
      <point x="513" y="954"/>
      <point x="602" y="991"/>
      <point x="718" y="991" type="curve" smooth="yes"/>
      <point x="779" y="991"/>
      <point x="834" y="981"/>
      <point x="884" y="962" type="curve" smooth="yes"/>
      <point x="933" y="943"/>
      <point x="981" y="911"/>
      <point x="1030" y="868" type="curve"/>
      <point x="1030" y="1061" type="line"/>
      <point x="977" y="1090"/>
      <point x="926" y="1112"/>
      <point x="875" y="1126" type="curve" smooth="yes"/>
      <point x="824" y="1141"/>
      <point x="774" y="1147"/>
      <point x="713" y="1147" type="curve" smooth="yes"/>
      <point x="546" y="1147"/>
      <point x="410" y="1096"/>
      <point x="311" y="992" type="curve" smooth="yes"/>
      <point x="218" y="893"/>
      <point x="164" y="750"/>
      <point x="164" y="559" type="curve" smooth="yes"/>
      <point x="164" y="376"/>
      <point x="214" y="230"/>
      <point x="310" y="127" type="curve" smooth="yes"/>
      <point x="406" y="24"/>
      <point x="545" y="-29"/>
      <point x="712" y="-29" type="curve" smooth="yes"/>
    </contour>
  </outline>
</glyph>
<glyph name="Dcaron" format="1">
  <advance width="1233"/>
  <unicode hex="010E"/>
  <outline>
    <contour>
      <point x="233" y="1852" type="line" name="hr00"/>
      <point x="373" y="1852" type="line"/>
      <point x="538" y="1674" type="line"/>
      <point x="704" y="1852" type="line" name="av01"/>
      <point x="844" y="1852" type="line" name="ih01"/>
      <point x="633" y="1586" type="line"/>
      <point x="444" y="1586" type="line"/>
    </contour>
    <contour>
      <point x="137" y="1493" type="line" name="sh01"/>
      <point x="440" y="1493" type="line"/>
      <point x="611" y="1493"/>
      <point x="862" y="1403"/>
      <point x="1026" y="1219"/>
      <point x="1106" y="938"/>
      <point x="1106" y="747" type="qcurve" name="sh03"/>
      <point x="1106" y="555"/>
      <point x="1026" y="274"/>
      <point x="862" y="90"/>
      <point x="611" y="0"/>
      <point x="440" y="0" type="qcurve" name="ab01"/>
      <point x="137" y="0" type="line"/>
    </contour>
    <contour>
      <point x="436" y="166" type="line" name="sv01"/>
      <point x="564" y="166"/>
      <point x="739" y="224"/>
      <point x="846" y="359"/>
      <point x="893" y="582"/>
      <point x="893" y="746" type="qcurve" name="ah01"/>
      <point x="893" y="911"/>
      <point x="846" y="1134"/>
      <point x="738" y="1269"/>
      <point x="563" y="1327"/>
      <point x="436" y="1327" type="qcurve" name="sv02"/>
      <point x="340" y="1327" type="line" name="sh02"/>
      <point x="340" y="166" type="line"/>
    </contour>
  </outline>
</glyph>
<glyph name="dcaron" format="1">
  <advance width="1233"/>
  <unicode hex="010F"/>
  <outline>
    <contour>
      <point x="1114" y="1557" type="line" name="at01"/>
      <point x="1312" y="1557" type="line"/>
      <point x="1199" y="1181" type="line" name="sv01"/>
      <point x="1045" y="1181" type="line"/>
    </contour>
    <contour>
      <point x="526" y="-29" type="qcurve" name="sv03"/>
      <point x="426" y="-29"/>
      <point x="266" y="52"/>
      <point x="153" y="205"/>
      <point x="93" y="423"/>
      <point x="93" y="561" type="qcurve" name="sh01"/>
      <point x="93" y="698"/>
      <point x="154" y="916"/>
      <point x="266" y="1067"/>
      <point x="427" y="1147"/>
      <point x="527" y="1147" type="qcurve" name="dv02"/>
      <point x="631" y="1147"/>
      <point x="783" y="1061"/>
      <point x="828" y="977" type="qcurve" name="hr01"/>
      <point x="828" y="1556" type="line" name="ah01"/>
      <point x="1012" y="1556" type="line" name="sh02"/>
      <point x="1012" y="0" type="line" name="ab01"/>
      <point x="846" y="0" type="line"/>
      <point x="828" y="141" type="line" name="sh03"/>
      <point x="782" y="57"/>
      <point x="629" y="-29"/>
    </contour>
    <contour>
      <point x="556" y="127" type="qcurve" name="sv02"/>
      <point x="690" y="127"/>
      <point x="828" y="345"/>
      <point x="828" y="559" type="qcurve" name="hr02"/>
      <point x="828" y="773"/>
      <point x="690" y="991"/>
      <point x="556" y="991" type="qcurve" name="dv01"/>
      <point x="422" y="991"/>
      <point x="287" y="774"/>
      <point x="287" y="559" type="qcurve" name="sh04"/>
      <point x="287" y="344"/>
      <point x="422" y="127"/>
    </contour>
  </outline>
</glyph>
<glyph name="edotaccent" format="1">
  <advance width="1233"/>
  <unicode hex="0117"/>
  <outline>
    <contour>
      <point x="558" y="1348" type="line" name="hr00"/>
      <point x="528" y="1348"/>
      <point x="528" y="1378" type="qcurve" name="dh03"/>
      <point x="528" y="1522" type="line"/>
      <point x="528" y="1552"/>
      <point x="558" y="1552" type="qcurve" name="dv03"/>
      <point x="703" y="1552" type="line"/>
      <point x="733" y="1552"/>
      <point x="733" y="1522" type="qcurve"/>
      <point x="733" y="1378" type="line" name="dh04"/>
      <point x="733" y="1348"/>
      <point x="703" y="1348" type="qcurve"/>
    </contour>
    <contour>
      <point x="677" y="-29" type="qcurve" name="dv01"/>
      <point x="547" y="-29"/>
      <point x="342" y="52"/>
      <point x="199" y="204"/>
      <point x="124" y="420"/>
      <point x="124" y="555" type="qcurve" name="dh01"/>
      <point x="124" y="690"/>
      <point x="199" y="909"/>
      <point x="336" y="1064"/>
      <point x="528" y="1147"/>
      <point x="645" y="1147" type="qcurve" name="dv05"/>
      <point x="756" y="1147"/>
      <point x="930" y="1072"/>
      <point x="1050" y="932"/>
      <point x="1113" y="732"/>
      <point x="1113" y="606" type="qcurve" name="dh06"/>
      <point x="1113" y="516" type="line"/>
      <point x="316" y="516" type="line" name="dh02"/>
      <point x="316" y="510" type="line"/>
      <point x="316" y="418"/>
      <point x="365" y="276"/>
      <point x="458" y="178"/>
      <point x="594" y="127"/>
      <point x="680" y="127" type="qcurve" name="dv02"/>
      <point x="770" y="127"/>
      <point x="961" y="183"/>
      <point x="1070" y="240" type="qcurve" name="ih01"/>
      <point x="1070" y="57" type="line"/>
      <point x="964" y="14"/>
      <point x="771" y="-29"/>
    </contour>
    <contour>
      <point x="929" y="660" type="line" name="dh05"/>
      <point x="926" y="817"/>
      <point x="783" y="991"/>
      <point x="647" y="991" type="qcurve" name="dv04"/>
      <point x="511" y="991"/>
      <point x="340" y="818"/>
      <point x="323" y="659" type="qcurve" name="sh01"/>
    </contour>
  </outline>
</glyph>
<glyph name="Eogonek" format="1">
  <advance width="1233"/>
  <unicode hex="0118"/>
  <outline>
    <contour>
      <point x="952" y="0" type="line" name="ab01"/>
      <point x="904" y="-65"/>
      <point x="864" y="-150"/>
      <point x="864" y="-184" type="qcurve" name="dh04"/>
      <point x="864" y="-226"/>
      <point x="920" y="-272"/>
      <point x="974" y="-272" type="qcurve" name="dv02"/>
      <point x="1036" y="-272"/>
      <point x="1098" y="-242" type="qcurve" name="sh02"/>
      <point x="1098" y="-375" type="line"/>
      <point x="1056" y="-386"/>
      <point x="992" y="-395"/>
      <point x="955" y="-395" type="qcurve" name="dv01"/>
      <point x="843" y="-395"/>
      <point x="725" y="-310"/>
      <point x="725" y="-221" type="qcurve" name="dh03"/>
      <point x="725" y="-196"/>
      <point x="736" y="-147"/>
      <point x="761" y="-95"/>
      <point x="802" y="-35"/>
      <point x="833" y="0" type="qcurve" name="ab02"/>
      <point x="197" y="0" type="line" name="dh01"/>
      <point x="197" y="1493" type="line" name="at01"/>
      <point x="1083" y="1493" type="line"/>
      <point x="1083" y="1323" type="line" name="sv01"/>
      <point x="399" y="1323" type="line" name="sh03"/>
      <point x="399" y="881" type="line"/>
      <point x="1053" y="881" type="line" name="dv04"/>
      <point x="1053" y="711" type="line" name="dv03"/>
      <point x="399" y="711" type="line"/>
      <point x="399" y="170" type="line" name="dh02"/>
      <point x="1102" y="170" type="line" name="hr01"/>
      <point x="1102" y="0" type="line" name="sh01"/>
    </contour>
  </outline>
</glyph>
<glyph name="eogonek" format="1">
  <advance width="1233"/>
  <unicode hex="0119"/>
  <note>
	eogonek
  </note>
  <outline>
    <contour>
      <point x="1113" y="516" type="line"/>
      <point x="1113" y="606" type="line" smooth="yes"/>
      <point x="1113" y="941"/>
      <point x="941" y="1147"/>
      <point x="645" y="1147" type="curve" smooth="yes"/>
      <point x="333" y="1147"/>
      <point x="124" y="916"/>
      <point x="124" y="555" type="curve" smooth="yes"/>
      <point x="124" y="195"/>
      <point x="330" y="-29"/>
      <point x="677" y="-29" type="curve" smooth="yes"/>
      <point x="702" y="-29"/>
      <point x="727" y="-28"/>
      <point x="754" y="-25" type="curve"/>
      <point x="688" y="-104"/>
      <point x="667" y="-162"/>
      <point x="667" y="-221" type="curve" smooth="yes"/>
      <point x="667" y="-340"/>
      <point x="748" y="-395"/>
      <point x="897" y="-395" type="curve" smooth="yes"/>
      <point x="946" y="-395"/>
      <point x="984" y="-390"/>
      <point x="1040" y="-375" type="curve"/>
      <point x="1040" y="-242" type="line"/>
      <point x="999" y="-262"/>
      <point x="957" y="-272"/>
      <point x="916" y="-272" type="curve" smooth="yes"/>
      <point x="844" y="-272"/>
      <point x="806" y="-240"/>
      <point x="806" y="-184" type="curve" smooth="yes"/>
      <point x="806" y="-139"/>
      <point x="830" y="-88"/>
      <point x="893" y="-1" type="curve"/>
      <point x="950" y="14"/>
      <point x="1009" y="32"/>
      <point x="1070" y="57" type="curve"/>
      <point x="1070" y="240" type="line"/>
      <point x="925" y="164"/>
      <point x="800" y="127"/>
      <point x="680" y="127" type="curve" smooth="yes"/>
      <point x="450" y="127"/>
      <point x="316" y="266"/>
      <point x="316" y="510" type="curve" smooth="yes"/>
      <point x="316" y="516" type="line"/>
    </contour>
    <contour>
      <point x="828" y="991"/>
      <point x="925" y="869"/>
      <point x="929" y="660" type="curve"/>
      <point x="323" y="659" type="line"/>
      <point x="346" y="871"/>
      <point x="466" y="991"/>
      <point x="647" y="991" type="curve" smooth="yes"/>
    </contour>
  </outline>
</glyph>
<glyph name="Gcircumflex" format="1">
  <advance width="1233"/>
  <unicode hex="011C"/>
  <outline>
    <contour>
      <point x="582" y="1852" type="line" name="hr00"/>
      <point x="771" y="1852" type="line"/>
      <point x="982" y="1586" type="line"/>
      <point x="842" y="1586" type="line"/>
      <point x="676" y="1764" type="line"/>
      <point x="511" y="1586" type="line"/>
      <point x="371" y="1586" type="line" name="hr01"/>
    </contour>
    <contour>
      <point x="102" y="744" type="qcurve"/>
      <point x="102" y="927"/>
      <point x="183" y="1215"/>
      <point x="262" y="1317" type="qcurve"/>
      <point x="340" y="1417"/>
      <point x="563" y="1520"/>
      <point x="703" y="1520" type="qcurve"/>
      <point x="896" y="1520"/>
      <point x="1053" y="1413" type="qcurve"/>
      <point x="1053" y="1206" type="line"/>
      <point x="976" y="1280"/>
      <point x="887" y="1320" type="qcurve"/>
      <point x="801" y="1356"/>
      <point x="706" y="1356" type="qcurve"/>
      <point x="608" y="1356"/>
      <point x="463" y="1281"/>
      <point x="412" y="1204" type="qcurve"/>
      <point x="362" y="1127"/>
      <point x="313" y="900"/>
      <point x="313" y="743" type="qcurve"/>
      <point x="313" y="587"/>
      <point x="337" y="474" type="qcurve"/>
      <point x="357" y="381"/>
      <point x="429" y="235"/>
      <point x="580" y="135"/>
      <point x="703" y="135" type="qcurve"/>
      <point x="768" y="135"/>
      <point x="875" y="169"/>
      <point x="911" y="199" type="qcurve"/>
      <point x="911" y="600" type="line"/>
      <point x="694" y="600" type="line"/>
      <point x="694" y="766" type="line"/>
      <point x="1104" y="766" type="line"/>
      <point x="1104" y="123" type="line"/>
      <point x="940" y="-29"/>
      <point x="700" y="-29" type="qcurve"/>
      <point x="513" y="-29"/>
      <point x="244" y="155"/>
      <point x="102" y="503"/>
    </contour>
  </outline>
</glyph>
<glyph name="Gbreve" format="1">
  <advance width="1233"/>
  <unicode hex="011E"/>
  <note>
	Gbreve
  </note>
  <outline>
    <contour>
      <point x="849" y="1589"/>
      <point x="955" y="1671"/>
      <point x="970" y="1831" type="curve"/>
      <point x="851" y="1831" type="line"/>
      <point x="831" y="1757"/>
      <point x="767" y="1720"/>
      <point x="658" y="1720" type="curve" smooth="yes"/>
      <point x="545" y="1720"/>
      <point x="478" y="1759"/>
      <point x="462" y="1831" type="curve"/>
      <point x="343" y="1831" type="line"/>
      <point x="358" y="1670"/>
      <point x="463" y="1589"/>
      <point x="656" y="1589" type="curve" smooth="yes"/>
    </contour>
    <contour>
      <point x="780" y="-29"/>
      <point x="854" y="-16"/>
      <point x="922" y="10" type="curve" smooth="yes"/>
      <point x="989" y="35"/>
      <point x="1050" y="73"/>
      <point x="1104" y="123" type="curve"/>
      <point x="1104" y="766" type="line"/>
      <point x="694" y="766" type="line"/>
      <point x="694" y="600" type="line"/>
      <point x="911" y="600" type="line"/>
      <point x="911" y="199" type="line"/>
      <point x="883" y="176"/>
      <point x="852" y="162"/>
      <point x="820" y="151" type="curve" smooth="yes"/>
      <point x="788" y="140"/>
      <point x="750" y="135"/>
      <point x="703" y="135" type="curve" smooth="yes"/>
      <point x="571" y="135"/>
      <point x="476" y="181"/>
      <point x="409" y="285" type="curve" smooth="yes"/>
      <point x="345" y="385"/>
      <point x="313" y="532"/>
      <point x="313" y="743" type="curve" smooth="yes"/>
      <point x="313" y="952"/>
      <point x="345" y="1101"/>
      <point x="412" y="1204" type="curve" smooth="yes"/>
      <point x="480" y="1308"/>
      <point x="577" y="1356"/>
      <point x="706" y="1356" type="curve" smooth="yes"/>
      <point x="766" y="1356"/>
      <point x="828" y="1345"/>
      <point x="887" y="1320" type="curve" smooth="yes"/>
      <point x="938" y="1297"/>
      <point x="996" y="1261"/>
      <point x="1053" y="1206" type="curve"/>
      <point x="1053" y="1413" type="line"/>
      <point x="1005" y="1446"/>
      <point x="946" y="1475"/>
      <point x="887" y="1494" type="curve" smooth="yes"/>
      <point x="828" y="1513"/>
      <point x="765" y="1520"/>
      <point x="702" y="1520" type="curve" smooth="yes"/>
      <point x="511" y="1520"/>
      <point x="362" y="1445"/>
      <point x="261" y="1316" type="curve" smooth="yes"/>
      <point x="154" y="1179"/>
      <point x="102" y="985"/>
      <point x="102" y="744" type="curve" smooth="yes"/>
      <point x="102" y="503"/>
      <point x="155" y="311"/>
      <point x="259" y="175" type="curve" smooth="yes"/>
      <point x="362" y="42"/>
      <point x="509" y="-29"/>
      <point x="700" y="-29" type="curve" smooth="yes"/>
    </contour>
  </outline>
</glyph>
<glyph name="Gbreve" format="1">
  <advance width="1233"/>
  <unicode hex="011E"/>
  <outline>
    <contour>
      <point x="656" y="1589" type="qcurve" name="dv02"/>
      <point x="366" y="1589"/>
      <point x="343" y="1831" type="qcurve"/>
      <point x="462" y="1831" type="line" name="sv01"/>
      <point x="474" y="1777"/>
      <point x="573" y="1720"/>
      <point x="658" y="1720" type="qcurve" name="dv03"/>
      <point x="821" y="1720"/>
      <point x="851" y="1831" type="qcurve" name="sv02"/>
      <point x="970" y="1831" type="line"/>
      <point x="959" y="1711"/>
      <point x="801" y="1589"/>
    </contour>
    <contour>
      <point x="700" y="-29" type="qcurve" name="hr01"/>
      <point x="557" y="-29"/>
      <point x="336" y="75"/>
      <point x="259" y="175" type="qcurve"/>
      <point x="181" y="277"/>
      <point x="102" y="563"/>
      <point x="102" y="744" type="qcurve" name="dh01"/>
      <point x="102" y="925"/>
      <point x="181" y="1213"/>
      <point x="261" y="1316" type="qcurve"/>
      <point x="337" y="1413"/>
      <point x="559" y="1520"/>
      <point x="702" y="1520" type="qcurve" name="at01"/>
      <point x="749" y="1520"/>
      <point x="843" y="1508"/>
      <point x="887" y="1494" type="qcurve"/>
      <point x="931" y="1480"/>
      <point x="1017" y="1438"/>
      <point x="1053" y="1413" type="qcurve"/>
      <point x="1053" y="1206" type="line" name="ih01"/>
      <point x="1010" y="1247"/>
      <point x="925" y="1303"/>
      <point x="887" y="1320" type="qcurve"/>
      <point x="843" y="1339"/>
      <point x="751" y="1356"/>
      <point x="706" y="1356" type="qcurve" name="sv03"/>
      <point x="609" y="1356"/>
      <point x="463" y="1282"/>
      <point x="412" y="1204" type="qcurve"/>
      <point x="362" y="1127"/>
      <point x="313" y="900"/>
      <point x="313" y="743" type="qcurve" name="dh02"/>
      <point x="313" y="585"/>
      <point x="361" y="360"/>
      <point x="409" y="285" type="qcurve"/>
      <point x="459" y="207"/>
      <point x="604" y="135"/>
      <point x="703" y="135" type="qcurve" name="dv01"/>
      <point x="738" y="135"/>
      <point x="796" y="143"/>
      <point x="820" y="151" type="qcurve"/>
      <point x="844" y="159"/>
      <point x="890" y="182"/>
      <point x="911" y="199" type="qcurve" name="sh01"/>
      <point x="911" y="600" type="line" name="dv04"/>
      <point x="694" y="600" type="line"/>
      <point x="694" y="766" type="line" name="dh03"/>
      <point x="1104" y="766" type="line" name="dh04"/>
      <point x="1104" y="123" type="line" name="hr02"/>
      <point x="1023" y="48"/>
      <point x="922" y="10" type="qcurve" name="hr03"/>
      <point x="820" y="-29"/>
    </contour>
  </outline>
</glyph>
<glyph name="gdotaccent" format="1">
  <advance width="1233"/>
  <unicode hex="0121"/>
  <note>
	gdotaccent
  </note>
  <outline>
    <contour>
      <point x="716" y="1348" type="line" smooth="yes"/>
      <point x="736" y="1348"/>
      <point x="746" y="1358"/>
      <point x="746" y="1378" type="curve" smooth="yes"/>
      <point x="746" y="1522" type="line" smooth="yes"/>
      <point x="746" y="1542"/>
      <point x="736" y="1552"/>
      <point x="716" y="1552" type="curve" smooth="yes"/>
      <point x="571" y="1552" type="line" smooth="yes"/>
      <point x="551" y="1552"/>
      <point x="541" y="1542"/>
      <point x="541" y="1522" type="curve" smooth="yes"/>
      <point x="541" y="1378" type="line" smooth="yes"/>
      <point x="541" y="1358"/>
      <point x="551" y="1348"/>
      <point x="571" y="1348" type="curve" smooth="yes"/>
    </contour>
    <contour>
      <point x="910" y="-440"/>
      <point x="1070" y="-267"/>
      <point x="1070" y="72" type="curve" smooth="yes"/>
      <point x="1070" y="1116" type="line"/>
      <point x="904" y="1116" type="line"/>
      <point x="886" y="971" type="line"/>
      <point x="825" y="1090"/>
      <point x="723" y="1147"/>
      <point x="586" y="1147" type="curve" smooth="yes"/>
      <point x="317" y="1147"/>
      <point x="151" y="921"/>
      <point x="151" y="570" type="curve" smooth="yes"/>
      <point x="151" y="218"/>
      <point x="318" y="-8"/>
      <point x="585" y="-8" type="curve" smooth="yes"/>
      <point x="730" y="-8"/>
      <point x="830" y="57"/>
      <point x="886" y="178" type="curve"/>
      <point x="886" y="45" type="line" smooth="yes"/>
      <point x="886" y="-186"/>
      <point x="800" y="-293"/>
      <point x="607" y="-293" type="curve" smooth="yes"/>
      <point x="509" y="-293"/>
      <point x="410" y="-265"/>
      <point x="276" y="-203" type="curve"/>
      <point x="276" y="-385" type="line"/>
      <point x="388" y="-421"/>
      <point x="500" y="-440"/>
      <point x="601" y="-440" type="curve" smooth="yes"/>
    </contour>
    <contour>
      <point x="444" y="145"/>
      <point x="345" y="291"/>
      <point x="345" y="570" type="curve" smooth="yes"/>
      <point x="345" y="847"/>
      <point x="443" y="991"/>
      <point x="619" y="991" type="curve" smooth="yes"/>
      <point x="796" y="991"/>
      <point x="886" y="846"/>
      <point x="886" y="569" type="curve" smooth="yes"/>
      <point x="886" y="292"/>
      <point x="796" y="145"/>
      <point x="620" y="145" type="curve" smooth="yes"/>
    </contour>
  </outline>
</glyph>
<glyph name="Hcircumflex" format="1">
  <advance width="1233"/>
  <unicode hex="0124"/>
  <outline>
    <contour>
      <point x="522" y="1852" type="line" name="hr00"/>
      <point x="711" y="1852" type="line"/>
      <point x="922" y="1586" type="line"/>
      <point x="782" y="1586" type="line"/>
      <point x="616" y="1764" type="line"/>
      <point x="451" y="1586" type="line"/>
      <point x="311" y="1586" type="line"/>
    </contour>
    <contour>
      <point x="137" y="1493" type="line"/>
      <point x="340" y="1493" type="line"/>
      <point x="340" y="881" type="line"/>
      <point x="893" y="881" type="line"/>
      <point x="893" y="1493" type="line"/>
      <point x="1096" y="1493" type="line"/>
      <point x="1096" y="0" type="line"/>
      <point x="893" y="0" type="line"/>
      <point x="893" y="711" type="line"/>
      <point x="340" y="711" type="line"/>
      <point x="340" y="0" type="line"/>
      <point x="137" y="0" type="line"/>
    </contour>
  </outline>
</glyph>
<glyph name="hcircumflex" format="1">
  <advance width="1233"/>
  <unicode hex="0125"/>
  <outline>
    <contour>
      <point x="651" y="1852" type="line" name="hr00"/>
      <point x="840" y="1852" type="line"/>
      <point x="1051" y="1586" type="line"/>
      <point x="911" y="1586" type="line"/>
      <point x="745" y="1764" type="line"/>
      <point x="580" y="1586" type="line"/>
      <point x="440" y="1586" type="line"/>
    </contour>
    <contour>
      <point x="195" y="1556" type="line"/>
      <point x="379" y="1556" type="line"/>
      <point x="379" y="952" type="line"/>
      <point x="480" y="1147"/>
      <point x="710" y="1147" type="qcurve"/>
      <point x="882" y="1147"/>
      <point x="967" y="1035" type="qcurve"/>
      <point x="1051" y="922"/>
      <point x="1051" y="694" type="qcurve"/>
      <point x="1051" y="0" type="line"/>
      <point x="866" y="0" type="line"/>
      <point x="866" y="694" type="line"/>
      <point x="866" y="845"/>
      <point x="760" y="987"/>
      <point x="646" y="987" type="qcurve"/>
      <point x="517" y="987"/>
      <point x="379" y="805"/>
      <point x="379" y="633" type="qcurve"/>
      <point x="379" y="0" type="line"/>
      <point x="195" y="0" type="line"/>
    </contour>
  </outline>
</glyph>
<glyph name="Hbar" format="1">
  <advance width="1233"/>
  <unicode hex="0126"/>
  <outline>
    <contour>
      <point x="137" y="1105" type="line" name="hr00"/>
      <point x="3" y="1105" type="line"/>
      <point x="3" y="1269" type="line"/>
      <point x="137" y="1269" type="line" name="sh01"/>
      <point x="137" y="1493" type="line" name="at01"/>
      <point x="339" y="1493" type="line" name="sh03"/>
      <point x="339" y="1269" type="line" name="sv01"/>
      <point x="893" y="1269" type="line" name="ah01"/>
      <point x="893" y="1493" type="line" name="at02"/>
      <point x="1095" y="1493" type="line"/>
      <point x="1095" y="1269" type="line" name="sh04"/>
      <point x="1230" y="1269" type="line"/>
      <point x="1230" y="1105" type="line" name="sv02"/>
      <point x="1095" y="1105" type="line" name="sh05"/>
      <point x="1095" y="0" type="line" name="ab01"/>
      <point x="893" y="0" type="line" name="sh06"/>
      <point x="893" y="711" type="line" name="dv01"/>
      <point x="339" y="711" type="line" name="sh07"/>
      <point x="339" y="0" type="line" name="ab02"/>
      <point x="137" y="0" type="line"/>
    </contour>
    <contour>
      <point x="893" y="881" type="line" name="sh08"/>
      <point x="893" y="1105" type="line" name="sv03"/>
      <point x="339" y="1105" type="line" name="sh02"/>
      <point x="339" y="881" type="line"/>
    </contour>
  </outline>
</glyph>
<glyph name="Itilde" format="1">
  <advance width="1233"/>
  <unicode hex="0128"/>
  <outline>
    <contour>
      <point x="287" y="1633" type="line" name="hr00"/>
      <point x="287" y="1681"/>
      <point x="311" y="1761"/>
      <point x="339" y="1793" type="qcurve"/>
      <point x="390" y="1852"/>
      <point x="476" y="1852" type="qcurve" name="dv02"/>
      <point x="508" y="1852"/>
      <point x="542" y="1844" type="qcurve"/>
      <point x="557" y="1840"/>
      <point x="595" y="1823"/>
      <point x="621" y="1809" type="qcurve"/>
      <point x="678" y="1779" type="line"/>
      <point x="699" y="1766"/>
      <point x="718" y="1760" type="qcurve"/>
      <point x="734" y="1754"/>
      <point x="750" y="1754" type="qcurve"/>
      <point x="781" y="1754"/>
      <point x="801" y="1780" type="qcurve"/>
      <point x="821" y="1806"/>
      <point x="821" y="1846" type="qcurve"/>
      <point x="821" y="1852" type="line" name="sv01"/>
      <point x="946" y="1852" type="line"/>
      <point x="945" y="1753"/>
      <point x="893" y="1693" type="qcurve"/>
      <point x="842" y="1633"/>
      <point x="757" y="1633" type="qcurve" name="sv02"/>
      <point x="726" y="1633"/>
      <point x="694" y="1641" type="qcurve"/>
      <point x="680" y="1645"/>
      <point x="643" y="1660"/>
      <point x="612" y="1676" type="qcurve"/>
      <point x="555" y="1709" type="line"/>
      <point x="532" y="1722"/>
      <point x="514" y="1729" type="qcurve"/>
      <point x="506" y="1732"/>
      <point x="490" y="1734"/>
      <point x="485" y="1734" type="qcurve"/>
      <point x="470" y="1734"/>
      <point x="442" y="1722"/>
      <point x="432" y="1709" type="qcurve"/>
      <point x="412" y="1683"/>
      <point x="412" y="1639" type="qcurve"/>
      <point x="412" y="1633" type="line" name="dv01"/>
    </contour>
    <contour>
      <point x="201" y="170" type="line" name="sv03"/>
      <point x="514" y="170" type="line"/>
      <point x="514" y="1323" type="line" name="dh01"/>
      <point x="201" y="1323" type="line"/>
      <point x="201" y="1493" type="line" name="at01"/>
      <point x="1030" y="1493" type="line"/>
      <point x="1030" y="1323" type="line" name="sv04"/>
      <point x="717" y="1323" type="line" name="dh02"/>
      <point x="717" y="170" type="line" name="sv05"/>
      <point x="1030" y="170" type="line" name="sv06"/>
      <point x="1030" y="0" type="line" name="ab01"/>
      <point x="201" y="0" type="line"/>
    </contour>
  </outline>
</glyph>
<glyph name="itilde" format="1">
  <advance width="1233"/>
  <unicode hex="0129"/>
  <outline>
    <contour>
      <point x="268" y="1259" type="line" name="sh01"/>
      <point x="268" y="1324"/>
      <point x="294" y="1429"/>
      <point x="343" y="1502"/>
      <point x="416" y="1541"/>
      <point x="463" y="1541" type="qcurve" name="dv02"/>
      <point x="501" y="1541"/>
      <point x="565" y="1513"/>
      <point x="602" y="1480" type="qcurve"/>
      <point x="659" y="1425" type="line"/>
      <point x="683" y="1402"/>
      <point x="715" y="1386"/>
      <point x="729" y="1386" type="qcurve"/>
      <point x="746" y="1386"/>
      <point x="774" y="1404"/>
      <point x="783" y="1423" type="qcurve"/>
      <point x="800" y="1459"/>
      <point x="802" y="1541" type="qcurve" name="sv01"/>
      <point x="927" y="1541" type="line"/>
      <point x="927" y="1476"/>
      <point x="901" y="1371"/>
      <point x="852" y="1298"/>
      <point x="779" y="1259"/>
      <point x="732" y="1259" type="qcurve" name="hr01"/>
      <point x="694" y="1259"/>
      <point x="630" y="1287"/>
      <point x="593" y="1320" type="qcurve"/>
      <point x="536" y="1375" type="line"/>
      <point x="515" y="1395"/>
      <point x="483" y="1414"/>
      <point x="466" y="1414" type="qcurve"/>
      <point x="449" y="1414"/>
      <point x="421" y="1396"/>
      <point x="412" y="1377" type="qcurve"/>
      <point x="393" y="1338"/>
      <point x="392" y="1259" type="qcurve" name="dv01"/>
    </contour>
    <contour>
      <point x="859" y="-8" type="line" name="ab01"/>
      <point x="779" y="-8"/>
      <point x="652" y="42"/>
      <point x="604" y="98" type="qcurve"/>
      <point x="513" y="204"/>
      <point x="513" y="398" type="qcurve" name="sh02"/>
      <point x="513" y="976" type="line" name="sv02"/>
      <point x="268" y="976" type="line"/>
      <point x="268" y="1120" type="line" name="dh01"/>
      <point x="697" y="1120" type="line" name="dh02"/>
      <point x="697" y="398" type="line"/>
      <point x="697" y="273"/>
      <point x="743" y="211" type="qcurve"/>
      <point x="767" y="178"/>
      <point x="834" y="148"/>
      <point x="877" y="148" type="qcurve" name="sv03"/>
      <point x="1092" y="148" type="line"/>
      <point x="1092" y="-8" type="line" name="hr02"/>
    </contour>
  </outline>
</glyph>
<glyph name="Imacron" format="1">
  <advance width="1233"/>
  <unicode hex="012A"/>
  <note>
	Imacron
  </note>
  <outline>
    <contour>
      <point x="335" y="1652" type="line"/>
      <point x="933" y="1652" type="line"/>
      <point x="933" y="1800" type="line"/>
      <point x="335" y="1800" type="line"/>
    </contour>
    <contour>
      <point x="201" y="0" type="line"/>
      <point x="1030" y="0" type="line"/>
      <point x="1030" y="170" type="line"/>
      <point x="717" y="170" type="line"/>
      <point x="717" y="1323" type="line"/>
      <point x="1030" y="1323" type="line"/>
      <point x="1030" y="1493" type="line"/>
      <point x="201" y="1493" type="line"/>
      <point x="201" y="1323" type="line"/>
      <point x="514" y="1323" type="line"/>
      <point x="514" y="170" type="line"/>
      <point x="201" y="170" type="line"/>
    </contour>
  </outline>
</glyph>
<glyph name="Imacron" format="1">
  <advance width="1233"/>
  <unicode hex="012A"/>
  <outline>
    <contour>
      <point x="335" y="1800" type="line" name="hr00"/>
      <point x="933" y="1800" type="line" name="dv02"/>
      <point x="933" y="1652" type="line" name="dv01"/>
      <point x="335" y="1652" type="line"/>
    </contour>
    <contour>
      <point x="201" y="170" type="line" name="sv01"/>
      <point x="514" y="170" type="line" name="dh01"/>
      <point x="514" y="1323" type="line" name="sv02"/>
      <point x="201" y="1323" type="line"/>
      <point x="201" y="1493" type="line" name="at01"/>
      <point x="1030" y="1493" type="line"/>
      <point x="1030" y="1323" type="line" name="sv03"/>
      <point x="717" y="1323" type="line" name="sv04"/>
      <point x="717" y="170" type="line" name="dh02"/>
      <point x="1030" y="170" type="line" name="sv05"/>
      <point x="1030" y="0" type="line" name="ab01"/>
      <point x="201" y="0" type="line"/>
    </contour>
  </outline>
</glyph>
<glyph name="Iogonek" format="1">
  <advance width="1233"/>
  <unicode hex="012E"/>
  <outline>
    <contour>
      <point x="717" y="1323" type="line" name="sv01"/>
      <point x="717" y="170" type="line" name="sh01"/>
      <point x="1030" y="170" type="line" name="sv02"/>
      <point x="1030" y="0" type="line" name="ab01"/>
      <point x="717" y="0" type="line"/>
      <point x="669" y="-65"/>
      <point x="629" y="-150"/>
      <point x="629" y="-184" type="qcurve" name="dh02"/>
      <point x="629" y="-226"/>
      <point x="685" y="-272"/>
      <point x="739" y="-272" type="qcurve" name="dv01"/>
      <point x="801" y="-272"/>
      <point x="863" y="-242" type="qcurve" name="sh02"/>
      <point x="863" y="-375" type="line"/>
      <point x="821" y="-386"/>
      <point x="757" y="-395"/>
      <point x="720" y="-395" type="qcurve" name="hr01"/>
      <point x="608" y="-395"/>
      <point x="490" y="-310"/>
      <point x="490" y="-221" type="qcurve" name="dh01"/>
      <point x="490" y="-196"/>
      <point x="501" y="-147"/>
      <point x="526" y="-95"/>
      <point x="567" y="-35"/>
      <point x="598" y="0" type="qcurve" name="ih01"/>
      <point x="201" y="0" type="line"/>
      <point x="201" y="170" type="line" name="sv03"/>
      <point x="514" y="170" type="line" name="hr02"/>
      <point x="514" y="1323" type="line" name="hr03"/>
      <point x="201" y="1323" type="line" name="sv04"/>
      <point x="201" y="1493" type="line" name="at01"/>
      <point x="1030" y="1493" type="line"/>
      <point x="1030" y="1323" type="line"/>
    </contour>
  </outline>
</glyph>
<glyph name="iogonek" format="1">
  <advance width="1233"/>
  <unicode hex="012F"/>
  <note>
	iogonek
  </note>
  <outline>
    <contour>
      <point x="664" y="1323" type="line" smooth="yes"/>
      <point x="686" y="1323"/>
      <point x="697" y="1333"/>
      <point x="697" y="1353" type="curve" smooth="yes"/>
      <point x="697" y="1526" type="line" smooth="yes"/>
      <point x="697" y="1546"/>
      <point x="686" y="1556"/>
      <point x="664" y="1556" type="curve" smooth="yes"/>
      <point x="526" y="1556" type="line" smooth="yes"/>
      <point x="504" y="1556"/>
      <point x="493" y="1546"/>
      <point x="493" y="1526" type="curve" smooth="yes"/>
      <point x="493" y="1353" type="line" smooth="yes"/>
      <point x="493" y="1333"/>
      <point x="504" y="1323"/>
      <point x="526" y="1323" type="curve" smooth="yes"/>
    </contour>
    <contour>
      <point x="900" y="-261"/>
      <point x="862" y="-229"/>
      <point x="862" y="-173" type="curve" smooth="yes"/>
      <point x="862" y="-130"/>
      <point x="883" y="-84"/>
      <point x="936" y="-8" type="curve"/>
      <point x="1092" y="-8" type="line"/>
      <point x="1092" y="148" type="line"/>
      <point x="877" y="148" type="line" smooth="yes"/>
      <point x="820" y="148"/>
      <point x="775" y="167"/>
      <point x="743" y="211" type="curve" smooth="yes"/>
      <point x="712" y="252"/>
      <point x="697" y="315"/>
      <point x="697" y="398" type="curve" smooth="yes"/>
      <point x="697" y="1120" type="line"/>
      <point x="268" y="1120" type="line"/>
      <point x="268" y="976" type="line"/>
      <point x="513" y="976" type="line"/>
      <point x="513" y="398" type="line" smooth="yes"/>
      <point x="513" y="269"/>
      <point x="543" y="169"/>
      <point x="604" y="98" type="curve" smooth="yes"/>
      <point x="659" y="34"/>
      <point x="729" y="2"/>
      <point x="816" y="-6" type="curve"/>
      <point x="746" y="-92"/>
      <point x="723" y="-147"/>
      <point x="723" y="-210" type="curve" smooth="yes"/>
      <point x="723" y="-329"/>
      <point x="804" y="-384"/>
      <point x="953" y="-384" type="curve" smooth="yes"/>
      <point x="1002" y="-384"/>
      <point x="1040" y="-379"/>
      <point x="1096" y="-364" type="curve"/>
      <point x="1096" y="-231" type="line"/>
      <point x="1055" y="-251"/>
      <point x="1013" y="-261"/>
      <point x="972" y="-261" type="curve" smooth="yes"/>
    </contour>
  </outline>
</glyph>
<glyph name="Idotaccent" format="1">
  <advance width="1233"/>
  <unicode hex="0130"/>
  <outline>
    <contour>
      <point x="543" y="1647" type="line" name="hr00"/>
      <point x="513" y="1647"/>
      <point x="513" y="1677" type="qcurve" name="sh01"/>
      <point x="513" y="1822" type="line"/>
      <point x="513" y="1852"/>
      <point x="543" y="1852" type="qcurve" name="dv01"/>
      <point x="688" y="1852" type="line"/>
      <point x="718" y="1852"/>
      <point x="718" y="1822" type="qcurve" name="sh02"/>
      <point x="718" y="1677" type="line"/>
      <point x="718" y="1647"/>
      <point x="688" y="1647" type="qcurve"/>
    </contour>
    <contour>
      <point x="201" y="170" type="line" name="sv01"/>
      <point x="514" y="170" type="line" name="dh01"/>
      <point x="514" y="1323" type="line" name="sv02"/>
      <point x="201" y="1323" type="line"/>
      <point x="201" y="1493" type="line" name="at01"/>
      <point x="1030" y="1493" type="line"/>
      <point x="1030" y="1323" type="line" name="sv03"/>
      <point x="717" y="1323" type="line" name="sv04"/>
      <point x="717" y="170" type="line" name="dh02"/>
      <point x="1030" y="170" type="line" name="sv05"/>
      <point x="1030" y="0" type="line" name="ab01"/>
      <point x="201" y="0" type="line"/>
    </contour>
  </outline>
</glyph>
<glyph name="dotlessi" format="1">
  <advance width="1233"/>
  <unicode hex="0131"/>
  <outline>
    <contour>
      <point x="859" y="-8" type="line" name="ab01"/>
      <point x="779" y="-8"/>
      <point x="652" y="42"/>
      <point x="604" y="98" type="qcurve"/>
      <point x="513" y="204"/>
      <point x="513" y="398" type="qcurve" name="sh01"/>
      <point x="513" y="976" type="line" name="sv01"/>
      <point x="268" y="976" type="line"/>
      <point x="268" y="1120" type="line" name="dh01"/>
      <point x="697" y="1120" type="line" name="dh02"/>
      <point x="697" y="398" type="line"/>
      <point x="697" y="273"/>
      <point x="743" y="211" type="qcurve" name="hr01"/>
      <point x="767" y="178"/>
      <point x="834" y="148"/>
      <point x="877" y="148" type="qcurve" name="sv02"/>
      <point x="1092" y="148" type="line" name="sv03"/>
      <point x="1092" y="-8" type="line" name="ab02"/>
    </contour>
  </outline>
</glyph>
<glyph name="IJ" format="1">
  <advance width="1233"/>
  <unicode hex="0132"/>
  <outline>
    <contour>
      <point x="135" y="203" type="line" name="hr00"/>
      <point x="693" y="203" type="line"/>
      <point x="749" y="203"/>
      <point x="795" y="231" type="qcurve"/>
      <point x="842" y="258"/>
      <point x="896" y="352"/>
      <point x="896" y="406" type="qcurve"/>
      <point x="895" y="1323" type="line"/>
      <point x="575" y="1323" type="line"/>
      <point x="575" y="1493" type="line"/>
      <point x="1098" y="1494" type="line"/>
      <point x="1099" y="406" type="line"/>
      <point x="1099" y="296"/>
      <point x="1045" y="203" type="qcurve" name="hr01"/>
      <point x="990" y="109"/>
      <point x="803" y="0"/>
      <point x="693" y="0" type="qcurve" name="hr02"/>
      <point x="135" y="0" type="line"/>
    </contour>
    <contour>
      <point x="135" y="1493" type="line"/>
      <point x="338" y="1493" type="line"/>
      <point x="338" y="406" type="line"/>
      <point x="135" y="406" type="line"/>
    </contour>
  </outline>
</glyph>
<glyph name="Jcircumflex" format="1">
  <advance width="1233"/>
  <unicode hex="0134"/>
  <outline>
    <contour>
      <point x="761" y="1852" type="line" name="hr00"/>
      <point x="950" y="1852" type="line"/>
      <point x="1161" y="1586" type="line"/>
      <point x="1021" y="1586" type="line"/>
      <point x="855" y="1764" type="line"/>
      <point x="690" y="1586" type="line"/>
      <point x="550" y="1586" type="line"/>
    </contour>
    <contour>
      <point x="109" y="61" type="qcurve"/>
      <point x="109" y="297" type="line"/>
      <point x="291" y="135"/>
      <point x="499" y="135" type="qcurve"/>
      <point x="597" y="135"/>
      <point x="706" y="199"/>
      <point x="754" y="350"/>
      <point x="754" y="487" type="qcurve"/>
      <point x="754" y="1323" type="line"/>
      <point x="373" y="1323" type="line"/>
      <point x="373" y="1493" type="line"/>
      <point x="956" y="1493" type="line"/>
      <point x="956" y="487" type="line"/>
      <point x="956" y="343"/>
      <point x="905" y="150"/>
      <point x="850" y="89" type="qcurve"/>
      <point x="795" y="29"/>
      <point x="625" y="-29"/>
      <point x="502" y="-29" type="qcurve"/>
      <point x="402" y="-29"/>
      <point x="213" y="15"/>
    </contour>
  </outline>
</glyph>
<glyph name="uni0136" format="1">
  <advance width="1233"/>
  <unicode hex="0136"/>
  <outline>
    <contour>
      <point x="137" y="1493" type="line" name="hr00"/>
      <point x="340" y="1493" type="line" name="dh01"/>
      <point x="340" y="829" type="line" name="iv01"/>
      <point x="971" y="1493" type="line" name="at01"/>
      <point x="1208" y="1493" type="line"/>
      <point x="627" y="883" type="line"/>
      <point x="1225" y="0" type="line" name="ab01"/>
      <point x="981" y="0" type="line"/>
      <point x="494" y="748" type="line"/>
      <point x="340" y="584" type="line" name="sh01"/>
      <point x="340" y="0" type="line" name="ab02"/>
      <point x="137" y="0" type="line"/>
    </contour>
    <contour>
      <point x="608" y="-199" type="line" name="dv02"/>
      <point x="847" y="-199" type="line"/>
      <point x="660" y="-544" type="line" name="dv01"/>
      <point x="514" y="-544" type="line"/>
    </contour>
  </outline>
</glyph>
<glyph name="kgreenlandic" format="1">
  <advance width="1233"/>
  <unicode hex="0138"/>
  <outline>
    <contour>
      <point x="186" y="1120" type="line" name="hr00"/>
      <point x="376" y="1120" type="line"/>
      <point x="376" y="655" type="line"/>
      <point x="859" y="1120" type="line"/>
      <point x="1083" y="1120" type="line"/>
      <point x="642" y="698" type="line"/>
      <point x="1152" y="0" type="line"/>
      <point x="927" y="0" type="line"/>
      <point x="513" y="578" type="line"/>
      <point x="376" y="449" type="line"/>
      <point x="376" y="0" type="line"/>
      <point x="186" y="0" type="line"/>
    </contour>
  </outline>
</glyph>
<glyph name="lacute" format="1">
  <advance width="1233"/>
  <unicode hex="013A"/>
  <note>
	lacute
  </note>
  <outline>
    <contour>
      <point x="380" y="1616" type="line"/>
      <point x="534" y="1616" type="line"/>
      <point x="763" y="1880" type="line"/>
      <point x="577" y="1880" type="line"/>
    </contour>
    <contour>
      <point x="1034" y="-8" type="line"/>
      <point x="1034" y="148" type="line"/>
      <point x="819" y="148" type="line" smooth="yes"/>
      <point x="699" y="148"/>
      <point x="639" y="231"/>
      <point x="639" y="398" type="curve" smooth="yes"/>
      <point x="639" y="1556" type="line"/>
      <point x="160" y="1556" type="line"/>
      <point x="160" y="1412" type="line"/>
      <point x="455" y="1412" type="line"/>
      <point x="455" y="398" type="line" smooth="yes"/>
      <point x="455" y="138"/>
      <point x="580" y="-8"/>
      <point x="801" y="-8" type="curve" smooth="yes"/>
    </contour>
  </outline>
</glyph>
<glyph name="uni013B" format="1">
  <advance width="1233"/>
  <unicode hex="013B"/>
  <outline>
    <contour>
      <point x="215" y="1493" type="line" name="hr00"/>
      <point x="418" y="1493" type="line" name="dh01"/>
      <point x="418" y="170" type="line" name="sv01"/>
      <point x="1139" y="170" type="line"/>
      <point x="1139" y="0" type="line" name="ab01"/>
      <point x="215" y="0" type="line"/>
    </contour>
    <contour>
      <point x="604" y="-199" type="line" name="dv02"/>
      <point x="843" y="-199" type="line"/>
      <point x="656" y="-544" type="line" name="dv01"/>
      <point x="510" y="-544" type="line"/>
    </contour>
  </outline>
</glyph>
<glyph name="Lcaron" format="1">
  <advance width="1233"/>
  <unicode hex="013D"/>
  <outline>
    <contour>
      <point x="215" y="1493" type="line" name="hr00"/>
      <point x="418" y="1493" type="line" name="dh01"/>
      <point x="418" y="170" type="line" name="sv01"/>
      <point x="1139" y="170" type="line"/>
      <point x="1139" y="0" type="line" name="ab01"/>
      <point x="215" y="0" type="line"/>
    </contour>
    <contour>
      <point x="718" y="1491" type="line" name="at01"/>
      <point x="916" y="1491" type="line"/>
      <point x="803" y="1115" type="line" name="sv02"/>
      <point x="649" y="1115" type="line"/>
    </contour>
  </outline>
</glyph>
<glyph name="lcaron" format="1">
  <advance width="1233"/>
  <unicode hex="013E"/>
  <outline>
    <contour>
      <point x="801" y="-8" type="line" name="ab01"/>
      <point x="635" y="-8"/>
      <point x="455" y="203"/>
      <point x="455" y="398" type="qcurve" name="sh01"/>
      <point x="455" y="1412" type="line" name="sv01"/>
      <point x="160" y="1412" type="line"/>
      <point x="160" y="1556" type="line" name="dh01"/>
      <point x="639" y="1556" type="line" name="dh02"/>
      <point x="639" y="398" type="line"/>
      <point x="639" y="148"/>
      <point x="819" y="148" type="qcurve" name="sv02"/>
      <point x="1034" y="148" type="line"/>
      <point x="1034" y="-8" type="line"/>
    </contour>
    <contour>
      <point x="959" y="1556" type="line" name="hr01"/>
      <point x="1157" y="1556" type="line" name="hr02"/>
      <point x="1044" y="1180" type="line" name="sv03"/>
      <point x="890" y="1180" type="line"/>
    </contour>
  </outline>
</glyph>
<glyph name="Ldot" format="1">
  <advance width="1233"/>
  <unicode hex="013F"/>
  <outline>
    <contour>
      <point x="215" y="1493" type="line" name="hr00"/>
      <point x="418" y="1493" type="line"/>
      <point x="418" y="170" type="line"/>
      <point x="1139" y="170" type="line"/>
      <point x="1139" y="0" type="line"/>
      <point x="215" y="0" type="line"/>
    </contour>
    <contour>
      <point x="676" y="570" type="qcurve"/>
      <point x="676" y="714" type="line"/>
      <point x="676" y="744"/>
      <point x="706" y="744" type="qcurve"/>
      <point x="851" y="744" type="line"/>
      <point x="881" y="744"/>
      <point x="881" y="714" type="qcurve"/>
      <point x="881" y="570" type="line"/>
      <point x="881" y="540"/>
      <point x="851" y="540" type="qcurve"/>
      <point x="706" y="540" type="line"/>
      <point x="676" y="540"/>
    </contour>
  </outline>
</glyph>
<glyph name="Lslash" format="1">
  <advance width="1233"/>
  <unicode hex="0141"/>
  <outline>
    <contour>
      <point x="215" y="571" type="line" name="hr00"/>
      <point x="70" y="465" type="line"/>
      <point x="-10" y="575" type="line"/>
      <point x="215" y="733" type="line" name="dh01"/>
      <point x="215" y="1493" type="line" name="at01"/>
      <point x="418" y="1493" type="line" name="sh01"/>
      <point x="418" y="877" type="line" name="iv01"/>
      <point x="733" y="1096" type="line"/>
      <point x="811" y="985" type="line"/>
      <point x="418" y="711" type="line" name="dh02"/>
      <point x="418" y="170" type="line" name="sv01"/>
      <point x="1139" y="170" type="line"/>
      <point x="1139" y="0" type="line" name="ab01"/>
      <point x="215" y="0" type="line"/>
    </contour>
  </outline>
</glyph>
<glyph name="nacute" format="1">
  <advance width="1233"/>
  <unicode hex="0144"/>
  <outline>
    <contour>
      <point x="776" y="1673" type="line" name="av01"/>
      <point x="974" y="1673" type="line" name="ih01"/>
      <point x="649" y="1297" type="line"/>
      <point x="495" y="1297" type="line" name="ih02"/>
    </contour>
    <contour>
      <point x="195" y="1120" type="line" name="sh02"/>
      <point x="361" y="1120" type="line"/>
      <point x="379" y="952" type="line" name="sh03"/>
      <point x="428" y="1049"/>
      <point x="596" y="1147"/>
      <point x="711" y="1147" type="qcurve" name="sv02"/>
      <point x="883" y="1147"/>
      <point x="1051" y="923"/>
      <point x="1051" y="694" type="qcurve"/>
      <point x="1051" y="0" type="line" name="sh01"/>
      <point x="866" y="0" type="line" name="hr01"/>
      <point x="866" y="694" type="line"/>
      <point x="866" y="845"/>
      <point x="761" y="987"/>
      <point x="648" y="987" type="qcurve" name="sv01"/>
      <point x="517" y="987"/>
      <point x="379" y="805"/>
      <point x="379" y="633" type="qcurve" name="sh04"/>
      <point x="379" y="0" type="line" name="ab01"/>
      <point x="195" y="0" type="line"/>
    </contour>
  </outline>
</glyph>
<glyph name="uni0145" format="1">
  <advance width="1233"/>
  <unicode hex="0145"/>
  <outline>
    <contour>
      <point x="139" y="1493" type="line" name="hr00"/>
      <point x="395" y="1493" type="line"/>
      <point x="899" y="264" type="line" name="ah01"/>
      <point x="899" y="1493" type="line" name="at01"/>
      <point x="1094" y="1493" type="line"/>
      <point x="1094" y="0" type="line" name="sh01"/>
      <point x="838" y="0" type="line"/>
      <point x="334" y="1229" type="line" name="sh02"/>
      <point x="334" y="0" type="line" name="ab01"/>
      <point x="139" y="0" type="line"/>
    </contour>
    <contour>
      <point x="544" y="-199" type="line" name="dv02"/>
      <point x="783" y="-199" type="line" name="ih01"/>
      <point x="596" y="-544" type="line" name="dv01"/>
      <point x="450" y="-544" type="line" name="ih02"/>
    </contour>
  </outline>
</glyph>
<glyph name="napostrophe" format="1">
  <advance width="1233"/>
  <unicode hex="0149"/>
  <outline>
    <contour>
      <point x="98" y="1350" type="line" name="hr00"/>
      <point x="98" y="1556" type="line"/>
      <point x="350" y="1556" type="line"/>
      <point x="350" y="1350" type="line"/>
      <point x="153" y="967" type="line"/>
      <point x="0" y="967" type="line"/>
    </contour>
    <contour>
      <point x="372" y="1120" type="line"/>
      <point x="538" y="1120" type="line"/>
      <point x="556" y="952" type="line"/>
      <point x="656" y="1147"/>
      <point x="887" y="1147" type="qcurve"/>
      <point x="1059" y="1147"/>
      <point x="1144" y="1035" type="qcurve"/>
      <point x="1228" y="922"/>
      <point x="1228" y="694" type="qcurve" name="hr01"/>
      <point x="1228" y="0" type="line"/>
      <point x="1043" y="0" type="line"/>
      <point x="1043" y="694" type="line"/>
      <point x="1043" y="845"/>
      <point x="937" y="987"/>
      <point x="823" y="987" type="qcurve"/>
      <point x="694" y="987"/>
      <point x="556" y="805"/>
      <point x="556" y="633" type="qcurve"/>
      <point x="556" y="0" type="line"/>
      <point x="372" y="0" type="line"/>
    </contour>
  </outline>
</glyph>
<glyph name="eng" format="1">
  <advance width="1233"/>
  <unicode hex="014B"/>
  <outline>
    <contour>
      <point x="502" y="-270" type="line" name="sv01"/>
      <point x="687" y="-270" type="line"/>
      <point x="866" y="-270"/>
      <point x="866" y="-20" type="qcurve" name="ah01"/>
      <point x="866" y="694" type="line"/>
      <point x="866" y="845"/>
      <point x="761" y="987"/>
      <point x="648" y="987" type="qcurve" name="sv02"/>
      <point x="517" y="987"/>
      <point x="379" y="805"/>
      <point x="379" y="633" type="qcurve"/>
      <point x="379" y="0" type="line" name="hr01"/>
      <point x="195" y="0" type="line" name="sh01"/>
      <point x="195" y="1120" type="line" name="at01"/>
      <point x="361" y="1120" type="line"/>
      <point x="379" y="952" type="line" name="sh02"/>
      <point x="428" y="1049"/>
      <point x="596" y="1147"/>
      <point x="711" y="1147" type="qcurve" name="sv03"/>
      <point x="883" y="1147"/>
      <point x="1051" y="923"/>
      <point x="1051" y="694" type="qcurve"/>
      <point x="1051" y="-20" type="line" name="sh03"/>
      <point x="1051" y="-216"/>
      <point x="873" y="-426"/>
      <point x="707" y="-426" type="qcurve" name="ab01"/>
      <point x="502" y="-426" type="line"/>
    </contour>
  </outline>
</glyph>
<glyph name="omacron" format="1">
  <advance width="1233"/>
  <unicode hex="014D"/>
  <note>
	omacron
  </note>
  <outline>
    <contour>
      <point x="317" y="1347" type="line"/>
      <point x="915" y="1347" type="line"/>
      <point x="915" y="1495" type="line"/>
      <point x="317" y="1495" type="line"/>
    </contour>
    <contour>
      <point x="928" y="-29"/>
      <point x="1096" y="177"/>
      <point x="1096" y="558" type="curve" smooth="yes"/>
      <point x="1096" y="939"/>
      <point x="927" y="1147"/>
      <point x="616" y="1147" type="curve" smooth="yes"/>
      <point x="305" y="1147"/>
      <point x="137" y="939"/>
      <point x="137" y="558" type="curve" smooth="yes"/>
      <point x="137" y="174"/>
      <point x="303" y="-29"/>
      <point x="616" y="-29" type="curve" smooth="yes"/>
    </contour>
    <contour>
      <point x="428" y="127"/>
      <point x="332" y="274"/>
      <point x="332" y="559" type="curve" smooth="yes"/>
      <point x="332" y="846"/>
      <point x="428" y="991"/>
      <point x="616" y="991" type="curve" smooth="yes"/>
      <point x="805" y="991"/>
      <point x="901" y="846"/>
      <point x="901" y="559" type="curve" smooth="yes"/>
      <point x="901" y="274"/>
      <point x="805" y="127"/>
      <point x="616" y="127" type="curve" smooth="yes"/>
    </contour>
  </outline>
</glyph>
